<?xml version="1.0" encoding="UTF-8" standalone="no"?>
<!-- Created with Inkscape (http://www.inkscape.org/) -->

<svg
   xmlns:dc="http://purl.org/dc/elements/1.1/"
   xmlns:cc="http://creativecommons.org/ns#"
   xmlns:rdf="http://www.w3.org/1999/02/22-rdf-syntax-ns#"
   xmlns:svg="http://www.w3.org/2000/svg"
   xmlns="http://www.w3.org/2000/svg"
   xmlns:sodipodi="http://sodipodi.sourceforge.net/DTD/sodipodi-0.dtd"
   xmlns:inkscape="http://www.inkscape.org/namespaces/inkscape"
   version="1.1"
   width="310.87726"
   height="92.836075"
   id="svg3059"
   inkscape:version="0.48.2 r9819"
   sodipodi:docname="logo.svg">
  <sodipodi:namedview
     pagecolor="#ffffff"
     bordercolor="#666666"
     borderopacity="1"
     objecttolerance="10"
     gridtolerance="10"
     guidetolerance="10"
     inkscape:pageopacity="0"
     inkscape:pageshadow="2"
     inkscape:window-width="640"
     inkscape:window-height="480"
     id="namedview13"
     showgrid="false"
     inkscape:zoom="1.0229117"
     inkscape:cx="157.53504"
     inkscape:cy="56.435947"
     inkscape:window-x="0"
     inkscape:window-y="24"
     inkscape:window-maximized="0"
     inkscape:current-layer="layer1" />
  <defs
     id="defs3061" />
  <metadata
     id="metadata3064">
    <rdf:RDF>
      <cc:Work
         rdf:about="">
        <dc:format>image/svg+xml</dc:format>
        <dc:type
           rdf:resource="http://purl.org/dc/dcmitype/StillImage" />
        <dc:title />
      </cc:Work>
    </rdf:RDF>
  </metadata>
  <g
     transform="translate(-238.84708,-514.5156)"
     id="layer1">
    <g
       transform="matrix(5.78601,0,0,5.78601,-573.18626,-2161.7388)"
       id="g2990"
       style="display:inline">
      <g
         style="font-size:20px;font-style:normal;font-variant:normal;font-weight:bold;font-stretch:normal;text-align:center;line-height:125%;letter-spacing:0px;word-spacing:0px;text-anchor:middle;fill:#ffffff;fill-opacity:1;stroke:none;font-family:Impact;-inkscape-font-specification:Impact Bold"
         id="text2985">
        <path
           d="m 184.05386,471.82648 -5.10742,0 0,2.80273 c 0,0.58594 0.0423,0.96355 0.12695,1.13281 0.0846,0.16928 0.2474,0.25391 0.48829,0.25391 0.29947,0 0.49804,-0.11067 0.5957,-0.33203 0.10416,-0.22786 0.15624,-0.66406 0.15625,-1.30859 l 0,-1.70899 3.74023,0 0,0.95703 c -10e-6,0.80079 -0.0521,1.41602 -0.15625,1.84571 -0.0977,0.42968 -0.33204,0.88867 -0.70312,1.37695 -0.3711,0.48828 -0.84311,0.85612 -1.41602,1.10351 -0.56641,0.24089 -1.2793,0.36133 -2.13867,0.36133 -0.83334,0 -1.56901,-0.12044 -2.20703,-0.36133 -0.63802,-0.24088 -1.13607,-0.56966 -1.49414,-0.98632 -0.35156,-0.42318 -0.5957,-0.88542 -0.73242,-1.38672 -0.13672,-0.50781 -0.20508,-1.24349 -0.20508,-2.20703 l 0,-3.7793 c 0,-1.1328 0.15299,-2.02473 0.45898,-2.67578 0.30599,-0.65754 0.80729,-1.15884 1.50391,-1.50391 0.69661,-0.35155 1.49739,-0.52733 2.40234,-0.52734 1.10677,10e-6 2.01823,0.2116 2.73438,0.63476 0.72265,0.41668 1.2272,0.97332 1.51367,1.66993 0.29296,0.69011 0.43944,1.66342 0.43945,2.91992 l 0,1.71875 m -3.95507,-2.10938 0,-0.94726 c -1e-5,-0.67057 -0.0358,-1.10351 -0.10743,-1.29883 -0.0716,-0.1953 -0.2181,-0.29296 -0.43945,-0.29297 -0.27344,10e-6 -0.44271,0.0847 -0.50781,0.25391 -0.0651,0.16277 -0.0977,0.60873 -0.0977,1.33789 l 0,0.94726 1.15235,0"
           style="font-family:Impact;-inkscape-font-specification:Impact Bold;fill:#ffffff"
           id="path3007" />
        <path
           d="m 188.87808,470.13702 -3.70117,0 0,-0.86914 c 0,-1.00259 0.11393,-1.77407 0.3418,-2.31445 0.23437,-0.54686 0.69987,-1.02863 1.39648,-1.44531 0.69661,-0.41666 1.60156,-0.62499 2.71485,-0.625 1.33462,10e-6 2.34048,0.23764 3.01757,0.71289 0.67708,0.46876 1.08398,1.04819 1.22071,1.73828 0.13671,0.6836 0.20507,2.09636 0.20507,4.23828 l 0,6.50391 -3.83789,0 0,-1.15235 c -0.24089,0.46224 -0.55339,0.81055 -0.9375,1.04493 -0.3776,0.22786 -0.83008,0.34179 -1.35742,0.34179 -0.6901,0 -1.32487,-0.19206 -1.90429,-0.57617 -0.57292,-0.39062 -0.85938,-1.24023 -0.85938,-2.54883 l 0,-1.06445 c 0,-0.97005 0.15299,-1.63085 0.45898,-1.98242 0.30599,-0.35156 1.06446,-0.76171 2.2754,-1.23047 1.29556,-0.50781 1.98892,-0.8496 2.08007,-1.02539 0.0911,-0.17578 0.13672,-0.53385 0.13672,-1.07422 0,-0.67707 -0.0521,-1.11653 -0.15625,-1.31836 -0.0977,-0.20832 -0.26367,-0.31249 -0.49804,-0.3125 -0.26694,10e-6 -0.43295,0.0879 -0.49805,0.26367 -0.0651,0.16928 -0.0977,0.61525 -0.0977,1.33789 l 0,1.35742 m 1.25,1.77735 c -0.63151,0.46224 -0.99935,0.84961 -1.10351,1.16211 -0.0977,0.3125 -0.14649,0.76172 -0.14649,1.34765 0,0.67058 0.0423,1.10352 0.12696,1.29883 0.0911,0.19532 0.26692,0.29297 0.52734,0.29297 0.24739,0 0.40689,-0.0749 0.47851,-0.22461 0.0781,-0.15625 0.11719,-0.55989 0.11719,-1.21094 l 0,-2.66601"
           style="font-family:Impact;-inkscape-font-specification:Impact Bold;fill:#ffffff"
           id="path3009" />
      </g>
      <g
         transform="matrix(1,0,-0.31201963,1,0,0)"
         style="font-size:20px;font-style:normal;font-variant:normal;font-weight:bold;font-stretch:normal;text-align:center;line-height:125%;letter-spacing:0px;word-spacing:0px;text-anchor:middle;fill:#ff9955;fill-opacity:1;stroke:none;font-family:Impact;-inkscape-font-specification:Impact Bold"
         id="text3007">
        <path
           d="m 310.94101,472.0994 -5.10742,0 0,2.80273 c -1e-5,0.58594 0.0423,0.96354 0.12695,1.13281 0.0846,0.16928 0.24739,0.25391 0.48828,0.25391 0.29948,0 0.49804,-0.11068 0.59571,-0.33203 0.10416,-0.22786 0.15624,-0.66406 0.15625,-1.3086 l 0,-1.70898 3.74023,0 0,0.95703 c -1e-5,0.80079 -0.0521,1.41602 -0.15625,1.8457 -0.0977,0.42969 -0.33204,0.88868 -0.70313,1.37696 -0.3711,0.48828 -0.8431,0.85612 -1.41601,1.10351 -0.56641,0.24089 -1.2793,0.36133 -2.13867,0.36133 -0.83334,0 -1.56902,-0.12044 -2.20703,-0.36133 -0.63803,-0.24088 -1.13607,-0.56966 -1.49414,-0.98633 -0.35157,-0.42317 -0.59571,-0.88541 -0.73243,-1.38671 -0.13672,-0.50781 -0.20508,-1.24349 -0.20507,-2.20704 l 0,-3.77929 c -1e-5,-1.13281 0.15299,-2.02473 0.45898,-2.67578 0.30599,-0.65754 0.80729,-1.15885 1.50391,-1.50391 0.69661,-0.35155 1.49739,-0.52733 2.40234,-0.52734 1.10676,10e-6 2.01822,0.2116 2.73437,0.63476 0.72265,0.41668 1.22721,0.97332 1.51368,1.66992 0.29296,0.69012 0.43944,1.66342 0.43945,2.91993 l 0,1.71875 m -3.95508,-2.10938 0,-0.94726 c 0,-0.67057 -0.0358,-1.10351 -0.10742,-1.29883 -0.0716,-0.1953 -0.2181,-0.29296 -0.43945,-0.29297 -0.27345,10e-6 -0.44272,0.0846 -0.50782,0.2539 -0.0651,0.16278 -0.0977,0.60874 -0.0976,1.3379 l 0,0.94726 1.15234,0"
           style=""
           id="path3012" />
        <path
           d="m 321.21445,462.53885 0,15.81055 -3.94532,0 0,-0.9375 c -0.37761,0.39062 -0.77474,0.68359 -1.1914,0.8789 -0.41667,0.19531 -0.85287,0.29297 -1.3086,0.29297 -0.61198,0 -1.14258,-0.1595 -1.59179,-0.47851 -0.44922,-0.32553 -0.73894,-0.69987 -0.86914,-1.12305 -0.1237,-0.42318 -0.18555,-1.11328 -0.18555,-2.07031 l 0,-6.06446 c 0,-0.99608 0.0618,-1.70246 0.18555,-2.11914 0.1302,-0.41665 0.42317,-0.78124 0.8789,-1.09375 0.45573,-0.319 0.99935,-0.4785 1.63086,-0.47851 0.48828,10e-6 0.93424,0.0879 1.33789,0.26367 0.41015,0.17579 0.78125,0.43946 1.11328,0.79101 l 0,-3.67187 3.94532,0 m -3.94532,6.11328 c 0,-0.47525 -0.0423,-0.79426 -0.12695,-0.95703 -0.0781,-0.16275 -0.23763,-0.24413 -0.47851,-0.24414 -0.23438,10e-6 -0.39389,0.0749 -0.47852,0.22461 -0.0781,0.14324 -0.11719,0.46876 -0.11719,0.97656 l 0,6.34766 c 0,0.52734 0.0391,0.87565 0.11719,1.04492 0.0781,0.16276 0.22786,0.24414 0.44922,0.24414 0.2539,0 0.42317,-0.0911 0.50781,-0.27344 0.0846,-0.1888 0.12695,-0.64453 0.12695,-1.36719 l 0,-5.99609"
           style=""
           id="path3014" />
      </g>
      <g
         style="font-size:20px;font-style:normal;font-variant:normal;font-weight:bold;font-stretch:normal;text-align:center;line-height:125%;letter-spacing:0px;word-spacing:0px;text-anchor:middle;fill:#ffffff;fill-opacity:1;stroke:none;font-family:Impact;-inkscape-font-specification:Impact Bold"
         id="text3011">
        <path
           d="m 144.24075,465.35187 -0.0684,1.23047 c 0.30599,-0.48827 0.67057,-0.85286 1.09375,-1.09375 0.42317,-0.24739 0.90495,-0.37108 1.44532,-0.3711 1.05468,2e-5 1.88475,0.4883 2.49023,1.46485 0.33202,-0.48827 0.70637,-0.85286 1.12305,-1.09375 0.41665,-0.24739 0.87889,-0.37108 1.38672,-0.3711 0.67056,2e-5 1.22394,0.16278 1.66015,0.48828 0.4427,0.32554 0.7259,0.72593 0.84961,1.20118 0.12369,0.46876 0.18553,1.23373 0.18555,2.29492 l 0,9.20898 -3.82813,0 0,-8.44726 c -1e-5,-1.10676 -0.0391,-1.79036 -0.11718,-2.05078 -0.0716,-0.26692 -0.24415,-0.40038 -0.51758,-0.4004 -0.27996,2e-5 -0.46225,0.13022 -0.54688,0.39063 -0.0781,0.26043 -0.11719,0.94727 -0.11718,2.06055 l 0,8.44726 -3.82813,0 0,-8.23242 c -1e-5,-1.26952 -0.0326,-2.03124 -0.0977,-2.28516 -0.0586,-0.25389 -0.22787,-0.38084 -0.50781,-0.38086 -0.17578,2e-5 -0.32552,0.0684 -0.44922,0.20508 -0.1237,0.13022 -0.19206,0.29298 -0.20507,0.48828 -0.013,0.18882 -0.0195,0.59572 -0.0195,1.22071 l 0,8.98437 -3.82812,0 0,-12.95898 3.89648,0"
           style=""
           id="path3004" />
      </g>
    </g>
  </g>
</svg>
