<?xml version="1.0" encoding="UTF-8" standalone="no"?>
<!-- Created with Inkscape (http://www.inkscape.org/) -->

<svg
   xmlns:dc="http://purl.org/dc/elements/1.1/"
   xmlns:cc="http://creativecommons.org/ns#"
   xmlns:rdf="http://www.w3.org/1999/02/22-rdf-syntax-ns#"
   xmlns:svg="http://www.w3.org/2000/svg"
   xmlns="http://www.w3.org/2000/svg"
   xmlns:sodipodi="http://sodipodi.sourceforge.net/DTD/sodipodi-0.dtd"
   xmlns:inkscape="http://www.inkscape.org/namespaces/inkscape"
   id="svg3039"
   version="1.1"
   inkscape:version="0.48.2 r9819"
   width="677.54492"
   height="677.39996"
   sodipodi:docname="logounipg.svg">
  <metadata
     id="metadata3045">
    <rdf:RDF>
      <cc:Work
         rdf:about="">
        <dc:format>image/svg+xml</dc:format>
        <dc:type
           rdf:resource="http://purl.org/dc/dcmitype/StillImage" />
        <dc:title></dc:title>
      </cc:Work>
    </rdf:RDF>
  </metadata>
  <defs
     id="defs3043" />
  <sodipodi:namedview
     pagecolor="#ffffff"
     bordercolor="#666666"
     borderopacity="1"
     objecttolerance="10"
     gridtolerance="10"
     guidetolerance="10"
     inkscape:pageopacity="0"
     inkscape:pageshadow="2"
     inkscape:window-width="1366"
     inkscape:window-height="744"
     id="namedview3041"
     showgrid="false"
     inkscape:zoom="0.37019608"
     inkscape:cx="421.57426"
     inkscape:cy="359.88628"
     inkscape:window-x="0"
     inkscape:window-y="24"
     inkscape:window-maximized="1"
     inkscape:current-layer="svg3039"
     fit-margin-top="1"
     fit-margin-left="1"
     fit-margin-right="1"
     fit-margin-bottom="1" />
  <path
     inkscape:connector-curvature="0"
     id="path3073"
     d="m 304.57784,661.67409 -13.0414,-1.35532 -14.8104,-2.90687 c -17.4947,-3.43374 -33.3379,-7.83439 -50.4183,-14.00424 l -12.4125,-4.48365 -14.6393,-7.03518 c -24.05566,-11.56051 -45.47436,-25.0937 -66.28753,-41.88305 l -7.43057,-5.994 -15.90655,-15.90664 -15.906644,-15.90664 -5.99409,-7.43057 c -16.54195,-20.50642 -30.24091,-42.10626 -41.39786,-65.27405 -7.52056,-15.6166 -9.07997,-19.4299 -14.9981,-36.67362 l -4.24788,-12.37705 -3.3255,-13.55393 c -3.92922,-16.01469 -5.56623,-25.15152 -7.76268,-43.32645 l -1.62501,-13.4457 0,-21.60915 0,-21.60916 1.62501,-13.44569 c 2.19645,-18.17493 3.83346,-27.31176 7.76268,-43.32645 l 3.3255,-13.55393 4.24788,-12.37706 c 5.91813,-17.24372 7.47754,-21.05692 14.9981,-36.67361 11.7889,-24.4801 26.03826,-46.60797 43.87455,-68.13309 l 7.88773,-9.51897 14.704504,-14.3334 14.7045,-14.333383 11.02201,-8.53508 c 20.48788,-15.86509 37.24506,-26.22492 60.77495,-37.57312 l 14.5943,-7.03875 12.4667,-4.48547 c 24.0941,-8.66911 45.2057,-13.87133 70.9278,-17.47777 l 11.6858,-1.63844 28.8122,-0.042 28.8122,-0.042 10.0843,1.26607 c 61.649,7.73997 117.2617,31.22552 165.6702,69.9635 l 10.5645,8.45401 13.9994,13.941013 13.9995,13.94098 8.1644,10.08427 c 37.09226,45.81438 59.95406,96.18791 69.42586,152.97206 l 2.2783,13.65852 1.1925,15.22447 1.1925,15.22446 -0.5775,18.38978 -0.5774,18.38977 -1.4494,12.00509 c -16.7157,138.45811 -120.68856,251.23801 -257.26206,279.05319 -6.3899,1.30144 -16.8304,3.05006 -23.2012,3.8859 l -11.5831,1.51965 -25.4507,0.34306 -25.4508,0.34296 -13.0414,-1.35533 z m 56.2597,-10.10376 c 26.8535,-2.26183 49.2411,-6.5221 71.4342,-13.59348 38.7398,-12.34353 71.3417,-29.86423 103.1389,-55.42844 l 11.7459,-9.44329 11.6525,-11.58261 11.6525,-11.5827 8.516,-10.22353 c 15.334,-18.40869 28.22686,-38.02692 39.60116,-60.25851 l 5.6778,-11.09741 5.8661,-14.96064 5.8661,-14.96064 3.7347,-13.22999 c 2.054,-7.27652 4.8309,-18.63228 6.1707,-25.23507 l 2.4362,-12.00509 1.6785,-14.4061 1.6785,-14.40611 0,-20.64874 0,-20.64875 -1.6336,-13.9259 c -5.9918,-51.12687 -21.9623,-95.26285 -50.03736,-138.29858 l -7.8317,-12.00509 -8.5033,-10.56447 C 530.82704,77.399027 458.38724,36.955277 375.24364,26.693017 l -13.4457,-1.65959 -23.0498,-0.006 -23.0497,-0.006 -13.9259,1.69348 -13.9259,1.69349 -13.3637,2.82619 c -70.8871,14.9919 -133.0084,52.93423 -179.073454,109.374643 l -8.96982,10.99013 -9.27532,13.98506 -9.27522,13.98516 -7.81243,15.3618 c -9.15546,18.00283 -13.23268,27.65684 -19.11018,45.2488 -7.27172,21.76532 -12.49066,47.11862 -14.804,71.91613 l -0.98557,10.56447 0,15.84672 0,15.84671 0.98557,10.56448 c 5.96653,63.95839 28.8657,120.87661 68.77723,170.95241 l 8.420184,10.56448 13.97017,13.97027 13.97018,13.97017 10.56447,8.46061 10.56448,8.46051 14.19769,9.41112 14.1977,9.41113 15.09472,7.67816 15.0947,7.67807 13.4457,5.30385 c 16.8918,6.66311 32.83,11.3983 50.5359,15.01404 l 13.8114,2.82052 12.9655,1.48344 c 16.2443,1.85846 19.6239,2.0783 35.0548,2.27998 l 12.4853,0.16327 11.5249,-0.97078 z m -39.0517,-8.78799 -3.5166,-0.93649 -3.8535,-3.29832 -3.8533,-3.29833 -1.6287,-4.90355 -1.6286,-4.90345 0.5772,-4.21119 0.5772,-4.2112 1.8966,-3.71773 1.8966,-3.71774 2.899,-2.43924 2.8989,-2.43933 3.5241,-1.16306 3.524,-1.16305 4.904,0.62465 c 2.6971,0.34354 6.8486,0.93784 9.2256,1.32056 l 4.3219,0.69601 0.2502,4.32183 0.2502,4.32183 -1.0437,1.44061 -1.0435,1.44061 -0.411,-0.96041 c -0.226,-0.52822 -1.283,-2.39103 -2.3489,-4.13954 l -1.938,-3.17905 -3.4956,-1.46058 -3.4957,-1.46059 -3.41,0.63973 -3.41,0.63972 -3.0885,3.2748 -3.0884,3.2747 -1.118,5.38529 -1.1181,5.38529 0.6494,3.50337 0.6493,3.50337 1.8553,3.01904 1.8553,3.01913 3.2513,1.5428 3.2514,1.54289 3.1531,0 3.1532,0 4.1949,-2.03078 4.195,-2.03078 0.5843,0.58432 0.5842,0.58421 -1.6918,1.86953 -1.6919,1.86953 -4.3959,1.49775 -4.3957,1.49785 -2.4701,-0.0993 c -1.3585,-0.0548 -4.0525,-0.52064 -5.9867,-1.03571 z m 42.4131,-2.25436 -3.3614,-1.51408 -3.1603,-3.05669 -3.1602,-3.05659 -1.4968,-5.14893 -1.4968,-5.14893 0.6155,-4.1043 0.6154,-4.10421 2.7915,-4.40183 2.7915,-4.40174 4.1313,-2.15159 4.1313,-2.1516 8.9234,-0.13849 8.9234,-0.1384 0.383,0.61975 c 0.2106,0.34085 0.6806,2.86384 1.0445,5.60666 l 0.6615,4.98692 -1.4995,0 -1.4997,0 -0.6306,-1.98709 -0.6307,-1.98708 -3.0356,-1.85089 -3.0355,-1.851 -4.0483,0 -4.0484,0 -3.2663,2.86788 -3.2662,2.86777 -1.2559,4.4852 -1.2557,4.48519 1.1047,5.26639 1.1045,5.26639 1.5155,2.31276 1.5153,2.31276 3.0692,1.87135 3.0691,1.87135 3.8937,0 3.8937,0 4.6207,-2.93039 4.6208,-2.9304 0.4879,0.48799 0.488,0.48788 -0.5515,1.43706 -0.5514,1.43706 -3.8597,2.5542 -3.8598,2.5543 -6.0318,0.39472 -6.0318,0.39473 -3.3614,-1.51408 z m -78.5133,-1.08363 -6.0025,-1.42226 0,-0.7835 c 0,-0.43103 0.9876,-1.43072 2.1946,-2.22152 l 2.1946,-1.43792 2.241,-10.09628 2.241,-10.09627 -0.4184,-1.25497 -0.4182,-1.25487 -8.8489,11.71822 -8.8489,11.7183 -1.4111,0 c -0.776,0 -1.411,-0.10891 -1.411,-0.24202 0,-1.06471 -3.944,-20.5819 -4.8063,-23.78399 l -1.0959,-4.07011 -0.8044,0.84247 c -0.4425,0.46339 -1.7905,5.25467 -2.9957,10.64745 l -2.1912,9.80489 1.6249,1.79558 c 0.8938,0.98758 1.6249,2.13469 1.6249,2.5493 l 0,0.75373 -4.4445,-0.66652 c -7.1789,-1.07652 -9.3076,-2.58676 -5.171,-3.66847 l 1.9092,-0.49932 0.9464,-2.48927 c 0.5206,-1.36906 2.2893,-8.3614 3.9305,-15.53852 l 2.9841,-13.04924 -1.5201,-1.67956 -1.5199,-1.67956 0.5297,-0.52967 0.5295,-0.52956 4.0344,0.90268 c 2.2189,0.49653 4.3983,1.26351 4.8429,1.70434 0.4448,0.44083 2.0845,6.78816 3.644,14.1053 1.5594,7.31706 3.1758,13.64412 3.5919,14.06026 l 0.7565,0.75642 8.5651,-11.30648 8.565,-11.30668 1.6084,-0.30532 c 0.8846,-0.16797 3.3697,0.16894 5.5223,0.74855 l 3.914,1.05395 0,0.69562 c 0,0.38262 -0.9667,1.12233 -2.1482,1.64373 l -2.1481,0.94802 -3.113,12.96549 -3.113,12.9655 -0.021,3.06466 -0.021,3.06465 0.9604,0.59353 c 1.1177,0.69073 1.2991,2.44088 0.2401,2.31622 -0.3961,-0.0471 -3.4214,-0.72473 -6.7228,-1.50698 z m 124.3284,-7.49751 -4.6063,-1.2008 -2.9579,-2.77836 -2.9581,-2.77826 -1.7785,-3.84163 -1.7786,-3.84163 -0.021,-5.56997 -0.021,-5.57007 1.5529,-3.07359 c 2.0748,-4.10651 5.0311,-7.25444 8.5313,-9.0842 l 2.8813,-1.50631 6.2426,-0.7009 c 3.4335,-0.3856 7.1902,-1.00718 8.3483,-1.38135 l 2.1058,-0.68036 1.5846,5.45108 1.5847,5.45098 -0.5368,0.53687 -0.5369,0.53677 -3.4112,-2.99512 -3.4113,-2.99522 -2.3897,-0.59978 -2.3897,-0.59977 -3.2818,0.61562 -3.2818,0.61572 -2.8265,3.21938 -2.8267,3.21928 -0.6634,3.53593 -0.6633,3.53593 1.0981,5.28925 1.098,5.28925 4.0748,4.25258 4.0747,4.25268 4.5342,0 4.5341,0 2.5934,-1.34937 c 1.4264,-0.7422 3.6412,-2.47084 4.9218,-3.84163 1.2806,-1.37078 2.6852,-2.49225 3.1213,-2.49225 l 0.793,0 0,1.28051 0,1.28061 -3.4891,3.48915 -3.4893,3.48916 -2.9935,0.90365 c -1.6465,0.4971 -4.2901,1.11369 -5.8748,1.3704 l -2.8812,0.46666 -4.6063,-1.20079 z m -182.6893,-10.17013 -0.6613,-2.0837 1.4322,-1.43225 1.4322,-1.43226 2.0838,0.66143 2.0837,0.66134 -0.2959,2.55862 -0.296,2.55872 -2.5587,0.2959 -2.5587,0.29599 -0.6613,-2.08379 z m 222.908,-19.68642 -14.3287,-12.91613 -1.2212,0 c -0.6716,0 -1.4922,-0.43842 -1.8234,-0.97433 l -0.6021,-0.97433 5.1074,-2.37768 c 2.8091,-1.30779 5.5877,-2.38191 6.1747,-2.38709 l 1.0674,-0.01 -0.4255,2.22546 -0.4254,2.22555 8.6083,7.85872 8.6082,7.85882 1.2048,0 1.2047,0 -0.6876,-11.16646 c -0.3782,-6.14161 -0.9154,-11.75999 -1.1937,-12.48529 l -0.506,-1.31864 -1.3379,0 -1.3378,0 0,-1.34668 0,-1.34659 3.0245,-1.05443 c 1.6635,-0.57989 3.5003,-1.05145 4.0817,-1.048 l 1.0572,0.01 0.2575,21.12261 0.2575,21.12223 -1.2179,-0.049 -1.2179,-0.049 -14.3288,-12.91613 z m -256.1376,5.0915 -9.9089,-5.04214 -0.3287,-1.13116 -0.3289,-1.13127 2.5879,-0.30934 2.5879,-0.30945 7.2242,-13.81372 7.2242,-13.81372 -1.055,-1.68936 -1.0549,-1.68935 0.5589,-0.55906 0.5591,-0.55895 8.4075,4.34219 8.4075,4.34229 3.5772,3.47417 3.5772,3.47418 1.3257,3.1727 1.3255,3.1727 -0.021,4.11256 -0.021,4.11256 -1.7785,3.84163 -1.7786,3.84163 -2.7622,2.58003 c -1.5193,1.419 -3.9789,3.03969 -5.4659,3.60153 l -2.7037,1.02149 -5.1231,0 -5.1232,0 -9.909,-5.04214 z m 19.8385,-1.13731 2.3663,-1.55048 2.4378,-3.68364 2.4377,-3.68364 0.5586,-3.44239 0.5586,-3.44239 -0.6505,-3.46803 -0.6507,-3.46803 -3.904,-3.7887 -3.9039,-3.78871 -2.1394,0 -2.1394,0 -6.8687,12.95444 c -3.7777,7.12497 -6.8687,13.59245 -6.8687,14.3723 l 0,1.41785 2.1048,1.12656 c 1.1577,0.61955 3.2106,1.48334 4.5619,1.91956 l 2.4572,0.7932 3.6382,-0.35881 3.638,-0.35871 2.3662,-1.55038 z m 278.9599,-6.79911 c 0,-0.27122 0.5087,-1.30778 1.1305,-2.30344 l 1.1306,-1.81027 -8.4544,-13.11118 -8.4544,-13.11119 -2.7449,-0.54897 -2.7448,-0.54897 0.5282,-0.85457 c 0.5829,-0.94321 10.6828,-7.55523 11.5407,-7.55523 l 0.5378,0 -0.6385,2.90725 -0.6386,2.90725 7.8812,12.21916 c 4.3346,6.72054 8.0231,12.37733 8.1967,12.57057 0.1736,0.19333 1.7422,0.65586 3.4857,1.02802 l 3.1701,0.67651 -6.1515,4.01412 c -5.787,3.77641 -7.7744,4.6765 -7.7744,3.52094 z m -176.7098,-4.36985 C 266.09834,590.41184 217.01654,570.61958 177.793,539.06935 146.5961,513.97546 120.51693,480.2428 104.25311,443.9474 l -5.041084,-11.25011 -4.26334,-12.76007 -4.26325,-12.76015 -2.92204,-13.4457 c -1.60714,-7.39513 -3.48791,-17.98362 -4.17969,-23.52997 l -1.25765,-10.08427 0,-21.60915 0,-21.60916 1.25765,-10.08427 c 0.69178,-5.54635 2.56938,-16.11985 4.17249,-23.49674 l 2.91474,-13.41246 4.15299,-12.51852 c 9.795004,-29.52588 24.000954,-55.55521 43.911724,-80.45914 l 7.87707,-9.85233 10.59357,-10.56448 10.59358,-10.56447 10.08225,-8.09691 c 33.44842,-26.86209 71.98612,-44.495113 114.31852,-52.306583 l 12.9333,-2.38652 11.5249,-1.0088 c 21.7896,-1.9073 42.6196,-0.97607 65.7878,2.94113 l 12.0051,2.02977 11.6594,3.18759 c 6.4126,1.75317 15.9206,4.74911 21.1289,6.65765 l 9.4696,3.470063 15.3665,7.55416 15.3665,7.55418 10.4544,6.84789 c 5.7498,3.76633 14.1774,9.74294 18.7279,13.28137 l 8.2737,6.43338 11.9022,11.52488 11.9023,11.52488 8.5384,10.4257 8.5384,10.4256 7.1601,10.84309 c 19.8008,29.98611 32.4838,62.27729 38.853,98.92094 l 2.0032,11.52489 1.0199,15.60661 1.0198,15.60661 -1.0198,15.60661 -1.0199,15.60661 -1.9868,11.52488 c -5.6948,33.03368 -16.3466,61.78922 -33.4415,90.27824 l -6.3392,10.56448 -8.5618,11.37506 -8.5618,11.37506 -11.6419,12.05185 -11.6418,12.05186 -9.8827,8.13465 -9.8826,8.13464 -11.7265,7.8206 -11.7266,7.82069 -13.4457,6.84933 -13.4456,6.84943 -11.6051,4.38109 c -18.9968,7.17164 -38.9057,12.12091 -60.4255,15.02153 l -7.6832,1.0356 -17.7675,0.39175 -17.7676,0.39185 -10.0791,-0.89827 z m 18.7228,-256.36754 0,-249.225553 -11.5249,0.12465 -11.5249,0.12466 -12.4853,2.08933 c -43.9033,7.34694 -82.2741,24.367653 -116.6894,51.761823 l -9.12386,7.2624 -11.13496,11.09626 -11.13505,11.09625 -7.23724,9.12386 c -30.23351,38.11452 -48.602834,82.53525 -53.616254,129.65493 l -1.07297,10.08427 0,16.80712 0,16.80712 1.11955,10.56447 1.11945,10.56448 2.38767,11.52488 c 8.387044,40.4822 24.519374,74.97512 50.084064,107.08536 l 7.26394,9.12387 11.10682,11.10681 11.10681,11.10682 9.12387,7.2407 c 17.64496,14.00312 35.28916,24.64903 56.18376,33.89938 l 11.5249,5.10226 12.4853,3.99597 12.4853,3.99596 14.0939,2.80948 c 7.7516,1.5452 17.4757,3.20353 21.6091,3.68527 l 7.5153,0.8757 8.1635,-0.13148 8.1634,-0.13148 0,-249.22557 z m -84.996,190.46385 c -1.8488,-0.19237 -10.0603,-1.61541 -18.2477,-3.16224 -8.1875,-1.54683 -16.8312,-3.08002 -19.2082,-3.40694 l -4.3218,-0.5945 -9.3536,1.50938 c -5.1445,0.83017 -11.275,1.50937 -13.6233,1.50937 l -4.26967,0 -2.56303,-0.97442 -2.56304,-0.97453 0.45341,-3.58741 c 0.24941,-1.97315 1.36531,-7.47715 2.47977,-12.23116 l 2.02636,-8.64366 0.0211,-17.174 0.0211,-17.1739 -2.04576,-3.31004 -2.04567,-3.31004 0.65634,-6.40745 c 0.36111,-3.52402 0.91508,-8.29446 1.23124,-10.60097 l 0.57471,-4.19352 -2.14651,1.14874 -2.1466,1.14884 -1.87136,-1.69358 c -1.02927,-0.93141 -3.18845,-3.99549 -4.79819,-6.809 l -2.92684,-5.11561 -1.00574,0.62167 -1.00583,0.62168 0.51055,5.63067 0.51055,5.63067 -7.59221,0 -7.59211,0 0,-2.94201 0,-2.94211 -3.12132,0.30099 -3.12132,0.30089 0,2.40102 0,2.40102 -14.36807,0.26536 c -7.90242,0.14588 -14.94048,0.0461 -15.64013,-0.22282 l -1.27196,-0.48817 1.58832,-2.42416 1.58841,-2.42417 -0.39876,-9.118 -0.39886,-9.11801 2.62883,0 2.62883,0 0.35487,0.72031 c 0.19506,0.39616 0.11256,4.53427 -0.18344,9.1958 l -0.53821,8.47559 0.76803,1.36858 0.76795,1.36867 3.72426,0 3.72417,0 1.88864,-2.40102 c 1.03878,-1.32055 2.36664,-2.40101 2.95095,-2.40101 l 1.0623,0 0,2.40101 0,2.40102 0.93822,0 c 1.40201,0 3.44124,-3.6774 5.32565,-9.60407 0.92382,-2.90523 2.28039,-6.47074 3.01472,-7.92335 l 1.33516,-2.64112 2.33782,0 2.33782,0 0.99047,3.60152 c 0.54474,1.98084 1.65363,6.01907 2.46411,8.97385 0.81049,2.95479 2.06411,6.17993 2.78576,7.16685 l 1.31211,1.79442 1.37684,-1.14259 1.37684,-1.1427 -0.22743,-7.74405 -0.22752,-7.74414 -1.12809,-1.35926 -1.1281,-1.35936 0.61956,-1.00248 0.61956,-1.00247 2.27578,0 2.27569,0 1.48546,1.48546 c 0.81692,0.81692 2.14564,2.86979 2.95258,4.56193 0.80693,1.69205 2.57158,4.37303 3.92134,5.9577 l 2.45412,2.88122 -0.40788,-6.96295 -0.40789,-6.96295 3.07561,0 3.07561,0 -0.3106,10.32437 -0.3105,10.32438 0.8393,-2.54383 c 1.28503,-3.89503 2.97582,-23.18989 3.92394,-44.77878 l 0.85508,-19.47091 -0.56667,-11.99404 -0.56674,-11.99404 -6.08763,-10.31275 c -3.34817,-5.67207 -6.09148,-10.65783 -6.09609,-11.07954 -0.01,-0.42162 -0.88962,-2.58253 -1.96643,-4.80204 l -1.95789,-4.03534 -2.31612,-9.12386 -2.31611,-9.12387 -0.64847,-6.72284 -0.64847,-6.72285 -2.04048,-3.36143 -2.04048,-3.36142 0,-6.72285 0,-6.72285 4.50738,-9.12386 c 2.47901,-5.01813 5.20378,-11.06869 6.05489,-13.4457 0.85111,-2.377 2.35607,-6.56457 3.34423,-9.30586 0.98816,-2.74119 2.758,-6.28413 3.93287,-7.87322 l 2.13604,-2.88919 -0.60093,-6.43579 -0.60102,-6.43568 1.49699,-3.15455 1.49689,-3.15456 5.44324,-5.19301 c 2.9937,-2.85616 6.8722,-6.99061 8.6187,-9.18773 l 3.1757,-3.99482 1.9965,0 1.9966,0 2.2711,2.45048 c 2.7421,2.95882 2.7699,3.4056 0.4494,7.2212 l -1.8215,2.99523 0.511,5.91178 c 0.281,3.25146 0.5898,6.01311 0.6862,6.137 0.096,0.12389 3.2732,-1.32008 7.0596,-3.20882 l 6.8842,-3.43422 1.0386,-3.99414 c 1.9985,-7.68652 2.6592,-10.75108 3.2527,-15.08847 l 0.5983,-4.37139 -2.0235,-4.57432 -2.0234,-4.57432 1.0089,-2.89419 1.0089,-2.89409 -1.9525,-10.11769 -1.9526,-10.1177 2.6181,-3.77785 c 1.4399,-2.07775 6.4,-7.37679 11.0224,-11.77565 l 8.4045,-7.99798 2.9393,-1.02465 2.9395,-1.02466 5.7133,4.29474 5.7133,4.29485 3.3977,4.72933 c 1.8688,2.60117 4.6924,7.02326 6.2746,9.82698 l 2.877,5.09774 -1.5303,6.71017 c -1.4251,6.24947 -2.3902,15.57098 -2.4369,23.5366 l -0.02,3.38063 3.0325,9.82679 3.0324,9.82678 4.0399,2.05422 c 5.2345,2.66157 14.8668,9.09073 18.1006,12.08143 l 2.5358,2.34513 0.8196,-1.27927 0.8197,-1.27926 0.059,-11.20065 0.059,-11.20065 1.0617,-1.28464 1.0618,-1.28464 2.5819,-16.80712 2.5818,-16.80712 1.4894,-3.19325 1.4894,-3.19326 2.2615,-1.48181 2.2617,-1.48181 4.0112,0.0557 4.0113,0.0557 2.4674,1.80671 2.4673,1.80682 1.6792,3.29313 1.6793,3.29314 0,4.44467 0,4.44467 -1.4628,3.50087 c -0.8046,1.92543 -2.3172,4.35526 -3.3614,5.39951 l -1.8995,1.89872 -2.8425,0 -2.8423,0 -2.38,-2.56669 -2.3799,-2.56678 -0.455,2.32668 c -0.2502,1.27965 -0.9244,5.70635 -1.4982,9.83716 l -1.0433,7.51057 0.9873,1.84475 0.9873,1.84475 -1.5267,2.9521 -1.5265,2.9521 -1.2836,8.82153 c -0.7059,4.85188 -1.5748,11.29803 -1.9307,14.32495 l -0.6472,5.50332 3.38,9.38298 c 3.1197,8.66047 6.2646,19.03901 7.718,25.4697 l 0.597,2.64112 0.9226,0 0.9225,0 1.8994,-3.72311 1.8995,-3.72321 1.6204,-0.62186 1.6204,-0.62177 1.782,1.61262 1.7819,1.61262 0,1.32555 c 0,0.72905 0.686,2.37259 1.5245,3.65224 l 1.5245,2.32668 0.1445,8.44409 c 0.08,4.64424 -0.2142,12.33373 -0.6525,17.08775 l -0.7971,8.64366 -1.3458,3.22341 -1.3458,3.22332 0.5566,0.90057 0.5566,0.90067 -1.5233,2.32496 c -0.838,1.27878 -1.5234,3.03853 -1.5234,3.91058 0,2.95613 -3.4144,12.74518 -7.5467,21.63691 l -2.0574,4.42709 0,2.96881 c 0,1.63288 -0.4751,5.25909 -1.0558,8.05829 l -1.0557,5.08939 -2.3051,4.01172 -2.3052,4.01162 -2.761,2.23102 c -1.5185,1.22702 -4.7144,4.82403 -7.1017,7.99337 l -4.3406,5.76244 -2.9832,2.18973 -2.9831,2.18963 0,15.818 0,15.8179 4.3219,0 4.3218,0 8e-4,2.64112 7e-4,2.64112 1.68,4.42325 1.6799,4.42325 0.9604,0 0.9604,0 1.5611,-4.11237 1.561,-4.11246 -0.4544,-2.3772 -0.4545,-2.3773 2.0147,-0.63943 2.0148,-0.63944 1.9208,0.60966 1.9208,0.60967 0,0.92305 c 0,0.50767 -1.2364,3.3958 -2.7476,6.41801 -1.5111,3.02221 -3.4781,7.72619 -4.3711,10.45326 l -1.6237,4.95839 -1.2382,0.47511 -1.2383,0.47521 -1.1,-0.67987 -1.1001,-0.67987 -3.8778,-9.5305 c -2.1328,-5.24171 -4.3177,-9.97027 -4.8554,-10.50801 l -0.9776,-0.97759 -0.9057,1.43263 -0.9057,1.43255 -0.014,16.63021 -0.014,16.63012 -1.0509,2.09781 c -0.578,1.15374 -2.1599,3.03364 -3.5156,4.17749 l -2.4646,2.07985 -0.4434,7.65781 -0.4432,7.6577 1.1134,12.832 c 0.6124,7.05765 1.7596,16.33258 2.5493,20.6111 l 1.4359,7.7791 -0.9486,2.49504 -0.9487,2.49504 -2.2218,1.45588 -2.2219,1.45579 -7.0014,1.2006 -7.0015,1.20061 -0.7547,-1.22116 -0.7548,-1.22116 1.7149,-10.74906 c 1.7253,-10.81418 4.4305,-28.48634 7.085,-46.28402 0.7879,-5.28224 1.9027,-13.49372 2.4775,-18.24773 0.5748,-4.75402 2.342,-17.71951 3.9269,-28.81221 3.9671,-27.76277 6.3198,-45.99119 7.1195,-55.15856 l 0.6759,-7.74809 -0.9298,0 -0.9298,0 -1.1183,7.92336 c -0.6151,4.35785 -1.5628,11.813 -2.1062,16.56702 -1.1159,9.76369 -6.0071,45.26042 -8.1387,59.06502 -0.7749,5.01812 -1.8636,13.01351 -2.4195,17.76752 -1.0525,9.00142 -3.0693,22.59636 -7.3377,49.46096 l -2.5177,15.84671 -0.9385,1.20051 c -0.5161,0.66028 -1.4257,1.13136 -2.0214,1.04684 -0.5956,-0.0845 -2.5956,-0.31107 -4.4443,-0.50344 z m -55.5404,-25.07325 c 2.0886,-2.79478 5.0668,-7.76498 6.6183,-11.04468 l 2.8211,-5.96307 8e-4,-4.90009 7e-4,-4.90009 -2.161,-3.26337 -2.1609,-3.26336 -5.2822,-2.61029 c -2.9053,-1.43562 -5.8225,-2.62412 -6.4828,-2.64112 l -1.2005,-0.0307 0,16.65355 0,16.65345 -1.9208,7.51029 c -1.0564,4.13071 -1.9208,8.17719 -1.9208,8.99219 l 0,1.48191 3.9455,-3.79639 c 2.1699,-2.08802 5.6541,-6.08322 7.7426,-8.8781 z m 83.9161,-46.73666 2.3573,-2.35741 -0.029,-19.49184 -0.029,-19.49194 -0.8273,1.44061 c -0.455,0.79233 -1.3327,5.54635 -1.9503,10.56447 -0.6175,5.01813 -1.7448,13.06711 -2.5048,17.88652 -0.7601,4.81942 -1.382,9.89757 -1.382,11.28479 l 0,2.52212 1.004,0 c 0.5523,0 2.0649,-1.06077 3.3615,-2.35732 z m -36.0022,-27.45841 7.6265,-5.80566 0,-2.1177 c 0.01,-3.33377 2.6439,-29.33832 4.7931,-47.22253 l 1.9578,-16.29244 3.2825,-11.07906 c 1.8052,-6.09359 5.6373,-16.91363 8.5156,-24.04465 l 5.2333,-12.96549 -0.6544,-0.71887 -0.6544,-0.71886 -8.3962,4.32039 -8.3962,4.32039 -2.3618,0 -2.3618,0 0.035,-1.20051 0.035,-1.20051 6.3102,-3.84163 6.3101,-3.84162 6.9159,-6.72285 6.9158,-6.72285 2.9925,-7.20305 c 1.646,-3.96168 3.8688,-10.5517 4.9399,-14.64448 l 1.9471,-7.44142 2.0278,-17.8702 2.0277,-17.87029 -0.5135,-0.51343 -0.5134,-0.51353 -1.8202,1.33478 c -1.001,0.73413 -5.0819,3.5923 -9.0684,6.35136 l -7.2483,5.01659 -6.0838,2.38786 c -3.3461,1.31326 -8.6621,3.16156 -11.8134,4.10727 l -5.7296,1.71942 -0.6577,3.2479 -0.6578,3.24781 -0.5867,36.12887 c -0.3228,19.87082 -0.7943,44.77244 -1.0479,55.33692 -0.2535,10.56447 -0.7126,31.52535 -1.0201,46.57973 -0.3076,15.05437 -0.7725,28.12791 -1.0332,29.0523 l -0.474,1.68072 -7.5385,0 -7.5385,0 -0.4411,-1.20051 c -0.2426,-0.66028 -0.2759,-7.03498 -0.074,-14.166 1.2217,-43.16443 2.2789,-99.8171 2.369,-126.94591 l 0.1042,-31.38542 -0.5475,-0.88588 c -0.3011,-0.48721 -2.6094,-1.67322 -5.1296,-2.63574 -2.5201,-0.96242 -6.9522,-3.1777 -9.8491,-4.92276 l -5.2672,-3.17289 -0.9867,0.98797 -0.9867,0.98787 0,13.15642 0,13.15633 2.3093,6.72285 c 1.2701,3.69756 4.6188,11.59095 7.4417,17.54087 2.8227,5.95001 5.1323,11.24425 5.1323,11.76498 0,2.38152 -1.8567,0.35074 -6.3031,-6.89399 l -4.8123,-7.84096 -1.5992,-1.00881 -1.5994,-1.00881 -0.698,0.69793 -0.698,0.69802 1.6782,5.32373 c 0.923,2.92809 4.0255,10.01291 6.8945,15.74405 2.8682,5.73122 5.2156,10.67732 5.2156,10.99147 0,0.31424 -0.5472,0.57125 -1.216,0.57125 l -1.2158,0 -2.9799,-4.56193 c -3.7209,-5.69656 -10.3108,-18.35251 -15.1275,-29.05231 l -3.6748,-8.16346 -0.4555,1.19206 -0.4555,1.19205 2.894,9.37242 c 5.9925,19.40714 12.955,49.70346 14.5138,63.1552 1.1433,9.86694 2.9018,45.50725 2.9098,58.97436 l 0.01,9.0332 2.4812,3.25309 c 1.3646,1.78915 4.6448,4.96329 7.2893,7.05362 l 4.8076,3.80052 2.3715,0 2.3715,0 7.6266,-5.80556 z m -94.32666,-3.25982 0.33019,-1.70309 -0.96146,-0.96156 -0.96156,-0.96146 -1.09381,2.04375 -1.09371,2.04374 0.61255,0.99133 0.61264,0.99124 1.11253,-0.37043 1.11244,-0.37033 0.33019,-1.70319 z m 92.14786,-14.70469 0.2789,-7.92336 -0.8872,0 -0.8872,0 -0.5023,1.92082 -0.5023,1.92081 -1.944,0 -1.9439,0 -0.3069,-2.16092 -0.3069,-2.16091 -0.9604,0 -0.9604,0 -0.2852,7.11316 c -0.1569,3.91231 -0.053,7.71888 0.2313,8.45926 l 0.5165,1.34601 4.0905,-0.29571 4.0905,-0.2958 0.279,-7.92336 z m -6.5216,-14.54344 0,-1.81805 1.5273,-0.58604 1.5272,-0.58614 0.8738,0.54004 0.8737,0.54004 0,1.86405 0,1.86415 0.8958,0 0.8957,0 0.4948,-1.68071 c 0.2722,-0.92439 0.7648,-24.15424 1.0948,-51.62187 l 0.6,-49.94116 0.8899,-10.08427 0.8899,-10.08427 -0.05,-15.36651 -0.05,-15.36651 -1.5074,2.16092 -1.5074,2.16091 -1.8935,0 -1.8937,0 -0.5023,-1.92081 -0.5023,-1.92082 -0.8484,0 -0.8483,0 0,-2.08523 0,-2.08533 1.5895,-1.7563 1.5894,-1.75639 1.3255,0 c 0.7291,0 2.3908,0.69802 3.6928,1.55106 l 2.3673,1.55105 0,1.36032 0,1.36032 1.3077,0.50182 1.3078,0.50191 6.364,-1.47596 6.364,-1.47595 7.5854,-3.81387 7.5854,-3.81378 6.5895,-4.98758 c 3.6242,-2.74321 7.1281,-5.68033 7.7863,-6.52702 l 1.1969,-1.53944 -0.2339,-2.30411 -0.2338,-2.30421 -1.5257,-0.95445 -1.5256,-0.95455 -5.2721,4.29417 c -6.7263,5.47864 -13.7004,9.45722 -23.3507,13.32132 l -7.664,3.0687 -5.8435,0.72472 -5.8434,0.72472 -5.0977,-0.80588 -5.0977,-0.80587 -4.9249,-2.57485 c -7.1592,-3.74309 -10.3302,-6.40294 -16.5839,-13.91044 l -5.5814,-6.70047 -1.3622,0.26872 -1.3624,0.26882 -1.9102,2.56112 -1.9103,2.56111 2.0952,3.39005 2.0952,3.39014 7.2774,6.79622 7.2774,6.79632 6.842,3.22869 c 3.7631,1.7757 8.096,3.51922 9.6287,3.87438 l 2.7866,0.64568 -0.6622,47.2452 c -0.3642,25.98486 -1.0108,60.21069 -1.4371,76.0574 -0.4262,15.84672 -0.6004,29.13635 -0.3871,29.53251 0.2134,0.39617 0.7946,0.72031 1.2916,0.72031 l 0.9038,0 0,-1.81805 z m -43.1725,-43.939 c -0.5666,-19.4685 -1.4784,-43.60881 -2.0263,-53.64506 l -0.9963,-18.24773 -1.4276,-1.44061 -1.4275,-1.44061 -0.9889,1.44061 -0.98869,1.44061 0.59478,13.9259 c 0.32711,7.65924 0.80151,19.1121 1.05411,25.45078 l 0.4595,11.52488 0.9405,4.80204 0.9405,4.80203 0.8275,21.12895 0.8276,21.12895 1.1094,2.77433 1.1093,2.77433 0.5111,-0.51104 0.5111,-0.51112 -1.0301,-35.39724 z m 98.325,17.22912 -0.8896,-4.60611 -0.9604,0 -0.9604,0 -0.685,5.28224 -0.6852,5.28224 0.4824,1.37655 0.4824,1.37655 2.0527,-2.05268 2.0526,-2.05258 -0.8895,-4.60621 z m 4.3927,-12.40269 c 0,-0.26411 -0.4322,-0.21311 -0.9604,0.11333 -0.5282,0.32644 -0.9604,0.80962 -0.9604,1.07373 0,0.26411 0.4322,0.21312 0.9604,-0.11333 0.5282,-0.32644 0.9604,-0.80962 0.9604,-1.07373 z m 0.9604,-7.42452 0,-0.96041 -2.401,2.25561 c -1.3206,1.24066 -2.401,2.68789 -2.401,3.21602 l 0,0.96041 2.401,-2.25561 c 1.3205,-1.24056 2.401,-2.6878 2.401,-3.21602 z m -1.9608,-4.41547 -0.04,-1.49238 -3.3214,3.76153 c -1.8268,2.06891 -3.3215,4.20649 -3.3215,4.75037 l 0,0.98883 3.3614,-3.25808 3.3614,-3.25799 -0.04,-1.49238 z m -13.4057,4.27006 c 0,-0.26411 -0.2161,-0.4802 -0.4802,-0.4802 -0.2641,0 -0.4802,0.21609 -0.4802,0.4802 0,0.26412 0.2161,0.48021 0.4802,0.48021 0.2641,0 0.4802,-0.21609 0.4802,-0.48021 z m 7.6888,-19.26038 c 1.0547,-10.00753 3.0215,-28.56788 4.3707,-41.24525 1.3491,-12.67737 2.8565,-27.1555 3.3495,-32.17363 0.4931,-5.01812 2.264,-20.69071 3.9353,-34.828 l 3.0386,-25.70413 -0.6269,-0.62705 c -0.3449,-0.34479 -0.8068,-0.44688 -1.0264,-0.22685 -0.9961,0.99805 -5.0802,36.32374 -10.7057,92.59926 -0.8448,8.45158 -2.5814,23.73319 -3.8592,33.95921 -1.2777,10.22593 -2.3231,20.79281 -2.3231,23.48195 l 0,4.88924 0.9647,-0.96463 0.9648,-0.96473 1.9177,-18.19539 z m 22.5015,4.3979 2.4635,-0.93669 0,-0.98413 0,-0.98422 -1.2005,0.01 c -0.6603,0 -2.8212,0.45543 -4.802,1.00555 l -3.6016,1.00026 0,0.91517 0,0.91527 2.3385,0 c 1.2862,0 3.4471,-0.42143 4.8021,-0.93659 z m -17.705,-3.44191 0,-1.49727 -0.9604,0.59353 c -0.5283,0.32644 -0.9604,1.00026 -0.9604,1.49727 0,0.49711 0.4321,0.90374 0.9604,0.90374 l 0.9604,0 0,-1.49727 z m -113.87671,-9.58813 c -3.46044,-9.12665 -9.49967,-27.93986 -11.39398,-35.49433 l -0.48164,-1.92081 0.45705,8.4267 0.45716,8.42661 2.73908,7.90031 c 1.5064,4.34507 4.3953,11.14158 6.41964,15.10326 l 3.68067,7.20305 0.32778,-1.48133 0.32779,-1.48123 -2.53355,-6.68223 z m 134.19131,5.72768 c 1.4373,-0.74326 2.8824,-1.78674 3.2111,-2.31871 l 0.5979,-0.96723 -1.4613,0 c -0.8038,0 -3.8545,0.89539 -6.7795,1.98987 l -5.3184,1.98977 0,0.99834 0,0.99825 3.5684,-0.6694 c 1.9626,-0.36822 4.7444,-1.27763 6.1818,-2.02089 z m -19.6743,-2.96574 -0.6403,-0.6403 0,1.28051 0,1.28061 0.6403,-0.64031 0.6403,-0.6403 -0.6403,-0.64021 z m 19.4922,-3.66337 c 2.5862,-1.31048 4.9743,-2.82312 5.307,-3.36143 l 0.6049,-0.97865 -0.8891,0 c -0.4889,0 -3.1076,0.92199 -5.8191,2.04893 l -4.9301,2.04884 0,1.31258 c 0,1.74679 0.265,1.69723 5.7264,-1.07027 z m -15.5067,-1.14471 -0.304,-2.56698 -1.2005,-0.39425 -1.2005,-0.39415 0,2.32092 c 0,2.43406 0.6952,3.60153 2.1447,3.60153 l 0.8641,0 -0.3038,-2.56707 z m 3.5376,-5.59639 0,-3.68153 -1.2005,-0.4002 -1.2005,-0.4001 0,4.48183 0,4.48193 1.2005,-0.4002 1.2005,-0.40011 0,-3.68162 z m 17.5275,-2.08111 c 2.7697,-2.07495 4.07,-4.16153 2.5934,-4.16153 -2.2712,0 -10.0366,5.36675 -10.0366,6.93644 l 0,0.87627 2.1609,-0.65643 c 1.1885,-0.36102 3.5655,-1.70866 5.2823,-2.99475 z m -12.8378,-5.4941 c -0.062,-1.94386 -0.3932,-3.81502 -0.7363,-4.15808 l -0.6239,-0.62398 -0.8189,0.89645 -0.8188,0.89635 0.4647,3.64484 0.4649,3.64484 1.0903,-0.38311 1.0904,-0.38311 -0.1124,-3.5342 z m 12.8716,-1.24132 c 4.347,-2.6901 6.4553,-6.06978 3.7866,-6.06978 -1.5094,0 -8.3824,5.56969 -8.3824,6.79277 0,1.3415 1.689,1.07585 4.5958,-0.72299 z m -8.4374,-6.00889 0,-2.7069 -1.4406,-1.19561 -1.4406,-1.19561 0,2.92031 c 0,1.60618 0.2614,3.60143 0.5808,4.43391 l 0.5809,1.5136 0.8597,-0.5313 0.8598,-0.53139 0,-2.70701 z m 12.533,-4.4074 2.8335,-1.4652 0,-0.93582 0,-0.93572 -1.2005,0.01 c -0.6603,0 -2.4971,1.06759 -4.0817,2.36654 l -2.8813,2.36164 1.2483,0.0346 c 0.6865,0.0192 2.5233,-0.62484 4.0817,-1.43072 z m -10.5107,-8.42152 -0.9989,-0.99882 -0.5509,1.43552 -0.5509,1.43561 1.1953,2.80679 1.1953,2.8067 0.3545,-3.24339 0.3544,-3.24349 -0.9988,-0.99892 z m 12.7271,0.0884 1.0294,-1.63461 -0.6804,-0.68045 -0.6805,-0.68045 -1.9267,1.74362 c -1.0597,0.95906 -1.9267,2.14065 -1.9267,2.62566 l 0,0.88203 1.5778,-0.31059 1.5778,-0.3105 1.0293,-1.63461 z m -8.987,-4.12773 0,-2.40102 -0.9604,0 -0.9604,0 0,2.40102 0,2.40101 0.9604,0 0.9604,0 0,-2.40101 z m 10.1239,-2.46489 c 1.0336,-1.67255 -0.1437,-2.02665 -1.4609,-0.43958 l -1.2148,1.46386 1.0213,0 c 0.5617,0 1.3061,-0.4609 1.6544,-1.02428 z m -150.43959,-5.29578 4.89837,-5.35964 0,-1.3632 0,-1.36321 -1.44061,0 -1.44061,0 0,-1.01668 c 0,-0.55925 1.36713,-2.71795 3.03815,-4.79724 l 3.03805,-3.78044 0.0836,-4.08663 0.0836,-4.08653 -1.92081,-0.0979 c -1.05645,-0.0538 -2.32976,-0.16192 -2.82955,-0.2401 l -0.90874,-0.14224 2.9544,-3.12132 c 3.68441,-3.89253 5.10564,-6.61538 5.10564,-9.78097 l 0,-2.46422 -1.44063,0 -1.44061,0 0,-1.68974 0,-1.68983 1.92084,-1.19955 1.9208,-1.19955 0,-1.23796 0,-1.23797 -4.56194,0.0451 -4.56194,0.0451 0,3.84163 0,3.84163 -1.81267,0.01 -1.81267,0 -0.88665,2.39593 -0.88664,2.39592 0.24,5.28224 0.23991,5.28224 -2.34262,0 -2.34272,0 -3.60153,7.09414 -3.60152,7.09414 0,5.87135 0,5.87135 1.90314,3.12133 1.90314,3.12132 2.79891,0 2.79901,0 4.89837,-5.35965 z m 140.95599,-1.04309 -0.6403,-0.64021 0,1.28051 0,1.28051 0.6403,-0.64021 0.6403,-0.6403 -0.6403,-0.6403 z m 9.9242,0.16009 c 0,-0.26411 -0.2161,-0.4802 -0.4802,-0.4802 -0.2641,0 -0.4802,0.21609 -0.4802,0.4802 0,0.26412 0.2161,0.48021 0.4802,0.48021 0.2641,0 0.4802,-0.21609 0.4802,-0.48021 z m -72.5107,-45.58776 c 4.7784,-2.29739 5.5113,-2.93779 11.8868,-10.3868 l 5.164,-6.03347 4.2415,-2.48573 4.2416,-2.48572 -0.3406,-1.02168 c -0.1874,-0.56194 -2.8814,-2.42858 -5.9868,-4.14809 l -5.6461,-3.12642 -1.4884,-2.69922 -1.4883,-2.69932 -0.3135,2.64112 -0.3135,2.64112 -1.5412,0 -1.5414,0 -1.7563,-1.58948 -1.7564,-1.58947 0,-7.64637 0,-7.64638 2.0205,0.52832 2.0204,0.52832 -0.4725,-2.57725 c -0.26,-1.41747 -0.9688,-5.0285 -1.5751,-8.02458 l -1.1024,-5.44724 1.9556,-5.56412 1.9556,-5.56411 0,-6.17071 0,-6.17071 -2.1172,-4.23914 -2.1171,-4.23914 -4.5645,-4.26959 c -4.867,-4.55252 -5.2931,-4.74114 -7.5282,-3.33194 l -1.4406,0.90836 -0.5442,15.16376 -0.5443,15.16377 0.5265,0.96041 0.5265,0.9604 -0.3236,9.12387 -0.3235,9.12386 -1.0671,0.66537 -1.067,0.66537 -1.192,-0.98921 -1.192,-0.98922 0.5403,-2.70076 0.5401,-2.70076 -1.8947,-0.60141 -1.8947,-0.60131 -2.6109,0.99267 -2.611,0.99268 0.6769,4.07395 c 0.9414,5.66592 2.8388,9.11532 7.8695,14.30632 l 4.3321,4.47002 -0.7144,1.15575 -0.7142,1.15585 -3.721,-0.59507 -3.7211,-0.59497 0,1.96298 c 0,1.07969 0.6122,3.42817 1.3604,5.21894 l 1.3604,3.25588 2.4927,1.63327 2.4927,1.63327 5.0307,-0.51814 c 2.7668,-0.28505 6.003,-0.82067 7.1915,-1.19043 l 2.1609,-0.67219 0,0.89011 c 0,0.48952 -1.345,2.26589 -2.9891,3.94737 l -2.989,3.05726 -3.7023,1.10927 -3.7024,1.10927 0.574,0.92862 0.5739,0.92852 4.2143,-0.47492 4.2141,-0.47502 3.9316,-2.60174 3.9314,-2.60175 0.9957,0.99585 0.9959,0.99575 -1.7105,2.69048 c -2.6516,4.17057 -5.5167,7.0588 -8.5858,8.6549 l -2.8078,1.46021 -4.4011,0 -4.401,0 -3.4566,-1.44426 -3.4566,-1.44426 -3.4686,-3.46861 c -4.1524,-4.15241 -5.0154,-4.37782 -3.1683,-0.82749 1.6517,3.17501 4.8516,6.18819 8.7595,8.24836 l 2.8812,1.51889 5.2822,0.0173 5.2823,0.0173 3.8416,-1.84705 z m -65.9802,-8.10382 c 3.2583,-1.69531 6.2209,-4.92506 8.3143,-9.06422 l 1.6238,-3.21055 -0.5279,-0.52784 -0.5277,-0.52784 -1.4162,1.17535 c -0.7789,0.64645 -2.738,3.5172 -4.3533,6.3795 l -2.9371,5.20416 -1.5351,0 -1.5351,0 0.7383,-1.68071 c 0.4062,-0.92439 0.9296,-3.29746 1.1633,-5.27341 l 0.4248,-3.59278 -1.9886,-3.37016 -1.98838,-3.37026 1.69638,0 1.6963,0 1.1524,1.15248 1.1525,1.15249 0,-0.73538 c 0,-0.40452 -0.4473,-1.57142 -0.9941,-2.5931 l -0.9942,-1.85771 -1.2262,0 -1.22619,0 -2.074,2.80525 -2.074,2.80525 0.40481,7.99932 c 0.22262,4.39963 0.42642,8.10737 0.45274,8.23943 0.15049,0.75373 4.36304,0.0432 6.57844,-1.10927 z m 5.9548,-18.98359 c 0,-1.31432 -2.8276,-4.63762 -3.9458,-4.63762 l -0.7669,0 1.6361,2.87517 c 1.6806,2.95345 3.0766,3.75318 3.0766,1.76245 z m 1.2052,-8.71934 c 0.2578,-1.18851 0.7749,-3.02529 1.1493,-4.08173 l 0.6807,-1.92082 -2.4732,2.88122 c -1.3603,1.58467 -2.4755,3.42145 -2.478,4.08173 l 0,1.20051 1.3286,0 1.3287,0 0.4686,-2.16091 z m 107.961,-2.32102 -0.6403,-0.64021 -0.6402,0.64021 -0.6403,0.6403 1.2805,0 1.2806,0 -0.6403,-0.6403 z m 2.098,-11.12468 c 0.5944,-3.82962 1.5879,-11.0636 2.2075,-16.07558 l 1.1267,-9.11263 2.6524,-2.65235 2.6523,-2.65236 1.461,0 1.4609,0 2.6947,2.31842 2.6946,2.31833 -0.09,4.34507 -0.09,4.34498 -1.6228,2.4767 -1.6228,2.47679 -1.9738,-1.05635 -1.9738,-1.05635 0.334,1.76033 0.3342,1.76042 2.6576,0.30628 2.6576,0.30627 1.989,-4.49624 1.9889,-4.49624 -0.65,-4.33413 -0.65,-4.33422 -2.2804,-2.28039 -2.2804,-2.28048 -3.8167,0 -3.8166,0 -1.4464,1.44628 c -0.7954,0.7955 -1.6694,2.2001 -1.9422,3.12132 -1.0981,3.70967 -4.3804,22.34213 -4.9984,28.37493 l -0.6592,6.43415 0.9613,0 0.9611,0 1.081,-6.96295 z m -69.565,-13.78856 c 0.8355,-0.32059 1.5191,-0.96886 1.5191,-1.44061 l 0,-0.85764 -1.8641,0 -1.8641,0 -0.5109,0.82643 -0.5107,0.82652 0.6142,0.61409 c 0.7508,0.75084 0.7415,0.75075 2.6165,0.0317 z m 81.9531,-4.74931 1.2006,-0.36985 0,-1.87241 c 0,-1.02985 -0.2623,-2.55603 -0.5829,-3.39158 l -0.583,-1.51917 -2.2043,0 -2.2043,0 -1.0544,3.02451 c -0.5799,1.66352 -1.0544,3.6166 -1.0544,4.34017 l 0,1.31557 2.6411,-0.57874 c 1.4526,-0.31828 3.1814,-0.74508 3.8416,-0.9485 z m -87.311,-8.63876 1.1145,-2.44625 0,-3.19893 0,-3.19892 1.3159,-3.23868 1.3158,-3.23859 -0.4354,-1.20051 -0.4355,-1.20051 -1.3286,0 -1.3285,0 -3.3934,3.39341 -3.3935,3.3935 0,4.83315 0,4.83315 0.9942,1.85771 0.9942,1.85762 1.7329,0 1.7328,0 1.1146,-2.44615 z m 83.7322,288.53704 -2.3785,-0.94907 -2.1834,0.548 -2.1836,0.54801 0,-2.8209 c 0,-1.55154 0.2624,-3.50462 0.5829,-4.34018 l 0.583,-1.51917 1.3379,0 1.3378,0 0,1.38616 0,1.38615 2.1346,1.49507 2.1345,1.49506 2.1535,0 2.1535,0 1.0163,-1.89882 1.0162,-1.89872 -1.8413,-1.56422 c -1.0127,-0.86033 -3.2277,-2.826 -4.9221,-4.36802 l -3.0808,-2.80382 0.6531,-2.61701 c 0.3592,-1.43926 1.3391,-3.37813 2.1776,-4.30858 l 1.5245,-1.69166 5.8438,0.25105 5.8437,0.25105 0.3004,2.11136 0.3005,2.11136 -1.1544,2.15707 -1.1544,2.15698 -2.1392,-2.6828 -2.1391,-2.6827 -1.8089,0.34834 -1.8089,0.34834 0,2.32677 0,2.32688 3.3614,0.86792 c 1.8488,0.47732 3.9016,1.31403 4.5619,1.85934 l 1.2005,0.99143 0,3.76768 0,3.76767 -2.3573,2.35742 -2.3573,2.35732 -3.165,-0.0605 c -1.7408,-0.0336 -4.2353,-0.48788 -5.5434,-1.00987 z m -21.8754,-31.94054 -2.8619,-3.25952 -0.6521,-3.476 -0.6521,-3.476 1.875,-4.23857 1.8749,-4.23856 2.2507,-1.4361 2.2507,-1.43609 5.2822,-0.2379 c 2.9053,-0.1308 7.5994,-0.16922 10.4313,-0.0855 l 5.149,0.15241 -0.5976,3.18567 -0.5976,3.18577 1.289,3.72311 1.2889,3.72321 1.0292,0.34306 1.0292,0.34306 1.4606,-4.61082 1.4606,-4.61082 -0.1667,-2.40102 -0.1667,-2.40101 3.2127,-0.30781 c 1.7671,-0.16932 3.8576,-0.0605 4.6457,0.24212 l 1.433,0.54983 -2.3745,2.82167 -2.3743,2.82178 -3.6339,9.18139 -3.6339,9.18139 -1.2539,0 -1.2538,0 -1.3342,-2.64112 c -0.7337,-1.45261 -2.509,-6.20663 -3.9451,-10.56447 l -2.611,-7.92336 -1.3618,0 -1.3617,0 0,1.47067 0,1.47077 -1.3663,0.52438 -1.3664,0.52429 -1.995,-1.99506 c -2.4288,-2.42867 -3.1326,-2.46728 -5.7339,-0.31434 l -2.0307,1.68072 -0.5968,4.48548 -0.5967,4.48548 2.4774,2.47747 2.4774,2.47746 1.529,0 1.5289,0 1.6361,-2.87517 1.636,-2.87516 1.2005,-0.01 1.2005,-0.01 -0.014,3.60152 c -0.01,1.98084 -0.3322,4.03371 -0.7203,4.56193 l -0.7055,0.96041 -5.4138,0.25057 -5.4136,0.25057 -2.862,-3.25962 z m -116.00638,-4.92477 -2.33599,-5.28224 -1.81536,0 -1.81537,0 -1.19128,1.43552 -1.19139,1.43552 0.48462,1.6858 c 0.26652,0.92718 0.80655,2.46979 1.20003,3.42789 l 0.7155,1.74217 -4.20802,-0.30156 -4.20812,-0.30147 0.44966,-1.44061 c 0.24721,-0.79234 0.60228,-4.97674 0.78898,-9.29866 l 0.33941,-7.85815 -1.12829,-2.10819 -1.12819,-2.10819 1.29962,-0.88828 1.29963,-0.88828 6.4523,0.39982 6.4523,0.39972 2.30334,1.50918 2.30325,1.50919 0.48001,1.83562 0.48001,1.83553 -1.39297,4.12082 -1.39298,4.12091 1.0674,4.23895 1.0674,4.23895 -0.56319,0.91114 c -0.30963,0.50114 -0.99354,0.91114 -1.51965,0.91114 l -0.95656,0 -2.3361,-5.28224 z m -0.63156,-9.31595 1.15249,-1.15249 0,-2.09128 0,-2.09138 -1.38769,-1.15172 -1.38779,-1.15172 -2.21374,0.31386 -2.21383,0.31376 -0.31165,2.72228 c -0.17144,1.49717 -0.0768,3.33395 0.20994,4.08172 l 0.52169,1.35946 2.2391,0 2.23899,0 1.15249,-1.15249 z m -59.07434,12.57202 -1.06576,-1.06577 0.85591,-2.53576 0.85602,-2.53576 -0.25893,-7.20305 -0.25893,-7.20305 -0.78647,-1.68072 -0.78648,-1.68071 3.85978,0 3.85978,0 -0.15559,4.56193 -0.15549,4.56194 4.32183,0 4.32183,0 -0.15549,-4.56194 -0.15549,-4.56193 3.03671,-9e-5 3.03671,-1e-4 0,12.0048 0,12.00479 -2.48101,3.9e-4 c -1.36455,1.9e-4 -2.70662,-0.22512 -2.98226,-0.50085 l -0.50124,-0.50124 1.00008,-3.74693 1.00016,-3.74684 -1.29626,-1.56191 -1.29616,-1.56181 -3.92471,0.28764 -3.9247,0.28764 -0.29782,5.2613 -0.29792,5.2613 -1.14269,0.72655 c -1.61473,1.02668 -2.98975,0.92583 -4.22541,-0.30982 z m 25.27128,-1.05885 0.8224,-2.19722 0.0106,-10.32438 0.0106,-10.32437 3.47658,0 c 1.91207,0 5.51984,0.28006 8.01709,0.62234 l 4.54061,0.62235 0.52304,1.36301 0.52304,1.3631 -0.92401,0.92391 -0.92391,0.92401 -2.80506,-1.46289 c -1.5428,-0.80453 -3.33012,-1.46539 -3.97186,-1.46865 l -1.1667,-0.01 -1.04742,1.95712 -1.04742,1.95702 0.59814,1.88461 c 0.64837,2.04269 1.92446,2.45364 2.86969,0.9241 0.32654,-0.52822 1.21636,-0.96041 1.97758,-0.96041 l 1.38385,0 0,3.36508 0,3.36507 -3.12132,-0.24375 -3.12133,-0.24375 0,3.36142 0,3.36143 3.44364,0.2886 3.44363,0.2887 1.23595,-1.48921 1.23585,-1.48911 1.38683,0 1.38683,0 -0.30388,2.64112 -0.30396,2.64112 -9.48546,0.2763 -9.48546,0.27641 0.82249,-2.19722 z m 26.32312,-31.06465 -3.35018,-1.48508 -2.07631,0.946 c -1.14202,0.52035 -2.28509,0.73721 -2.54037,0.48203 -0.56635,-0.56635 0.81769,-6.99579 1.69473,-7.87284 l 0.62984,-0.62983 1.61857,2.14574 1.61858,2.14574 3.05179,0.87531 3.05178,0.87522 1.7467,-1.29837 1.74669,-1.29837 -1.04925,-1.737 -1.04924,-1.73699 -4.04264,-1.94463 c -2.22344,-1.06951 -4.44572,-2.58215 -4.93851,-3.36142 l -0.89596,-1.4168 -0.0144,-3.05265 -0.0144,-3.05275 1.47201,-1.47211 1.47211,-1.47211 6.80295,0.20303 6.80285,0.20293 -0.5144,5.67418 -0.51439,5.67409 1.50227,2.29277 1.50227,2.29278 -1.12589,3.75779 c -1.29924,4.33643 -1.4142,4.43775 -5.8822,5.18639 l -3.35413,0.56203 -3.35018,-1.48508 z m 7.67202,-16.24951 0,-1.41852 -2.45854,-1.61089 -2.45865,-1.61099 -1.62308,1.64749 -1.62319,1.64757 1.86435,1.38184 1.86424,1.38193 2.21748,0 2.21739,0 0,-1.41843 z m -32.98133,14.81264 -2.50733,-1.97229 -1.06183,-3.94304 -1.06173,-3.94305 0.64078,-3.4154 c 0.35238,-1.87855 1.23595,-4.56654 1.96346,-5.97334 l 1.32277,-2.55795 1.69329,-0.64981 1.69329,-0.64972 6.0255,0.6452 6.0254,0.6453 0,3.19287 0,3.19288 -0.98,0.60572 -0.98009,0.60573 -2.98965,-2.51569 -2.98956,-2.51559 -1.52858,0.29436 -1.52849,0.29437 -1.26437,2.39256 -1.26448,2.39247 0.42479,4.28399 0.42479,4.2839 2.1224,1.71865 c 2.85645,2.31294 3.57906,2.19078 6.68021,-1.12896 l 2.65994,-2.84751 0.60659,0.60659 c 0.77217,0.77217 0.78706,5.4214 0.024,7.41088 l -0.58296,1.51918 -5.53022,0 -5.53012,0 -2.50743,-1.9723 z m -18.23947,-0.0701 -1.75985,-1.02322 -3.37708,0.63348 -3.37698,0.63358 0.67382,-4.143 c 0.37062,-2.27866 1.00593,-4.49807 1.4118,-4.93188 l 0.73798,-0.78878 1.82256,2.31698 c 1.00238,1.27436 2.77682,2.82772 3.94314,3.45189 l 2.12068,1.13501 1.9428,-1.94281 c 1.06855,-1.06864 1.94281,-2.34416 1.94281,-2.83473 0,-1.53358 -2.90398,-3.88082 -5.58947,-4.51795 -1.41564,-0.33585 -3.33031,-1.26783 -4.2547,-2.07112 l -1.68071,-1.46049 0,-2.54872 0,-2.54883 1.3487,-1.84436 1.3486,-1.84437 6.67915,0.0797 6.67905,0.0797 1.09612,0.67737 1.09611,0.67747 0,2.37451 0,2.37451 -1.41593,0.54331 -1.41593,0.5433 -1.4554,-1.4554 -1.4554,-1.4554 -2.986,-0.65586 -2.986,-0.65577 -0.95561,0.95551 -0.9555,0.9556 0.34113,1.77167 0.34124,1.77166 1.90976,0.2885 c 1.0504,0.15876 2.89323,0.49884 4.09518,0.75584 l 2.18531,0.46724 1.89642,1.89633 1.89632,1.89642 0,2.95507 0,2.95517 -2.80727,2.80727 -2.80736,2.80737 -2.23477,-0.0288 c -1.22913,-0.0163 -3.02682,-0.48962 -3.99472,-1.05242 z m 10.16341,-28.4437 -6.96295,-0.33144 0,-1.84494 0,-1.84494 1.95155,-1.04444 1.95154,-1.04445 21.61271,0.67757 21.61261,0.67757 0.49039,0.79339 0.49038,0.79349 -1.03858,1.9406 -1.03859,1.94069 -16.05301,-0.19083 c -8.82921,-0.10498 -19.18643,-0.33999 -23.01605,-0.52227 z m 246.74445,239.46054 14.0859,-2.40227 11.9404,-3.36449 c 80.6575,-22.72717 144.5441,-84.20242 170.1567,-163.73429 4.145,-12.8707 6.3824,-22.09464 9.3421,-38.51337 l 2.1641,-12.00509 0.01,-26.41118 0.01,-26.41119 -2.6345,-14.40611 c -7.8505,-42.92519 -21.8619,-75.74949 -46.3261,-108.52597 -23.4579,-31.42816 -52.3523,-55.84209 -86.8781,-73.4062 -24.0187,-12.219 -43.9646,-18.819923 -71.5503,-23.678893 l -14.4061,-2.5375 -11.5249,-0.12984 -11.5249,-0.12985 -0.2459,248.265143 -0.2461,248.26517 0.5118,1.34581 0.5117,1.34592 11.2592,-0.58182 11.2591,-0.58171 14.0859,-2.40227 z m 76.3639,-55.35641 -1.6122,-2.30152 0,-2.11097 0,-2.11107 -2.9205,-0.64146 -2.9206,-0.64145 -1.4744,1.22375 -1.4745,1.22365 -0.8725,-1.37886 c -0.4798,-0.75833 -0.8791,-2.35126 -0.8871,-3.53977 l -0.014,-2.16091 -1.338,0 -1.3378,0 -0.583,-1.51917 c -0.3206,-0.83556 -0.5829,-2.41149 -0.5829,-3.50213 l 0,-1.98295 3.3847,-5.09918 c 1.8615,-2.80458 3.8649,-5.39605 4.4517,-5.7588 0.5869,-0.36264 3.4936,-0.76525 6.4595,-0.89452 l 5.3925,-0.23501 6.0181,2.99839 6.0182,2.99829 1.6651,-1.04818 1.665,-1.04819 0.2712,-11.24723 0.2711,-11.24713 -3.6325,-3.41963 c -1.998,-1.88076 -5.941,-5.63307 -8.7623,-8.33854 l -5.1297,-4.91901 -1.7536,0.28697 -1.7537,0.28707 -0.6089,-1.91861 -0.6089,-1.9186 -1.673,-0.53092 -1.6729,-0.53101 -1.1592,-4.33393 -1.1591,-4.33402 0.015,-4.0679 0.015,-4.068 1.3913,-5.76244 c 0.7653,-3.16934 1.4068,-6.48428 1.4256,-7.36651 l 0.035,-1.60417 -8.7991,-4.39838 c -4.8396,-2.41916 -9.3775,-4.39847 -10.0843,-4.39847 l -1.2851,0 0,1.29761 c 0,2.03481 4.5919,10.16187 9.2238,16.32499 l 4.2219,5.61752 0,3.50635 0,3.50635 -1.9464,3.19239 -1.9462,3.19239 -3.2792,-0.28245 -3.2792,-0.28255 -2.7493,5.25361 -2.7494,5.25352 -2.3269,0.0192 -2.327,0.0192 -1.0169,2.03962 c -0.5593,1.12185 -1.6051,2.74839 -2.3241,3.61468 l -1.3071,1.57507 -2.2318,-2.09667 -2.2318,-2.09666 -0.4199,1.34438 c -0.2309,0.73941 -0.6459,2.20874 -0.9223,3.26519 -0.8309,3.17597 -3.1116,9.04559 -3.7712,9.7052 l -0.6171,0.61715 -3.5648,-2.10329 -3.5647,-2.10319 -2.2387,0.56184 -2.2387,0.56193 0,1.36781 0,1.36791 -2.1345,1.49506 -2.1345,1.49507 -3.0302,0 -3.0301,0 -1.1951,1.44061 c -0.6576,0.79234 -1.7447,1.44061 -2.4159,1.44061 l -1.2202,0 -0.583,-1.51917 c -0.3207,-0.83555 -0.583,-2.17081 -0.583,-2.96737 l 0,-1.4482 -2.1609,-1.80268 c -1.1885,-0.99153 -2.7118,-1.81709 -3.3852,-1.83467 l -1.2243,-0.0317 -0.9128,2.40102 -0.9129,2.40101 -0.9298,0 c -0.5113,0 -1.6024,-0.9605 -2.4247,-2.1345 l -1.4951,-2.1345 0,-2.03981 c 0,-1.12185 -0.6678,-3.37843 -1.4841,-5.01467 l -1.484,-2.97496 2.4607,-4.85581 2.4606,-4.85592 1.1843,-0.0739 c 1.5302,-0.0951 5.9324,-0.67238 10.8245,-1.41842 l 3.8779,-0.59133 4.6688,2.48246 4.6688,2.48246 2.0178,-0.0211 2.018,-0.0211 2.0677,-1.65939 c 1.1372,-0.91268 4.2706,-4.59949 6.963,-8.19295 l 4.8952,-6.53365 0,-2.21556 0,-2.21556 -6.1952,-7.4517 -6.1953,-7.4517 -2.7534,-5.40834 -2.7534,-5.40824 -2.8163,-0.49135 -2.8164,-0.49134 0,-6.11366 0,-6.11357 -1.9208,-1.07834 c -1.0565,-0.59306 -2.1926,-1.45118 -2.5247,-1.90699 l -0.6039,-0.82873 8.8391,-8.77534 8.8391,-8.77533 5.0248,-1.79673 5.0249,-1.79673 19.8739,-0.79195 c 10.9307,-0.43545 21.4947,-0.81548 23.4756,-0.84429 l 3.6015,-0.0528 0,-1.29184 0,-1.29175 -1.9799,-1.79173 -1.98,-1.79183 0.4528,-1.73104 0.4526,-1.73104 -1.7711,-0.94782 -1.771,-0.94783 -8.1928,0 -8.1928,0 -0.9207,-1.72047 -0.9208,-1.72038 -4.8184,-1.23498 -4.8184,-1.2349 -0.2972,-2.08677 -0.2972,-2.08677 -3.8294,-0.31175 -3.8294,-0.31165 -1.1557,-0.95906 -1.1555,-0.95906 0.5088,-1.32594 0.5088,-1.32594 -4.8878,-0.64837 -4.8877,-0.64837 0,-2.27732 0,-2.27722 -3.4655,0 -3.4656,0 0.6026,-2.40101 0.6027,-2.40102 -3.3798,0 -3.3797,0 0,-3.2989 c 0,-1.8144 -0.4215,-4.4075 -0.9367,-5.76244 l -0.9366,-2.46354 -1.3616,0 -1.3616,0 -0.583,-1.51918 c -0.3206,-0.83555 -0.5829,-2.34819 -0.5829,-3.36142 l 0,-1.84225 -2.3325,0 -2.3323,0 -1.4419,1.44176 -1.4418,1.44186 0.8851,3.08617 0.8851,3.08627 2.409,2.23362 2.4089,2.23371 0,3.35336 0,3.35345 -1.3593,3.25328 -1.3594,3.25328 -1.9325,1.03427 -1.9325,1.03426 -1.5103,-0.57951 -1.5101,-0.57951 0,-1.14577 c 0,-0.63021 0.5228,-1.6687 1.1619,-2.30776 l 1.1619,-1.1619 -1.5837,-2.68097 -1.5837,-2.68108 -0.6538,-4.92803 -0.6537,-4.92804 -1.7916,-2.94596 -1.7915,-2.94595 -1.9687,0 -1.9688,0 -2.3602,1.54645 -2.3602,1.54645 -2.2315,-0.56002 -2.2314,-0.56011 -2.0516,1.43706 -2.0516,1.43696 -0.9627,-1.79865 -0.9626,-1.79865 1.9619,-3.74607 c 1.0792,-2.06036 2.6803,-4.31049 3.5581,-5.00016 l 1.596,-1.2541 3.1213,0.5773 3.1213,0.5773 0,-1.43898 c 0,-0.79137 -0.469,-2.46824 -1.0422,-3.72638 l -1.0423,-2.28749 -2.7993,-1.65363 -2.7994,-1.65363 0,-1.92072 0,-1.92062 -2.9259,-2.67243 -2.926,-2.67233 1.3935,-1.15643 1.3933,-1.15642 4.7476,0.37437 c 2.6112,0.206 5.2456,0.68227 5.8543,1.05846 l 1.1068,0.684 0,-0.82499 c 0,-0.45379 -0.5402,-1.37271 -1.2005,-2.04221 l -1.2005,-1.21712 1.8642,-1.37598 c 2.448,-1.80671 2.3227,-1.83207 7.6488,1.54568 l 4.6069,2.92156 -0.6077,4.04139 c -0.3343,2.22277 -0.85,5.83207 -1.146,8.02074 l -0.5382,3.97935 1.114,2.08159 1.1139,2.08149 1.1355,-0.37754 1.1355,-0.37753 0.2778,-2.32198 c 0.1527,-1.27705 0.5206,-5.84369 0.8176,-10.14804 l 0.5398,-7.82607 -2.0181,-2.0181 -2.0181,-2.01801 0,-1.86002 0,-1.85992 3.1213,-0.30099 3.1213,-0.3009 2.0458,-5.97642 2.0459,-5.97642 -1.2951,-1.70683 c -0.7121,-0.9388 -1.3086,-2.41514 -1.3254,-3.28075 l -0.031,-1.57382 3.3614,-0.6306 3.3614,-0.63061 -4e-4,-1.6372 c -6e-4,-1.94329 -3.161,-10.46469 -5.7989,-15.63533 -1.0309,-2.02079 -2.5572,-5.74842 -3.3916,-8.2837 l -1.5172,-4.60947 -4.4411,-7.44316 -4.441,-7.44315 -1.2496,0 -1.2495,0 -0.1021,2.16092 c -0.057,1.1885 -0.1983,2.80919 -0.316,3.60152 -0.1175,0.79234 -0.2877,2.88785 -0.3781,4.65673 l -0.1642,3.21621 -2.9829,2.78642 -2.9827,2.78634 -2.5876,0 -2.5875,0 -1.1525,-1.15249 c -0.6339,-0.63387 -1.1525,-1.66756 -1.1525,-2.29691 l 0,-1.14442 2.1736,-0.54561 2.1737,-0.54551 1.1877,-5.10908 c 0.6533,-2.80995 1.1878,-6.09022 1.1878,-7.28948 l 0,-2.18051 1.5104,-2.9206 1.5102,-2.9206 -0.6549,-3.99462 -0.655,-3.99462 -2.2148,-4.32183 c -1.2181,-2.377 -2.9796,-6.26665 -3.9142,-8.64366 -0.9348,-2.37701 -2.5474,-5.28156 -3.5836,-6.4546 l -1.8841,-2.13278 1.219,-1.46875 1.219,-1.46875 2.5825,0 2.5825,0 2.0255,1.88701 2.0254,1.887 1.1932,5.55615 c 0.6562,3.05582 1.6014,6.37086 2.1005,7.36661 l 0.9074,1.81046 0.8424,-1.33026 0.8425,-1.33026 0.014,-5.42284 0.014,-5.42294 -3.3614,-2.95133 c -1.8488,-1.62328 -3.3615,-3.35047 -3.3615,-3.83836 0,-1.32776 2.5462,-2.05287 7.208,-2.05287 l 4.1695,0 2.8535,2.40102 2.8534,2.40102 1.3625,0 1.3623,0 2.5807,2.69365 2.5807,2.69365 0,2.29682 0,2.2969 -2.5316,3.6531 c -1.3924,2.00927 -2.8254,3.6532 -3.1846,3.6532 -0.3591,0 -1.5969,1.67946 -2.7506,3.73224 l -2.0977,3.73233 0.01,3.71082 0.01,3.71092 1.6744,2.4572 c 0.921,1.35148 4.1316,5.47057 7.1349,9.15354 l 5.4605,6.69624 4.0594,3.26231 4.0595,3.26222 5.3402,2.17042 5.3402,2.17052 1.0473,-0.86917 1.0473,-0.86917 3.3982,0.55147 3.3983,0.55146 6.9704,-4.1576 6.9702,-4.1576 0.8487,-2.23237 0.8488,-2.23237 3.311,0.62119 3.311,0.6211 4.8027,-1.59514 4.8027,-1.59524 0.2966,-3.06293 0.2958,-3.06283 2.8812,0.22406 2.8813,0.22397 2.9628,-0.96655 2.963,-0.96656 2.7637,-2.88467 2.7637,-2.88468 -6.8904,0.6404 -6.8905,0.6404 -2.4263,-1.58977 -2.4262,-1.58985 -5.13,2.89524 -5.13,2.89515 -5.2524,1.05481 -5.2525,1.05491 -3.5527,-1.4845 -3.5528,-1.4844 -1.1329,-2.4864 -1.1329,-2.4864 1.5456,-1.54558 1.5455,-1.54549 3.1434,2.64496 3.1434,2.64496 4.2873,-0.58757 4.2872,-0.58768 5.2016,-2.38133 c 5.7951,-2.65302 14.849,-8.28917 14.2607,-8.87742 -0.2089,-0.20889 -2.6498,-0.97865 -5.4242,-1.71048 l -5.0442,-1.33065 -2.7213,1.40719 -2.7213,1.40728 -2.1184,2.86538 -2.1185,2.86537 -1.1573,0 -1.1572,0 -0.5829,-1.51917 c -0.3207,-0.83555 -0.583,-4.29936 -0.583,-7.69737 l 0,-6.1782 3.1543,-3.44201 3.1543,-3.4419 4.769,-0.52698 4.7691,-0.52697 2.1939,-2.34464 2.1938,-2.34465 -0.9563,-5.17332 c -1.1001,-5.95116 -2.8577,-9.73209 -5.7341,-12.33518 l -2.0191,-1.82727 0,-1.39269 0,-1.39259 4.0817,0.68708 c 2.245,0.37782 6.9968,0.73375 10.5595,0.7908 l 6.4777,0.10382 2.8862,-3.33108 2.8863,-3.33107 2.711,3.12132 2.7111,3.12132 1.9309,0 c 1.062,0 2.2255,0.29456 2.5856,0.65462 l 0.6547,0.65471 3.6641,-0.0538 3.6642,-0.0538 2.0207,-1.08142 c 1.1114,-0.59487 3.1041,-1.08151 4.4282,-1.08151 l 2.4075,0 0.5525,0.89394 0.5526,0.89405 -2.5134,2.70748 c -1.3823,1.48921 -3.1412,3.91923 -3.9086,5.40027 l -1.3953,2.69279 -0.5754,4.85831 -0.5754,4.85832 6.6112,-0.34805 6.6113,-0.34796 0.3329,1.70319 0.3329,1.70328 -2.0517,4.23837 -2.0518,4.23837 1.5482,2.99378 1.5481,2.99378 0.5079,4.99047 c 0.2793,2.74474 0.9615,6.19001 1.5159,7.65617 l 1.008,2.66561 -1.4456,1.65622 -1.4457,1.65622 -0.6133,5.76244 -0.6133,5.76244 0.8241,2.88122 0.824,2.88122 -0.4124,1.20051 -0.4124,1.20051 -1.807,0 -1.807,0 -0.9942,1.85762 c -0.5468,1.02178 -0.9942,2.94105 -0.9942,4.26517 l 0,2.40745 1.004,0.62052 1.0039,0.62042 6.8977,-4.09777 6.8976,-4.09786 4.3573,-4.38925 c 2.3965,-2.41418 5.7363,-6.55027 7.4218,-9.19138 1.6856,-2.64112 3.7713,-5.79942 4.635,-7.01847 l 1.5703,-2.21633 2.0743,0.29552 2.0742,0.29561 0.2919,5.08814 0.2919,5.08814 -1.9875,5.47634 -1.9875,5.47633 3.6164,-4.09661 3.6164,-4.09662 1.1668,0.0144 1.1667,0.0144 1.1032,2.06141 1.1033,2.06142 -0.4655,4.12985 -0.4655,4.12975 -2.0446,3.92259 c -2.5568,4.90547 -2.5515,4.96914 0.324,3.87581 l 2.3685,-0.90047 1.4731,1.47307 1.4731,1.47307 0,1.73152 c 0,0.95234 -0.6526,3.58097 -1.4501,5.84148 l -1.4501,4.11006 -4.3241,5.06144 -4.3241,5.06134 -4.9145,3.60758 -4.9144,3.60758 2.0663,0.76438 2.0662,0.7643 0.5683,1.48094 0.5683,1.48095 -1.1396,2.75137 -1.1397,2.75128 -4.0118,2.8479 -4.0119,2.84789 -4.3218,1.54328 c -2.377,0.8489 -6.8251,2.02943 -9.8846,2.62354 l -5.5628,1.08017 0.5424,1.70895 0.5424,1.70904 -0.5789,1.5088 -0.579,1.5088 -2.9476,1.02754 -2.9475,1.02754 -5.2689,0 -5.2689,0 -2.2049,2.37912 -2.2048,2.37902 -3.9291,0.6283 -3.9291,0.6283 -0.574,0.92871 -0.574,0.92881 3.6934,7.34865 3.6935,7.34865 14.0259,14.11068 14.0259,14.11078 2.9914,5.61243 2.9914,5.61252 1.9164,8.78052 c 1.054,4.82931 2.586,11.03526 3.4044,13.79115 l 1.488,5.01073 2.9888,4.65769 2.9889,4.65768 4.8541,3.86497 4.8542,3.86496 2.2761,0.57125 2.276,0.57125 6.1869,-0.39396 6.187,-0.39396 2.5558,-2.35751 2.5558,-2.35741 1.3169,-3.09049 1.3168,-3.0905 -0.021,-4.59276 -0.021,-4.59276 -1.8486,-4.07232 c -1.0167,-2.23986 -3.4167,-6.12605 -5.3332,-8.63617 l -3.4847,-4.56376 -6.8909,-5.60512 -6.8908,-5.60522 -2.5697,-3.80456 -2.5698,-3.80456 -1.0704,-4.99142 c -0.5888,-2.74523 -1.6447,-5.8677 -2.3465,-6.93885 -0.7018,-1.07104 -1.5732,-3.30082 -1.9366,-4.95512 l -0.6606,-3.0077 1.6582,-3.70103 1.6582,-3.70102 0.077,-6.32236 0.077,-6.32236 3.1213,-3.55523 c 1.7167,-1.95539 3.1213,-3.97234 3.1213,-4.48222 l 0,-0.92699 2.2834,0 2.2834,0 1.2222,-1.47259 1.2221,-1.47259 0.9441,0.31463 0.9441,0.31473 1.0944,3.31887 1.0943,3.31878 2.5662,-0.26814 2.5662,-0.26805 -0.2672,8.43151 -0.2672,8.4316 -0.712,1.60081 -0.7121,1.6008 -3.585,2.3724 -3.585,2.37249 -1.1449,3.82146 -1.145,3.82136 0,6.43454 0,6.43444 1.1208,2.09772 c 0.6164,1.15383 5.2776,6.20355 10.3582,11.22168 l 9.2373,9.12386 3.3172,6.65197 3.3171,6.65197 -0.1703,6.12788 -0.1702,6.12787 -2.1186,4.37629 -2.1185,4.37629 -4.2429,2.69077 -4.2429,2.69077 -4.8486,1.16315 -4.8485,1.16315 -4.7945,-0.56779 -4.7944,-0.56789 -4.4635,-2.58686 -4.4636,-2.58686 -6.465,-6.69518 -6.4651,-6.6951 -0.4234,1.32508 c -0.2328,0.72875 -1.1316,3.56916 -1.9973,6.31208 l -1.574,4.98691 -3.5717,3.65675 -3.5716,3.65665 -9.4539,5.20935 -9.4538,5.20924 -1.3217,3.16339 c -0.727,1.73987 -1.3218,4.03794 -1.3218,5.10677 l 0,1.94329 3.1214,4.24529 c 1.7167,2.33484 4.2017,6.05978 5.5223,8.27755 l 2.401,4.03246 4.0673,2.81159 c 2.2371,1.54635 4.4696,3.56321 4.9612,4.48174 l 0.8939,1.67024 -0.2169,9.00948 -0.2168,9.00949 -2.1032,0.77802 -2.1033,0.77803 0.034,1.23143 c 0.019,0.67738 0.6517,2.31199 1.4066,3.63255 0.7549,1.32056 1.3879,3.168 1.4066,4.10545 l 0.034,1.70453 -2.2778,0.866 -2.2779,0.866 0.4861,6.79343 0.4861,6.79354 -1.8693,0 -1.8692,0 -2.1302,2.88122 -2.1302,2.88122 -4.5362,0 -4.5363,0 -4.7279,3.36142 -4.7279,3.36143 -3.5554,0 -3.5555,0 -1.3863,2.08782 -1.3863,2.08783 -1.6121,-2.30152 z m 11.3782,-6.45076 c 0.5419,-0.3881 2.4307,-2.56227 4.1975,-4.83162 l 3.2123,-4.126 -0.4905,-0.49048 -0.4904,-0.49039 -4.3349,2.0376 c -2.3842,1.1207 -5.0772,2.85789 -5.9845,3.86036 l -1.6495,1.82275 0.5665,1.47644 0.5666,1.47634 1.7109,-0.0144 c 0.9409,-0.01 2.1541,-0.33221 2.696,-0.72031 z m -5.9858,-8.14877 2.9792,-2.16091 7.2533,-2.48169 7.2534,-2.4817 0.3517,-1.84014 0.3517,-1.84013 -2.0818,1.87423 -2.0818,1.87423 -9.4201,0.56828 -9.42,0.56817 -2.5357,1.66141 -2.5357,1.66141 0,1.22644 c 0,0.67449 0.5186,1.74496 1.1525,2.37883 l 1.1525,1.15249 2.3008,0 2.3008,0 2.9792,-2.16092 z m -8.3484,-8.32941 c 1.5315,-0.48751 4.5078,-1.17468 6.614,-1.52696 l 3.8295,-0.64059 -1.7733,-1.29664 -1.7733,-1.29665 -4.9374,0.55454 -4.9375,0.55454 -1.2005,0.946 c -0.6603,0.52035 -1.2005,1.54136 -1.2005,2.26906 l 0,1.32296 1.2973,0 c 0.7135,0 2.5503,-0.39886 4.0817,-0.88626 z m -60.1869,-27.58154 1.9954,-2.53673 -1.0829,-1.3049 -1.0829,-1.30481 -2.448,0 -2.4479,0 -1.7563,1.58947 c -2.0405,1.84677 -2.2211,3.32407 -0.6039,4.9413 l 1.1525,1.15248 2.1393,0 2.1392,0 1.9955,-2.53681 z m -8.8191,-7.01299 c 1.1885,-0.99153 2.161,-2.08245 2.161,-2.42436 l 0,-0.62157 -4.0818,0.29532 -4.0817,0.29533 -0.3069,2.16091 -0.3069,2.16092 2.2278,-0.0317 2.2276,-0.0317 2.1609,-1.80268 z m -7.4468,-5.33208 1.192,-1.4362 3.7277,-1.11685 3.7277,-1.11686 0,-0.72828 c 0,-0.40058 -0.5143,-0.8998 -1.143,-1.10936 l -1.143,-0.381 -5.0997,1.41939 -5.0996,1.41938 0,1.60273 c 0,3.01837 1.93,3.74607 3.8379,1.44705 z m 87.9429,-5.57459 -2.4202,-4.12965 -1.3067,-5.71452 -1.3067,-5.71461 -2.0441,0.29503 -2.0439,0.29504 -0.5985,-2.38459 -0.5985,-2.38469 0.964,-6.07381 c 0.5302,-3.34068 1.2228,-6.93826 1.5391,-7.99471 0.3162,-1.05645 -0.3078,-0.0922 -1.3867,2.14315 l -1.9616,4.06405 -1.0512,5.23374 -1.051,5.23383 0.6408,3.41598 0.6408,3.41588 1.8795,1.00583 1.8795,1.00593 0,1.39864 0,1.39874 1.9504,1.20857 c 1.0726,0.6648 3.0762,2.82936 4.4524,4.8102 1.3762,1.98084 2.8937,3.60153 3.3724,3.60153 l 0.8703,0 -2.4201,-4.12956 z m -46.6417,-18.54517 0,-2.13902 -4.0986,-4.80165 c -2.2542,-2.64083 -5.7255,-7.53823 -7.714,-10.88294 l -3.6155,-6.08139 -2.0125,-6.57802 -2.0125,-6.57802 0.5618,-4.74326 0.5617,-4.74326 2.1653,-3.85257 2.1653,-3.85258 2.9178,-1.75514 c 1.6048,-0.96531 5.2947,-2.55843 8.2,-3.54016 l 5.2822,-1.78501 -2.6524,-0.31885 -2.6523,-0.31895 -5.4418,1.58198 -5.4417,1.58198 -7.1993,7.10653 -7.1992,7.10643 1.6941,1.87213 1.6942,1.87202 -0.6182,1.94761 -0.6182,1.9477 0.6284,3.34923 0.6283,3.34932 1.9977,0.29427 1.9977,0.29418 3.1726,6.24264 3.1727,6.24264 5.7257,6.59368 5.7255,6.59357 0.6039,2.74879 0.6037,2.74878 -0.6015,2.18242 -0.6015,2.18253 1.4903,-1.86425 1.4903,-1.86424 0,-2.13912 z m 48.9064,-35.13024 2.8457,-4.98269 -0.4819,-0.77975 c -0.2651,-0.42892 -1.0741,-0.77985 -1.7977,-0.77985 l -1.3158,0 -1.5088,5.18994 c -2.391,8.22502 -1.8513,8.5482 2.2585,1.35235 z m -85.4019,-68.51869 0,-1.47067 -1.482,-0.56875 -1.482,-0.56875 -0.5574,0.55751 -0.5574,0.55742 0.5686,1.48201 0.5688,1.482 1.4708,0 1.4706,0 0,-1.47077 z m 148.366,-1.33323 0.6158,-2.8041 4.218,-6.59272 4.218,-6.59271 0.6475,-4.28898 0.6475,-4.28909 -1.2753,1.20051 -1.2753,1.20051 -2.223,0 -2.2231,0 -1.9255,3.12132 -1.9255,3.12133 0.5872,4.86206 0.5871,4.86196 -1.5287,3.65886 c -1.7524,4.1941 -1.8913,5.34505 -0.6447,5.34505 l 0.8841,0 0.6159,-2.804 z m 14.2871,-10.1467 c 3.5569,-5.35715 4.2228,-7.21784 2.5831,-7.21784 -1.1282,0 -6.2593,7.37573 -7.1823,10.32437 l -0.6766,2.16091 0.8892,0 0.8891,0 3.4974,-5.26744 z m -181.7711,-8.22637 1.8846,-1.00862 -0.5639,-0.91219 -0.5637,-0.91229 -2.7679,0 -2.7678,0 -0.5937,0.96041 -0.5935,0.9604 0.5935,0.96041 c 0.7684,1.24325 2.9968,1.22317 5.3724,-0.048 z m 29.2991,-7.57694 c 1.5315,-0.49624 10.4476,-3.31868 19.8137,-6.27222 l 17.0292,-5.36992 1.0451,-1.9527 1.045,-1.95261 -1.2226,-1.47316 -1.2226,-1.47317 -3.2116,0.52121 -3.2116,0.52112 -14.6005,7.10797 -14.6005,7.10787 -2.401,2.03703 c -2.705,2.29489 -2.4528,2.49148 1.5374,1.19858 z m -22.5491,-6.46891 -1.0192,-1.75274 -0.029,1.5207 c -0.031,1.61733 0.9789,3.07359 1.6595,2.39295 0.2244,-0.22444 -0.051,-1.19686 -0.6111,-2.16091 z m -7.283,-6.63257 -1.5623,-2.3844 -0.9182,0.5675 -0.9182,0.56751 0,1.80959 0,1.8097 2.1609,1.52138 2.1609,1.52128 0.3196,-1.51408 0.3196,-1.51408 -1.5623,-2.3844 z m 126.6078,4.52063 1.7921,-0.70455 -6.021,-1.67399 -6.021,-1.67399 -0.9894,0.98941 -0.9893,0.98932 0.6075,0.60755 c 0.6866,0.6866 6.2001,2.09302 8.3883,2.13988 0.7923,0.0173 2.2471,-0.2862 3.2328,-0.67372 z m -115.6004,-5.45991 0,-1.38395 -1.4406,0 -1.4407,0 0,1.28052 c 0,0.70436 0.2764,1.55701 0.6142,1.89478 l 0.6142,0.61409 0.8264,-0.51075 c 0.4546,-0.28092 0.8265,-1.13357 0.8265,-1.89469 z m 133.3232,-5.6471 3.1881,-1.09227 -9.911,0.38426 c -10.3176,0.40001 -11.6892,0.69409 -9.5126,2.03933 l 1.303,0.8053 5.8722,-0.52217 c 3.2297,-0.28726 7.3069,-1.01371 9.0603,-1.61445 z m -62.2531,-5.64997 0,-6.0716 1.4674,-4.30665 1.4674,-4.30657 2.8747,-3.48742 2.8746,-3.48734 6.8693,-4.56673 6.8693,-4.56674 -0.9949,-0.33163 c -0.5472,-0.18238 -3.4267,0.57827 -6.3989,1.69032 l -5.4041,2.02185 -4.5723,3.14274 -4.5723,3.14274 -2.8812,4.6402 -2.8813,4.64021 0,6.3602 0,6.3602 1.7029,2.59886 c 0.9366,1.42937 2.1251,2.59886 2.6411,2.59886 l 0.9383,0 0,-6.0715 z m 68.1889,3.67048 c 0,-0.26411 -0.2161,-0.4802 -0.4802,-0.4802 -0.2641,0 -0.4802,0.21609 -0.4802,0.4802 0,0.26411 0.2161,0.4802 0.4802,0.4802 0.2641,0 0.4802,-0.21609 0.4802,-0.4802 z m -124.0455,-2.01772 2.1951,-1.53751 0.9266,-2.43732 0.9267,-2.43732 -0.4817,-0.48165 -0.4817,-0.48174 -4.1071,3.67759 c -2.259,2.02271 -4.2512,4.02814 -4.4273,4.45658 l -0.3201,0.77889 1.7872,0 1.7871,0 2.1952,-1.53752 z m 126.4718,-12.30089 10.5392,-5.19474 5.5223,-5.4943 c 3.0373,-3.02192 5.5224,-5.88153 5.5224,-6.35472 l 0,-0.86034 -6.423,5.44878 -6.4229,5.44877 -5.8223,2.6099 c -3.2022,1.43552 -8.1992,3.37363 -11.1044,4.30695 -2.9053,0.93332 -5.8178,2.12096 -6.4722,2.6391 l -1.19,0.94216 0.5264,0.85159 0.5263,0.8516 2.1295,0 2.1295,0 10.5392,-5.19475 z m -115.3022,-8.43583 c 2.3925,-1.68638 4.3499,-3.41511 4.3499,-3.84163 l 0,-0.77552 -1.6807,0.01 c -0.9244,0 -2.9773,0.71051 -4.562,1.57161 -1.5846,0.8612 -4.0742,2.18896 -5.5324,2.95075 l -2.6512,1.38491 0.5471,0.88511 0.5469,0.88502 2.3162,0 2.3163,0 4.3499,-3.0661 z m 116.1494,-9.29155 7.5953,-4.44947 4.5096,-4.36294 c 2.4803,-2.39957 5.067,-5.42485 5.7483,-6.72284 l 1.2387,-2.35992 -5.8815,5.57229 -5.8814,5.57218 -10.1033,4.82624 c -9.7111,4.63886 -10.8836,5.49842 -9.4524,6.92962 l 0.6508,0.65077 1.9903,-0.60323 c 1.0946,-0.33182 5.4082,-2.60549 9.5856,-5.0527 z m -104.9365,-4.06262 c 2.2999,-0.655 4.5493,-1.50726 4.9987,-1.89392 l 0.817,-0.70311 -2.1198,-0.67277 -2.1198,-0.67286 -5.6602,1.25573 -5.6601,1.25573 0,0.71455 c 0,0.393 0.7563,1.15661 1.6807,1.69684 l 1.6807,0.98231 1.1006,-0.38589 c 0.6052,-0.21216 2.9823,-0.92171 5.2822,-1.57661 z m -15.2409,-1.10715 0.4257,-1.20051 -2.3932,-4.80204 c -2.4403,-4.89644 -9.7279,-14.34118 -10.4831,-13.5861 -0.2291,0.22924 1.3987,4.24423 3.6175,8.92227 5.1463,10.85029 7.6819,13.91217 8.8331,10.66638 z m 114.2819,-7.12171 c 5.7223,-3.60556 12.0476,-9.01947 13.8403,-11.84633 l 1.5227,-2.40102 -3.5378,3.35682 -3.5378,3.35672 -6.8356,3.84633 -6.8355,3.84624 -0.399,1.2005 -0.399,1.20051 1.0595,0 c 0.5827,0 2.8877,-1.15191 5.1222,-2.55977 z m -87.1761,-0.32145 1.7384,-1.92081 -0.9659,0 c -0.5313,0 -2.3271,0.47444 -3.9905,1.05433 l -3.0246,1.05443 0,0.86639 0,0.86648 2.2522,0 2.2522,0 1.7382,-1.92082 z m 56.1839,-11.31369 7.203,-3.57261 2.1609,-4.28524 2.1609,-4.28524 -0.035,-2.43761 -0.035,-2.43761 -2.4736,5.11417 -2.4736,5.11407 -3.8781,2.80928 c -4.4288,3.20824 -5.7214,3.42904 -7.5034,1.28186 l -1.2676,-1.52734 -1.251,1.71087 -1.2511,1.71097 0,2.21738 0,2.21749 0.7204,-0.0288 c 0.3961,-0.0163 3.9616,-1.63663 7.9233,-3.60153 z m -38.2363,0.0932 -1.2605,-0.5045 -0.5802,0.58028 -0.5803,0.58028 1.8408,-0.0759 1.8408,-0.0759 -1.2606,-0.5045 z m -74.8135,-3.18567 0.5023,-1.92081 -0.5125,-1.96009 -0.5126,-1.9601 -1.0783,0.35362 -1.0782,0.35362 -0.298,3.52729 -0.2981,3.52729 1.3865,0 1.3866,0 0.5023,-1.92082 z m 82.803,-40.66237 c 2.6378,-1.38366 6.0925,-3.60307 7.6772,-4.93208 l 2.8812,-2.41628 -2.1388,0 -2.1387,-0.01 -1.5732,2.40102 -1.5733,2.40102 -4.1488,0 -4.1489,0 -2.4151,0.91824 -2.4152,0.91825 -1.0517,3.90587 -1.0519,3.90598 0.6263,1.01332 0.6264,1.01343 3.0242,-3.30179 3.0244,-3.30178 4.7959,-2.51569 z m -69.6696,-3.8667 -0.034,-1.09025 -1.3725,2.40102 c -0.7549,1.32056 -1.371,3.26538 -1.369,4.32183 l 0,1.92081 1.403,-3.23158 c 0.7717,-1.77733 1.3877,-3.72215 1.3689,-4.32183 z m 3.8756,4.07866 0,-0.96041 -0.9604,0.59353 c -0.5282,0.32645 -0.9604,1.02581 -0.9604,1.55394 l 0,0.96041 0.9604,-0.59353 c 0.5282,-0.32645 0.9604,-1.02572 0.9604,-1.55394 z m -22.4866,-4.53716 -1.5235,-1.52349 0,2.41466 0,2.41475 1.2005,1.2127 1.2005,1.21271 0.3231,-2.10396 0.3229,-2.10387 -1.5235,-1.5235 z m 110.8103,3.75327 c 1.4685,-2.74388 1.3073,-2.94441 -2.3673,-2.94441 l -3.3614,0 0,0.64472 c 0,0.95003 3.0526,4.15731 3.9567,4.15731 0.4279,0 1.2252,-0.83593 1.772,-1.85762 z m 22.6272,0.8587 0.6173,-0.99882 -2.5202,0.63252 -2.5202,0.63253 -1.888,-1.70866 -1.888,-1.70866 -0.52,0.52006 -0.5201,0.52006 1.555,1.55499 1.5549,1.5549 2.756,0 2.7559,0 0.6174,-0.99892 z m -119.283,-9.1787 -0.517,-1.34726 -2.2536,0 -2.2536,0 1.6361,2.87882 1.636,2.87882 1.1346,-1.53156 1.1345,-1.53156 -0.517,-1.34726 z m 96.4856,-12.63204 c 0.1518,-4.88607 0.079,-8.88376 -0.1616,-8.88376 -0.2408,0 -1.1213,0.26238 -1.9569,0.58296 l -1.5192,0.58297 0,2.46277 0,2.46268 -1.5894,1.75639 -1.5894,1.7563 -2.2969,0 -2.2968,0 -1.6361,-2.87517 c -0.8998,-1.58131 -2.0105,-2.87786 -2.4682,-2.88122 l -0.8323,-0.01 0.6351,2.64112 c 0.3494,1.45262 0.9996,4.31444 1.445,6.35962 l 0.8098,3.71851 1.3081,0.85236 1.3081,0.85236 5.2822,-0.24904 5.2823,-0.24903 0.2762,-8.88376 z m -7.2089,-3.36142 0.4305,-1.20051 -0.8645,-1.68071 c -1.0601,-2.06152 -2.3279,-2.16073 -3.0649,-0.24011 l -0.5528,1.44061 0.5528,1.44062 0.5528,1.44061 1.2579,0 1.2578,0 0.4304,-1.20051 z m 20.6063,-0.73135 0.2499,-1.42957 -0.9775,-1.44061 -0.9774,-1.44061 -1.3564,1.77406 -1.3564,1.77407 0.5351,1.39441 0.5351,1.39442 1.5488,-0.2983 1.5488,-0.29831 0.25,-1.42956 z m -314.72287,427.91848 -1.15729,-1.39451 0.33259,-1.72681 0.33249,-1.72691 2.8549,0 2.85501,0 0.33249,1.72691 0.33259,1.72681 -1.15729,1.39451 c -0.63656,0.76689 -1.69973,1.39442 -2.3628,1.39442 -0.66296,0 -1.72613,-0.62753 -2.36269,-1.39442 z m 345.33827,-9.96172 0.5425,-2.71248 -8.9979,-11.93372 -8.9979,-11.93373 -2.6132,-0.30387 -2.6133,-0.30388 0,-0.81481 c 0,-0.71886 6.8971,-6.10905 10.427,-8.14895 l 1.3032,-0.75306 -0.6224,2.83397 -0.6224,2.83397 5.9645,8.09076 c 3.2804,4.44994 7.659,10.14208 9.7301,12.64932 l 3.7657,4.55848 2.3144,-0.58095 2.3145,-0.58086 0,1.01169 0,1.0117 -5.4386,3.89445 c -2.9912,2.14199 -5.7896,3.89445 -6.2186,3.89445 l -0.7801,0 0.5425,-2.71248 z m -363.39901,-2.83848 c -4.67219,-4.07491 -4.92333,-4.75824 -1.90602,-5.18678 l 2.16091,-0.30694 1.4118,-4.08394 1.4118,-4.08394 -4.77322,-4.27659 -4.77323,-4.2766 -1.72835,-0.0432 c -0.95061,-0.024 -3.00348,0.61639 -4.56193,1.42227 l -2.83358,1.46529 0,2.37634 0,2.37633 -0.88665,0 c -1.23825,0 -6.79661,-4.78244 -6.79661,-5.84782 l 0,-0.87503 1.93157,0 1.93157,0 16.99671,-8.64366 c 9.34821,-4.75401 17.3387,-8.64366 17.75677,-8.64366 l 0.76006,0 0,1.97143 c 0,1.0843 -2.16091,9.35791 -4.80203,18.38574 l -4.80203,16.41421 0,2.74331 0,2.74321 -1.20051,-0.0288 c -0.66028,-0.0154 -3.04392,-1.63644 -5.29703,-3.60153 z m 6.34147,-24.20696 1.94108,-5.74775 -0.90413,-0.55876 -0.90403,-0.55867 -5.42073,3.10134 -5.42063,3.10145 3.49732,3.20507 c 1.9236,1.76282 3.89628,3.20507 4.38378,3.20507 l 0.88626,0 1.94108,-5.74775 z m 375.29474,12.69206 0.5628,-2.81408 -9.7832,-11.66914 -9.7831,-11.66923 -2.7933,0 -2.7933,0 0,-0.79061 c 0,-0.97087 9.532,-8.81346 10.712,-8.81346 l 0.8494,0 -0.5755,2.29316 -0.5755,2.29307 10.0412,11.87294 10.0413,11.87283 2.5211,-0.18075 2.521,-0.18084 -0.048,1.14125 -0.048,1.14116 -4.6765,3.81569 c -2.5721,2.09868 -5.1399,3.97023 -5.7061,4.15895 l -1.0295,0.34315 0.5628,-2.81409 z m -411.29127,-34.78718 -2.05815,-0.83142 -1.54337,-2.20347 -1.54338,-2.20346 0,-2.26118 0,-2.26118 2.80737,-2.80737 2.80736,-2.80736 2.51857,0 2.51857,0 2.35732,2.35741 2.35732,2.35732 0,3.40512 0,3.40503 -1.92081,1.92081 c -1.05645,1.05645 -2.31766,1.92082 -2.80266,1.92082 -0.48501,0 -1.45742,0.1891 -2.16092,0.42018 l -1.27907,0.42017 -2.05815,-0.83142 z m 425.33727,0.30867 c -1.4343,-0.5771 -4.0615,-5.36329 -4.0615,-7.39926 l 0,-1.41458 2.4864,-2.95498 2.4864,-2.95488 2.8697,0 2.8698,0 2.8073,2.80736 2.8073,2.80737 0,1.56219 c 0,0.85918 -0.6323,2.78489 -1.405,4.27929 l -1.4051,2.71718 -1.5547,0.59651 c -1.8029,0.69188 -6.1291,0.66652 -7.9006,-0.0461 z m 36.2756,-21.84608 0,-2.32025 -3.6015,-2.79296 c -1.9809,-1.53617 -7.6592,-5.48325 -12.6186,-8.77139 l -9.017,-5.97844 -2.748,0.60352 -2.7479,0.60352 0,-0.60919 c 0,-0.33508 1.7448,-3.17856 3.8774,-6.31899 l 3.8774,-5.70972 0.9429,0 0.9429,0 -0.5528,2.20298 -0.553,2.20289 1.7352,1.48613 c 0.9543,0.8174 6.6455,4.83527 12.6471,8.92852 l 10.912,7.44229 3.254,-0.61044 3.254,-0.61043 0,0.57644 c 0,0.31703 -1.7449,3.14581 -3.8774,6.28615 l -3.8775,5.70971 -0.9246,0 -0.9246,0 0,-2.32034 z m -496.769524,-4.38455 -2.41907,-1.90276 -1.6327,-4.09978 c -0.89788,-2.25484 -2.26521,-4.80472 -3.03834,-5.6664 l -1.40575,-1.56681 4.06012,-3.47533 c 2.23314,-1.91149 4.41461,-3.47542 4.84775,-3.47542 l 0.78754,0 -0.0336,1.20051 c -0.0192,0.66028 -0.65163,2.28096 -1.40651,3.60152 l -1.37252,2.40102 -0.0336,3.12132 -0.0336,3.12133 1.92081,1.92081 1.92082,1.92081 2.28336,0 2.28347,0 1.2129,-1.46145 1.21289,-1.46155 0.41471,-9.34303 0.4147,-9.34312 1.02629,-2.68636 1.02629,-2.68645 2.698174,-1.39527 2.69826,-1.39538 3.02087,0 3.02086,0 2.83243,1.67322 2.83243,1.67313 2.52251,5.28982 c 1.38741,2.90936 3.11729,5.99476 3.84422,6.85654 l 1.32162,1.56671 -4.06012,3.47542 c -5.86905,5.0236 -6.8283,4.64434 -4.19467,-1.65872 0.79233,-1.89632 1.44061,-4.50911 1.44061,-5.80604 l 0,-2.35818 -2.4864,-2.95498 -2.4864,-2.95489 -1.87913,0 -1.87913,0 -2.35732,2.35742 -2.35732,2.35732 0,8.75046 0,8.75046 -1.07287,2.09781 c -0.59007,1.15374 -1.994674,2.84444 -3.121324,3.75711 l -2.04845,1.6593 -3.95227,0.0211 -3.95217,0.0211 -2.41907,-1.90276 z m 510.215224,-15.2356 0,-1.77195 -1.6807,-1.49555 c -0.9244,-0.82249 -7.0681,-4.62263 -13.6527,-8.44466 l -11.972,-6.94932 -2.6742,1.00949 -2.6742,1.00938 0.011,-0.63684 c 0.01,-0.35036 1.4393,-3.20353 3.1845,-6.34041 l 3.1732,-5.70348 1.1372,-0.37907 1.1373,-0.37917 0,2.33225 0,2.33216 1.6807,1.40728 c 0.9244,0.7739 6.8142,4.34133 13.0884,7.92759 l 11.4076,6.52029 2.7584,-0.55165 2.7583,-0.55166 0,0.57442 c 0,1.20224 -6.2407,11.86285 -6.9445,11.86285 l -0.7387,0 0,-1.77195 z M 68.426756,479.44691 c -0.48385,-1.1885 -3.24118,-7.74328 -6.1273,-14.5661 l -5.24756,-12.40519 0.46339,-1.20772 0.4635,-1.20771 3.52671,-1.41775 3.52671,-1.41775 0.3007,0.80607 c 0.16528,0.44342 -0.42335,1.91101 -1.30827,3.26144 l -1.60877,2.45538 0.64087,3.41617 0.64088,3.41607 1.28887,0.49461 1.28877,0.49461 13.22106,-5.58727 13.22096,-5.58716 1.65814,-2.72093 1.65805,-2.72084 0.82633,1.27754 c 0.45446,0.70263 1.75947,3.43643 2.90004,6.07496 l 2.073814,4.79742 -0.50152,0.81135 -0.50143,0.81135 -1.044064,-1.04406 -1.04415,-1.04415 -1.96884,0.0336 -1.96883,0.0336 -12.96549,5.579 -12.9655,5.5791 -0.28274,1.88653 -0.28284,1.88662 2.03328,2.58484 2.03318,2.58484 2.81149,0 2.8115,0 0,1.00939 0,1.00939 -3.3305,1.39162 c -1.83188,0.76545 -3.78737,1.39163 -4.34565,1.39163 l -1.01505,0 -0.87974,-2.16091 z m 536.065984,-11.9368 -4.1297,-1.46087 0.3621,-1.10447 0.362,-1.10447 3.1903,-0.31155 3.19026,-0.31166 2.3457,-1.53694 2.3457,-1.53693 0.8983,-2.3628 0.8984,-2.36279 -1.4883,-2.27146 -1.4883,-2.27136 -1.9463,0 c -2.29356,0 -5.82306,1.73795 -12.01166,5.91457 l -4.4975,3.03527 -4.4653,0.42911 -4.4653,0.42901 -3.0919,-2.88823 -3.0919,-2.88833 0,-5.23306 0,-5.23297 2.8812,-3.97743 2.8812,-3.97743 0,-1.3922 c 0,-0.76574 0.4419,-1.66535 0.982,-1.99919 l 0.982,-0.60688 4.7804,1.58784 4.7805,1.58775 0,0.78052 c 0,1.0383 -2.4941,1.94636 -5.3457,1.94636 l -2.3073,0 -2.8621,2.64112 -2.862,2.64112 -0.5736,2.46171 -0.5736,2.46181 1.8302,2.26023 1.8303,2.26022 2.9184,0 2.9184,0 7.0053,-4.48184 7.0052,-4.48193 3.59796,0 3.598,0 2.8843,2.42695 2.8843,2.42704 0.6345,2.88891 0.6346,2.8889 -2.1236,4.04812 c -1.168,2.22641 -2.8264,5.43859 -3.6853,7.13803 l -1.5616,3.09011 -0.9604,-0.0442 c -0.5282,-0.024 -2.81876,-0.70196 -5.09016,-1.50544 z M 51.625596,439.10983 c -0.71695,-1.71673 -1.60743,-4.74201 -1.97873,-6.72285 l -0.67507,-3.60153 0.60006,0 c 0.3301,0 1.41997,0.512 2.42186,1.1377 l 1.8218,1.1377 10.79987,-3.25492 10.79987,-3.25482 2.9593,-1.99428 2.95921,-1.99429 0.88319,-2.51117 0.88319,-2.51127 -2.31113,-4.65481 -2.31112,-4.6548 -3.0224,-0.83815 -3.0224,-0.83814 -10.9035,3.17635 -10.9035,3.17645 -2.78268,2.76434 -2.78268,2.76424 -0.77169,-1.24853 c -0.4244,-0.68679 -1.05184,-2.90725 -1.39432,-4.93447 l -0.62273,-3.68595 0.59152,-0.59151 0.59161,-0.59161 1.13645,1.13654 1.13645,1.13645 1.96883,-0.0106 c 1.08286,-0.01 6.25302,-1.3026 11.48925,-2.88122 l 9.52032,-2.87028 3.92538,0 3.92528,0 2.95815,1.80384 2.95805,1.80384 1.79125,3.71495 1.79116,3.71485 0.0528,5.59408 0.0528,5.59408 -3.45026,3.16397 -3.45027,3.16406 -11.77093,3.67394 -11.77094,3.67394 -0.8418,2.21422 c -1.12473,2.95824 -1.70462,2.79641 -3.25136,-0.9072 z m 570.993304,-5.39058 -0.9575,-1.78914 -2.6778,-1.06749 c -1.4728,-0.5871 -6.1353,-1.98852 -10.3611,-3.11431 l -7.68326,-2.04682 -3.6957,-2.04922 -3.6956,-2.04922 -1.3465,-2.60376 -1.3464,-2.60376 0,-4.16595 0,-4.16606 2.1609,-4.22905 2.1609,-4.22896 2.6043,-1.897 2.6044,-1.89699 4.1185,0 4.11846,0 10.4812,3.12007 10.4812,3.12017 2.3683,-1.07911 c 1.3026,-0.59344 2.5541,-0.89328 2.7812,-0.66614 0.5551,0.55502 -2.5789,11.43297 -3.613,12.5408 l -0.8184,0.87666 -0.9539,-2.50906 -0.9539,-2.50897 -4.1239,-1.09659 c -2.2682,-0.60314 -7.7378,-2.13758 -12.1547,-3.40983 -4.417,-1.27216 -8.78856,-2.31314 -9.71466,-2.31314 l -1.6838,0 -2.5075,1.97239 -2.5074,1.97229 -1.1206,3.7404 -1.1207,3.7403 1.2328,2.9763 1.2328,2.97621 2.5059,1.28963 c 1.3782,0.70926 7.392,2.67886 13.36386,4.37696 l 10.8581,3.08742 1.7028,-1.54107 c 3.2446,-2.93625 3.8436,-1.24411 1.8798,5.31047 l -1.1124,3.71294 -0.7746,0 c -0.4261,0 -1.2055,-0.80511 -1.7321,-1.78905 z M 39.322496,392.60232 c -0.80165,-1.37636 -1.83131,-11.83164 -1.83131,-18.59521 l 0,-6.50772 1.88452,-4.26017 1.88441,-4.26027 2.97303,-2.11693 2.97304,-2.11702 5.16151,-1.08267 5.16152,-1.08257 4.39521,1.23057 4.3952,1.23057 3.0272,2.95959 c 1.66487,1.6277 3.65618,4.17614 4.42517,5.66304 l 1.39797,2.70355 1.57104,11.04362 1.57093,11.04362 -0.70935,0.70936 -0.70936,0.70935 -0.93601,-1.67274 -0.93611,-1.67274 -3.55379,0.01 c -1.95462,0 -8.91508,0.64049 -15.46774,1.41314 l -11.91394,1.40479 -2.15074,2.0205 -2.15083,2.0205 -0.46157,-0.79252 z m 19.46706,-11.82693 c 5.54635,-0.58316 11.05668,-1.26438 12.24519,-1.51399 l 2.16091,-0.45369 0,-3.38141 0,-3.3814 -1.95951,-3.84105 -1.95952,-3.84095 -3.08262,-1.87961 -3.08262,-1.87952 -5.21904,0 -5.21914,0 -3.96802,1.92091 -3.96811,1.92091 -2.09762,3.73214 -2.09763,3.73224 0,4.75132 0,4.75133 0.72031,0.72309 0.7203,0.72318 3.36143,-0.50805 c 1.84878,-0.27948 7.89934,-0.98519 13.44569,-1.56825 z m 539.748684,-1.43274 0,-4.30368 9.69586,-6.29191 9.6958,-6.29191 -1.1698,-1.4095 -1.1698,-1.40949 -6.0074,0 -6.00746,0 -1.1868,1.43005 -1.1868,1.43004 -0.8275,-0.51142 -0.8275,-0.51141 0.5181,-4.52016 c 0.285,-2.48611 0.739,-5.58995 1.009,-6.89754 l 0.4908,-2.37749 1.6687,2.2122 1.6687,2.2122 15.11106,1.47355 15.1112,1.47356 1.711,-1.54837 c 0.941,-0.85169 2.0648,-1.54846 2.4973,-1.54846 l 0.7864,0 -0.6445,8.38502 c -0.3545,4.61168 -1.0661,9.95039 -1.5813,11.86371 l -0.9367,3.47869 -2.3562,2.54239 -2.3562,2.54239 -4.2368,0 -4.2367,0 -2.532,-2.53192 c -1.3926,-1.39259 -2.5386,-3.01328 -2.5466,-3.60153 -0.01,-0.58825 -0.4161,-1.70424 -0.9067,-2.47986 l -0.8919,-1.41026 -8.2172,5.58178 -8.21726,5.58179 0,0.87061 c 0,0.47886 -0.4322,0.87061 -0.9604,0.87061 l -0.9604,0 0,-4.30368 z m 34.15436,-7.50932 2.5681,-2.20903 0.1266,-3.77988 0.1266,-3.77997 -6.2427,-0.72194 c -3.4334,-0.39712 -6.7828,-0.52486 -7.4431,-0.28389 l -1.2005,0.43804 0,3.46553 0,3.46544 2.8073,2.80727 2.8073,2.80736 1.9412,0 1.9411,0 2.5681,-2.20893 z m -560.953784,-28.45619 -1.90458,-1.87385 -15.10326,-0.22713 -15.10336,-0.22723 -1.92389,1.74112 -1.92388,1.74112 -0.62552,-1.6302 -0.62551,-1.63009 0.63637,-5.41439 c 0.34997,-2.97784 0.82767,-5.60571 1.06163,-5.83966 0.23395,-0.23396 1.21213,0.54618 2.17369,1.73363 l 1.74823,2.15899 14.63131,0.51862 14.63123,0.51862 2.20355,-2.07015 2.20356,-2.07016 0.64904,0.64904 0.64905,0.64914 -0.0672,4.88204 c -0.0375,2.6851 -0.36851,5.64306 -0.73654,6.57321 l -0.66902,1.69118 -1.90458,-1.87385 z m 534.014324,-0.45196 -3.8298,-1.11139 -0.6768,-3.81425 c -0.3722,-2.09772 -0.7017,-9.1837 -0.7321,-15.74654 l -0.055,-11.93239 2.3777,2.23372 2.3777,2.23381 15.08896,-0.5507 15.089,-0.55079 1.6818,-2.22968 1.6819,-2.22959 0.4625,1.43427 c 0.2545,0.78898 0.6752,7.32868 0.9351,14.53278 l 0.4725,13.09851 -1.0676,1.06749 -1.0675,1.06759 -3.1694,0 -3.1693,0 0,-0.84996 c 0,-0.46743 1.0805,-1.55787 2.401,-2.4231 l 2.401,-1.57325 0,-6.5831 0,-6.58311 -1.2812,-1.06337 -1.2813,-1.06336 -5.6817,0.73126 -5.6817,0.73115 0.2196,5.25669 0.2196,5.2567 1.9413,1.59456 c 1.0678,0.87704 1.9414,2.06555 1.9414,2.64112 l 0,1.04655 -5.7625,0 -5.7624,0 0,-0.74691 c 0,-0.41086 0.8855,-1.50524 1.9678,-2.43194 l 1.9678,-1.68484 -0.2871,-5.49151 -0.2871,-5.49151 -7.203,0 -7.20306,0 -0.2839,7.04833 -0.2839,7.04843 3.53726,3.33606 3.5372,3.33607 -0.8523,0.78379 -0.8524,0.78389 -3.82976,-1.11148 z M 36.116656,313.99225 c 0.3686,-3.59788 0.92871,-6.95978 1.2445,-7.47091 l 0.57432,-0.92919 1.54328,2.04403 1.54327,2.04413 10.9837,1.44801 c 6.04096,0.79636 12.2328,1.4479 13.75965,1.4479 l 2.77606,0 2.80736,-2.80736 2.80727,-2.80727 0,-3.97868 0,-3.97867 -1.03762,-1.93897 -1.03772,-1.93897 -3.19883,-1.33659 -3.19892,-1.33651 -11.10202,-1.15729 -11.10201,-1.15719 -1.78425,1.61464 c -0.98134,0.88808 -2.11491,1.61473 -2.51905,1.61473 l -0.7348,0 0.66805,-5.04214 c 0.36746,-2.77317 1.01631,-5.41266 1.44177,-5.86549 l 0.7737,-0.82345 1.02264,1.91092 1.02274,1.91092 1.6906,0.64875 c 0.92977,0.3568 6.62864,1.29636 12.66412,2.08783 l 10.9737,1.43917 2.81313,1.45473 2.81313,1.45473 1.92946,4.36188 1.92945,4.36188 -0.66594,4.44102 c -0.3663,2.4426 -1.29338,5.65439 -2.06027,7.13736 l -1.39432,2.69624 -3.07464,1.87472 -3.07474,1.87471 -3.84163,-0.0307 c -2.1129,-0.0173 -8.16346,-0.62609 -13.4457,-1.3535 l -9.60407,-1.32258 -2.78777,1.9745 -2.78777,1.9746 0.67017,-6.54172 z m 583.377144,-13.83149 -2.3532,-1.85109 -1.5483,-3.67125 c -0.8515,-2.01926 -1.8182,-4.91671 -2.1481,-6.43876 l -0.5999,-2.76751 -5.4723,0.61783 -5.47236,0.61773 -2.0399,2.49389 -2.0399,2.49389 -0.4919,-0.82441 c -0.2706,-0.45341 -1.0427,-3.31206 -1.7158,-6.35261 l -1.2238,-5.5283 0.5408,-0.5408 0.5408,-0.5409 1.9592,1.22355 1.9591,1.22347 7.4984,-1.24133 c 4.12406,-0.68275 10.90436,-2.02598 15.06746,-2.98485 l 7.5691,-1.74352 0.8188,-1.29338 c 0.4504,-0.71137 0.9828,-1.72566 1.1832,-2.25388 l 0.3643,-0.96041 0.5858,0.53437 c 0.3221,0.29389 1.2457,3.67154 2.0523,7.50596 l 1.4665,6.9716 0,4.78695 0,4.78686 -1.4506,2.80506 -1.4505,2.80506 -1.8478,0.98893 -1.8477,0.98884 -3.7752,0 -3.7753,0 -2.3532,-1.85099 z m 11.1929,-7.78122 1.9023,-1.90237 0,-3.77853 0,-3.77863 -0.7284,-0.72837 -0.7283,-0.72837 -6.3572,1.089 -6.3571,1.08891 -1.216,1.26198 -1.216,1.26188 1.4141,3.47878 1.4142,3.47869 2.1071,1.05539 2.1072,1.05539 2.8779,-0.47569 2.8779,-0.47578 1.9023,-1.90228 z m -553.056264,-13.7899 -0.57557,-2.29326 -4.09047,-1.66535 c -7.77402,-3.16492 -23.20295,-8.15433 -25.21606,-8.15433 l -2.02031,0 -1.15249,1.15248 -1.15249,1.15249 0,-2.14372 c 0,-1.17909 0.5992,-3.57771 1.33151,-5.33036 l 1.33141,-3.18662 10.43357,-1.128 c 5.73843,-0.62043 12.27026,-1.38251 14.51521,-1.69358 l 4.08173,-0.56568 -0.025,-1.09141 -0.025,-1.0915 -10.05921,-9.10524 -10.0592,-9.10532 0,-1.73008 c 0,-0.95167 0.62628,-3.22899 1.39163,-5.06077 l 1.39162,-3.33059 1.00939,0 1.00939,0 0,1.4068 0,1.4068 1.68071,0.89328 c 0.92439,0.49125 7.51519,2.93443 14.64621,5.42918 l 12.96549,4.5359 2.64112,-0.99008 2.64112,-0.99018 -7.7e-4,1.59735 c -8.7e-4,1.79183 -3.0735,10.27395 -4.08999,11.29035 l -0.6575,0.65759 -0.92554,-2.43425 -0.92545,-2.43415 -10.62719,-3.54121 c -5.84494,-1.94761 -11.07368,-3.39225 -11.61938,-3.21035 l -0.9922,0.33067 10.59723,9.90237 10.59712,9.90227 0,1.31269 0,1.31278 -4.08172,0.50642 c -2.24496,0.27861 -8.51161,1.00189 -13.9259,1.60753 l -9.84417,1.10101 0,0.7834 0,0.78331 5.04213,1.88384 c 2.77318,1.03618 7.34606,2.56688 10.16197,3.40176 l 5.11974,1.51783 2.32332,-1.52235 2.32341,-1.52234 0,1.38001 c 0,0.75901 -0.6889,3.40176 -1.53088,5.87289 l -1.53089,4.49288 -0.76602,0 -0.76602,0 -0.57558,-2.29316 z m 510.746704,-28.33009 -2.9581,-1.80383 -1.6039,-3.37977 -1.6038,-3.37986 0,-2.90763 0,-2.90754 -1.536,-1.53598 -1.536,-1.53598 1.2317,-1.48402 c 0.6774,-0.81625 2.8577,-2.31362 4.8451,-3.32752 l 3.6135,-1.8435 0.5484,0.88722 0.5483,0.88723 -2.4169,3.56147 -2.4169,3.56148 0,2.81034 0,2.81035 0.9824,1.83562 c 0.5404,1.00968 1.8761,2.31401 2.9684,2.89851 l 1.9859,1.06288 2.7524,-1.1401 2.7523,-1.14 0.9505,-3.02211 c 0.5228,-1.66218 1.4708,-5.76715 2.1067,-9.12224 l 1.1563,-6.10021 2.3147,-2.75089 2.3148,-2.75099 3.18676,-0.59786 3.1869,-0.59785 2.9888,1.54558 2.9889,1.54559 1.4011,2.14093 1.4011,2.14094 0.6549,4.10305 0.6549,4.10305 0.8342,0.51555 c 0.4589,0.28361 0.8343,1.12963 0.8343,1.88 l 0,1.36445 -3.9141,1.99678 -3.914,1.99678 -1.4146,-0.29657 -1.4146,-0.29658 2.4474,-3.30793 2.4475,-3.30783 0,-3.50625 0,-3.50616 -1.7564,-1.58947 -1.7563,-1.58948 -2.0632,0 -2.0631,0 -1.3748,2.16092 -1.3748,2.16091 -1.09156,5.76244 c -0.6004,3.16935 -1.7207,7.50616 -2.4895,9.6374 l -1.3978,3.87495 -2.7888,1.64739 -2.7889,1.64738 -2.733,0 -2.733,0 -2.9581,-1.80383 z m -16.2501,-31.8032 -3.3855,-6.72284 1.2606,0 c 0.6933,0 1.7893,0.5288 2.4356,1.17505 l 1.175,1.17497 14.1434,-7.22783 14.1435,-7.22774 0.3039,-2.59089 0.3039,-2.59089 0.7918,0 0.7919,0 3.20566,6.18301 3.2057,6.183 -0.6064,0.6064 -0.6064,0.6064 -1.8368,-1.14711 -1.83676,-1.14711 -12.9029,6.45912 c -7.0966,3.55255 -13.6654,7.13659 -14.5972,7.96456 l -1.6943,1.50544 0.5585,1.75966 0.5585,1.75965 -1.0131,0 -1.013,0 -3.3856,-6.72285 z m -478.536564,-9.5839 -3.13515,-0.74364 -3.77469,-2.49792 -3.77469,-2.49802 -2.61413,-4.4607 -2.61423,-4.46081 0.01,-5.40488 0.01,-5.40497 1.9795,-3.84163 1.9794,-3.84163 2.59636,-2.40102 c 1.42803,-1.32056 2.97198,-3.37343 3.43115,-4.56193 l 0.83469,-2.16091 1.48344,0 c 0.81596,0 3.21957,1.09592 5.3415,2.4354 l 3.85795,2.43549 -0.5723,0.92593 -0.57231,0.92602 -4.13561,0 -4.1357,0 -2.54969,2.00562 -2.54969,2.00562 -1.52695,2.95277 -1.52695,2.95267 0.48827,3.64033 0.48827,3.64042 2.00744,2.81908 2.00735,2.81909 4.9776,3.19412 4.97759,3.19412 4.920364,0 4.92036,0 2.95997,-2.10771 2.96007,-2.10771 1.62203,-3.41837 1.62213,-3.41828 -0.31588,-1.64057 -0.31597,-1.64057 -5.19014,-3.10144 -5.19013,-3.10144 -2.39824,0.60198 -2.398134,0.60189 0.579894,-1.5113 c 1.08545,-2.82705 5.51975,-9.34072 6.35943,-9.34072 l 0.83632,0 0.47147,1.80306 0.47156,1.80307 5.98871,4.06684 5.98871,4.06685 -0.60985,3.81358 -0.60977,3.81349 -2.33859,4.61495 -2.33859,4.61494 -3.93623,3.3693 -3.93622,3.3693 -4.21071,1.06019 c -4.650874,1.17112 -4.474924,1.16872 -8.896354,0.12005 z M 560.02084,196.36556 c -3.8239,-5.17295 -5.6613,-8.03928 -5.6613,-8.8319 l 0,-0.72271 2.7874,0.55752 2.7874,0.55742 12.5791,-8.23232 12.5791,-8.23242 0,-1.33276 0,-1.33266 -2.4562,-2.65033 -2.4562,-2.65025 -2.7888,0.55781 -2.7888,0.55771 -0.5287,-0.85554 -0.5288,-0.85553 2.8007,-1.99418 2.8007,-1.99429 1.7725,0.0336 1.7726,0.0336 8.3463,13.00218 8.3463,13.00208 -0.4793,1.24911 c -0.2636,0.68707 -1.9495,2.04086 -3.7465,3.00857 l -3.2671,1.75956 -0.5949,-0.59488 -0.5948,-0.59487 1.5611,-2.38268 1.5612,-2.38267 -0.6104,-2.43194 -0.6104,-2.43204 -1.7783,-1.60945 -1.7784,-1.60935 -12.7815,8.50161 -12.7814,8.50162 -0.4894,2.87978 -0.4894,2.87988 -2.4838,-3.36008 z m -14.7103,-20.33998 c -1.89,-2.20797 -3.4363,-4.36889 -3.4363,-4.80203 l 0,-0.78754 1.8987,0 1.8987,0 1.3627,-2.16091 c 0.7495,-1.18851 1.6315,-3.06572 1.96,-4.17153 l 0.5972,-2.01071 -4.0285,-4.95224 -4.0284,-4.95234 -2.186,0 c -2.5704,0 -7.0263,1.87894 -7.1985,3.03537 -0.066,0.44351 -0.1741,1.20243 -0.2401,1.68667 -0.066,0.48423 -0.3867,1.14701 -0.7126,1.47288 l -0.5924,0.59247 -3.0302,-3.45122 -3.0302,-3.45113 0.5023,-0.81279 0.5023,-0.8127 1.6798,0.43247 1.6797,0.43248 17.9028,-5.80489 c 9.8466,-3.19269 18.3822,-5.8049 18.9681,-5.8049 l 1.0652,0 0,1.25967 c 0,0.69284 -3.6736,9.10149 -8.1635,18.68587 -4.4899,9.58448 -8.1634,18.09339 -8.1634,18.90888 l 0,1.48267 -0.8856,0 c -0.4871,0 -2.4319,-1.80652 -4.3218,-4.0145 z m 9.7266,-23.3302 2.5774,-5.25544 -0.6787,-0.67872 -0.6788,-0.67882 -5.2379,1.65113 c -2.8808,0.90807 -5.4781,2.03991 -5.7719,2.51521 l -0.5341,0.86418 3.0019,3.41885 c 1.651,1.88048 3.394,3.41895 3.8732,3.41895 l 0.8713,0 2.5776,-5.25534 z M 126.8679,178.41603 c -0.0605,-0.42728 -0.0384,-1.50745 0.0509,-2.40025 l 0.16125,-1.62328 -11.8156,-10.16725 -11.81569,-10.16725 -2.74244,0.50201 -2.742454,0.502 0.58931,-1.5355 c 0.32404,-0.84458 4.364474,-6.02905 8.978754,-11.52113 l 8.38953,-9.98564 1.51966,0 1.51955,0 2.09705,2.23218 2.09695,2.23217 -0.60236,0.60237 -0.60237,0.60237 -2.60088,-0.52016 -2.60097,-0.52025 -4.48875,4.99258 -4.48875,4.99258 0,1.22106 0,1.22106 4.24336,3.47715 c 2.33389,1.91237 4.63003,3.47706 5.10264,3.47706 1.05511,0 5.4021,-4.60169 6.75656,-7.15244 l 0.99316,-1.87029 -0.82787,-2.17744 -0.82787,-2.17753 0.79522,-0.49144 0.79521,-0.49154 4.45034,3.46717 c 2.44769,1.90698 4.45023,3.84163 4.45023,4.29916 l 0,0.83191 -3.28065,0 -3.28075,0 -2.9619,3.73973 -2.96199,3.73973 1e-4,1.3024 0,1.30241 3.55581,2.88122 c 1.95568,1.58467 4.36361,3.46765 5.351,4.18449 l 1.79539,1.30318 2.42349,-2.26358 c 1.33295,-1.24507 3.50155,-4.09633 4.81913,-6.33629 l 2.39554,-4.0727 -0.65058,-3.85065 -0.65058,-3.85075 1.01025,0 1.01016,0 2.38786,3.51393 2.38776,3.51403 -0.83747,1.52811 c -1.12224,2.04787 -16.99335,20.90469 -18.24658,21.67917 l -0.98884,0.6111 -0.11054,-0.77697 z m 23.89339,-30.87612 0.4003,-2.72755 -9.27158,-11.19835 -9.27167,-11.19834 -2.81995,0 -2.81994,0 0,-1.25996 0,-1.26005 2.84242,-2.10137 2.84232,-2.10147 1.46462,0 c 0.80559,0 8.00346,1.31922 15.99538,2.93155 l 14.53067,2.93154 0.50431,-0.5043 0.50441,-0.50441 -2.40582,-3.14754 c -1.32325,-1.73104 -4.52534,-5.402 -7.11575,-8.15751 l -4.70984,-5.01007 -2.14209,0.56013 -2.14209,0.5602 0,-0.99759 c 0,-0.54866 1.79125,-2.53079 3.9805,-4.404723 l 3.9805,-3.40713 0.66144,0.40879 0.66143,0.40879 -0.39252,2.683403 -0.39242,2.68341 10.63689,12.7947 c 5.85022,7.0371 10.63679,13.1957 10.63679,13.6858 l 0,0.89107 -2.16091,-0.01 c -1.7297,-0.01 -25.4578,-4.47117 -32.65288,-6.14362 l -1.67975,-0.39051 -0.48251,0.78081 -0.4826,0.78072 7.2867,8.73317 7.28661,8.73308 2.79901,0 2.79901,0 0,0.8609 c 0,0.47349 -1.52762,2.20231 -3.39485,3.84163 l -3.39475,2.98101 -1.24094,0 -1.24084,0 0.40039,-2.72756 z m 361.29925,-6.52769 c -2.6185,-2.44932 -4.7609,-4.85543 -4.7609,-5.34697 l 0,-0.89375 2.031,0.64462 2.031,0.64463 5.1093,-5.40296 c 2.8101,-2.9716 7.5145,-8.14252 10.4543,-11.49098 l 5.3449,-6.08802 0,-1.46376 0,-1.46375 -2.5921,-1.69839 -2.5922,-1.69848 -3.6505,0.97434 -3.6504,0.97442 0,-1.12751 c 0,-0.62014 1.2618,-2.33639 2.804,-3.81397 l 2.8041,-2.68646 0.9504,0.34586 c 0.5227,0.19022 5.9598,4.82229 12.0822,10.29354 l 11.1319,9.9477 0,1.63759 0,1.63759 -2.7077,2.59415 -2.7078,2.59416 -0.5542,-0.55416 -0.5542,-0.55425 0.4922,-3.66952 0.4922,-3.66962 -2.0323,-2.03232 -2.0323,-2.03231 -1.3062,0 -1.3061,0 -9.4984,10.70152 -9.4985,10.70143 0,3.22505 0,3.22504 -0.7614,-5.7e-4 c -0.4188,-3.9e-4 -2.9039,-2.00466 -5.5223,-4.45389 z m -20.1538,-16.34363 c -1.3061,-0.87387 -3.8867,-2.70652 -5.7347,-4.0726 l -3.36,-2.48381 2.8417,-0.4922 2.8416,-0.49212 3.6289,-4.79925 c 1.9959,-2.63958 6.0787,-8.36791 9.0729,-12.729633 l 5.4439,-7.93042 -1.0907,-2.39396 -1.0908,-2.39395 1.18,0 c 0.6489,0 3.668,1.76507 6.709,3.92237 l 5.5291,3.92237 -0.4879,0.7895 -0.488,0.78949 -1.6797,-0.40253 -1.6798,-0.40253 -1.0861,0.7328 c -0.5973,0.40303 -4.8111,6.105083 -9.3639,12.671203 l -8.2779,11.93844 0,1.55528 c 0,0.85543 0.5186,2.0739 1.1525,2.70777 l 1.1524,1.15249 -1.4189,0 c -0.7805,0 -2.4876,-0.71493 -3.7936,-1.58871 z m -306.9653,-4.43131 0.5944,-2.36856 -7.33227,-11.41232 c -4.03284,-6.27675 -7.98329,-12.168623 -8.77879,-13.093013 l -1.44647,-1.68071 -2.46565,0 -2.46556,0 1.89412,-1.87559 c 2.26512,-2.24288 22.48812,-15.41173 23.66742,-15.41173 0.4535,0 1.6601,1.37405 2.6814,3.05347 l 1.857,3.05346 -0.4849,0.78464 -0.485,0.78463 -2.688,-1.39003 -2.688,-1.39003 -5.90113,3.49097 -5.90122,3.49096 0,1.33108 c 0,1.36184 5.13827,9.34144 6.59482,10.24166 l 0.80751,0.49905 4.46232,-2.82992 4.4623,-2.82992 0,-2.90236 0,-2.90237 1.2005,0.002 1.2005,0.002 2.6411,4.18072 c 2.4198,3.83019 3.3015,6.38032 2.2062,6.38032 -0.2393,0 -1.5086,-0.48913 -2.8207,-1.08695 l -2.3855,-1.08695 -4.3807,2.76766 -4.3808,2.767663 0,1.45343 0,1.45343 3.387,5.02932 3.3869,5.02926 1.1666,0 c 0.6418,0 3.4079,-1.54356 6.1472,-3.43009 l 4.9805,-3.43019 1.0304,-2.95581 c 0.5671,-1.62608 1.0307,-3.75607 1.0307,-4.733693 l 0,-1.77749 0.8562,0 0.8561,0 1.5257,3.813093 1.5257,3.81309 -0.4744,1.22903 -0.4745,1.22903 -11.2237,7.20306 c -6.173,3.96167 -11.8428,7.35393 -12.5997,7.53823 l -1.3763,0.33518 0.5945,-2.36855 z m 276.6256,-14.57754 -0.5333,-1.38946 1.1228,-17.805993 1.1226,-17.80599 -0.6357,-2.89392 -0.6356,-2.8939 0.7966,0.0225 c 1.5235,0.0429 10.2721,5.26668 10.6147,6.33803 l 0.3448,1.07822 -1.8111,0.4736 -1.811,0.4736 -0.621,5.17103 c -0.3414,2.84407 -0.6246,8.55645 -0.6292,12.69421 l -0.01,7.52319 0.9058,-0.32014 c 0.4981,-0.17608 4.6039,-3.53519 9.1238,-7.46469 l 8.2185,-7.14458 0,-2.69962 c 0,-3.22104 0.011,-3.22283 4.8403,-0.75929 l 3.8033,1.94034 0,0.83677 0,0.83677 -2.3095,0.57966 -2.3096,0.57966 -14.0465,12.00975 c -7.7256,6.605353 -14.2631,12.009703 -14.5277,12.009703 -0.2647,0 -0.7211,-0.62522 -1.0144,-1.38942 z m -245.2708,-2.99553 c 0,-0.29883 0.4219,-1.33148 0.9374,-2.29477 l 0.9374,-1.751453 -6.0485,-13.79203 -6.0485,-13.79203 -2.6665,-1.29818 -2.6666,-1.29816 0.8147,-0.7915 c 0.4482,-0.43531 4.4585,-2.38731 8.912,-4.33776 l 8.0972,-3.54629 4.6625,-0.0703 4.6626,-0.0703 2.3964,2.39647 2.3965,2.39648 0.531,3.3098 0.531,3.3098 -2.4816,3.64419 c -1.3649,2.00421 -2.4817,3.85538 -2.4817,4.11358 0,0.73759 17.4661,9.04929 19.016,9.04929 l 1.3878,0 -1.1099,1.33727 c -0.6103,0.73551 -2.3716,1.85996 -3.9138,2.49878 l -2.8041,1.16149 -9.3073,-4.8998 c -5.119,-2.69488 -9.8934,-4.89977 -10.6097,-4.89977 l -1.3026,0 0.039,1.68071 c 0.022,0.92438 0.9942,3.62553 2.1609,6.00254 l 2.1213,4.32183 2.1609,0.94804 c 1.1885,0.52143 2.161,1.30154 2.161,1.73356 l 0,0.78552 -5.3097,2.348173 c -5.3207,2.35312 -7.1756,2.81966 -7.1756,1.80482 z m 9.3436,-28.021753 1.4327,-2.15393 -0.6609,-2.6481 c -0.3635,-1.45647 -1.3425,-3.40444 -2.1756,-4.32884 l -1.5145,-1.68071 -2.6873,0 c -1.4779,0 -3.7879,0.50155 -5.1333,1.11457 l -2.4463,1.11457 0,1.16436 c 0,1.4141 3.7148,10.06542 5.0336,11.72273 l 0.9472,1.19033 2.8859,-1.67053 c 1.5872,-0.9188 3.5305,-2.6398 4.3186,-3.82445 z m 206.2678,17.50208 c -3.1694,-1.30558 -5.8705,-2.37578 -6.0026,-2.37823 -0.132,-0.003 -0.2401,-0.43663 -0.2401,-0.96485 l 0,-0.96041 1.8033,0 1.8033,0 0.9442,-1.2005 c 0.5194,-0.66028 3.3871,-7.36584 6.3727,-14.90124 l 5.4282,-13.7007 -1.5634,-2.38611 -1.5635,-2.38609 1.0608,0 c 0.5835,0 3.8745,1.1264 7.3135,2.50313 l 6.2527,2.50315 0,0.85828 0,0.85829 -1.7287,0 -1.7286,0 -1.1294,1.12934 c -0.6212,0.62114 -3.6046,7.34582 -6.63,14.94374 l -5.5005,13.81438 1.1556,1.85035 c 2.2282,3.56785 1.6904,3.60497 -6.0474,0.41746 z m -177.7223,-6.4644 c 0.3615,-1.18851 1.82,-10.58325 3.2413,-20.87724 l 2.5841,-18.71631 1.4425,-0.27782 1.4427,-0.27782 12.3031,14.83571 12.3032,14.83569 1.5332,0.58838 1.5334,0.58841 -0.8809,0.84172 c -1.0824,1.03432 -11.1396,4.04302 -11.6865,3.49613 -0.2171,-0.21707 0.085,-1.2896 0.6696,-2.38339 l 1.0643,-1.98869 -3.1944,-3.48574 -3.1945,-3.48573 -5.7154,1.73483 c -3.1435,0.95415 -6.2557,2.137 -6.9159,2.62856 l -1.2005,0.89372 0,4.10149 0,4.10147 1.4406,0.55281 c 0.7923,0.30405 1.4406,0.97825 1.4406,1.49822 l 0,0.9454 -3.6015,1.0002 c -1.9809,0.5501 -3.976,1.00261 -4.4339,1.00554 l -0.8323,0.006 0.6572,-2.16092 z m 15.6288,-19.30196 1.1755,-1.12542 -3.9455,-4.61584 -3.9455,-4.61584 -0.709,0.78357 c -0.3899,0.43097 -0.976,3.2008 -1.3025,6.15517 l -0.5934,5.37161 0.5356,0.53564 0.5356,0.53564 3.5368,-0.94955 c 1.9452,-0.52226 4.0658,-1.456 4.7123,-2.07498 z m 132.6907,17.31398 c -1.9095,-0.71391 -4.7896,-2.2364 -6.4003,-3.38331 l -2.9285,-2.08527 -2.0032,-4.13815 -2.0033,-4.13815 0,-4.14728 0,-4.14728 1.1743,-3.91926 1.1742,-3.91925 3.8679,-4.02162 3.8678,-4.02164 4.312,-1.15329 4.3119,-1.15331 4.0947,0.56124 4.0947,0.56126 3.8003,1.93876 3.8004,1.93876 1.9023,0 c 1.0463,0 2.1166,0.3465 2.3783,0.76999 l 0.4759,0.77 -1.1395,5.13139 -1.1396,5.1314 -0.9604,-0.13895 -0.9604,-0.13894 -1.2357,-3.70736 -1.2358,-3.70736 -2.3059,-2.16631 -2.306,-2.16633 -4.3178,-0.48668 -4.3179,-0.4867 -3.3575,2.07501 -3.3574,2.07501 -2.4688,4.95413 -2.4688,4.95413 0,5.33377 0,5.33377 1.8748,3.0747 1.8747,3.07469 3.0778,1.59153 3.0776,1.59154 5.3684,-0.45099 c 2.9526,-0.24804 6.1247,-0.77339 7.0491,-1.16745 l 1.6807,-0.71648 0,1.04103 0,1.04101 -2.3267,1.52447 -2.3266,1.52447 -5.1165,0.43365 -5.1165,0.43366 -3.4719,-1.29801 z m -106.4948,-6.9282 c 0,-0.42722 0.7169,-1.56881 1.5929,-2.53688 l 1.593,-1.76012 -1.1355,-15.12262 -1.1354,-15.12262 -1.8981,-1.31765 c -1.0439,-0.72471 -1.8981,-1.64677 -1.8981,-2.04904 l 0,-0.73138 6.2155,-0.6656 6.2153,-0.66562 1.0599,0.6551 1.06,0.65508 -2.0988,1.95534 -2.0988,1.95535 0.5634,4.42604 c 0.31,2.43432 0.8534,9.07191 1.2076,14.7502 l 0.6441,10.32417 1.256,1.04244 1.2562,1.04244 6.5258,-1.00287 6.5258,-1.00288 3.1071,-3.64088 3.107,-3.64087 0.014,3.0588 c 0.01,1.68234 -0.3847,4.10828 -0.8724,5.39098 l -0.8867,2.33218 -6.5565,0.59393 c -3.606,0.32666 -10.338,0.8774 -14.9599,1.22385 l -8.4036,0.62989 0,-0.77676 z m 50.4214,-1.505 c -7.3952,-0.31734 -13.6291,-0.64149 -13.8532,-0.72031 -0.2241,-0.0789 0.4761,-1.11571 1.5559,-2.30421 l 1.9634,-2.16091 0.5846,-15.0258 0.5845,-15.02579 -1.4202,-1.17862 c -0.781,-0.64825 -1.4201,-1.55789 -1.4201,-2.02143 l 0,-0.84281 13.8083,0 13.8084,0 1.1474,1.38253 1.1474,1.38253 -0.3096,2.62513 -0.3095,2.62513 -1.0349,0.33904 -1.0351,0.33904 -1.0817,-2.37408 -1.0817,-2.37407 -3.1871,-0.59792 c -1.7529,-0.32884 -5.1222,-0.46021 -7.4874,-0.29191 l -4.3002,0.30601 0,6.72285 0,6.72284 5.4699,0.28646 5.4698,0.28647 1.6036,-2.44738 c 0.8819,-1.34607 1.986,-2.44738 2.4535,-2.44738 l 0.8499,0 0,6.24265 0,6.24264 -1.0466,0 c -0.5756,0 -1.7915,-0.92008 -2.7021,-2.0446 l -1.6556,-2.04459 -5.083,-0.4884 -5.0829,-0.48841 -0.8439,1.33249 -0.8438,1.33249 -0.014,6.02631 -0.014,6.02631 2.6412,1.02649 2.6411,1.0265 5.1795,-0.51485 5.1795,-0.51485 3.0471,-2.95332 3.0471,-2.95332 0.573,0.573 0.5729,0.573 -1.4136,4.14887 -1.4137,4.14887 -1.6235,0.33716 c -0.8929,0.18543 -7.674,0.0775 -15.0691,-0.23985 z"
     style="fill:#3a424b;fill-opacity:0.09163346" />
</svg>
