<?xml version="1.0" encoding="UTF-8" standalone="no"?>
<!-- Created with Inkscape (http://www.inkscape.org/) -->

<svg
   xmlns:dc="http://purl.org/dc/elements/1.1/"
   xmlns:cc="http://creativecommons.org/ns#"
   xmlns:rdf="http://www.w3.org/1999/02/22-rdf-syntax-ns#"
   xmlns:svg="http://www.w3.org/2000/svg"
   xmlns="http://www.w3.org/2000/svg"
   xmlns:sodipodi="http://sodipodi.sourceforge.net/DTD/sodipodi-0.dtd"
   xmlns:inkscape="http://www.inkscape.org/namespaces/inkscape"
   width="744.09448819"
   height="1052.3622047"
   id="svg2"
   version="1.1"
   inkscape:version="0.48.1 r9760"
   sodipodi:docname="chocolate.svg">
  <defs
     id="defs4" />
  <sodipodi:namedview
     id="base"
     pagecolor="#ffffff"
     bordercolor="#666666"
     borderopacity="1.0"
     inkscape:pageopacity="0.0"
     inkscape:pageshadow="2"
     inkscape:zoom="0.49497475"
     inkscape:cx="276.94927"
     inkscape:cy="587.31542"
     inkscape:document-units="px"
     inkscape:current-layer="layer1"
     showgrid="false"
     inkscape:window-width="1366"
     inkscape:window-height="744"
     inkscape:window-x="0"
     inkscape:window-y="24"
     inkscape:window-maximized="1" />
  <metadata
     id="metadata7">
    <rdf:RDF>
      <cc:Work
         rdf:about="">
        <dc:format>image/svg+xml</dc:format>
        <dc:type
           rdf:resource="http://purl.org/dc/dcmitype/StillImage" />
        <dc:title></dc:title>
      </cc:Work>
    </rdf:RDF>
  </metadata>
  <g
     inkscape:label="Livello 1"
     inkscape:groupmode="layer"
     id="layer1">
    <g
       id="g3079"
       inkscape:export-filename="/home/syn/workspace/medea/resources/textures/choco_n.png"
       inkscape:export-xdpi="150"
       inkscape:export-ydpi="150">
      <path
         transform="matrix(1.60647,0,0,1.60647,-135.67675,-15.074185)"
         d="m 236.25,42.71875 c -7.29976,1.42e-4 -13.24886,2.142046 -19.3125,5 A 18.184563,18.184563 0 0 0 214,49.4375 c -2.85253,-1.627363 -6.20263,-2.843623 -9.53125,-2.84375 a 18.184563,18.184563 0 0 0 -1,0.03125 c -3.05375,0.166671 -7.56619,0.741659 -12.3125,4.625 -3.69336,-2.39846 -8.13769,-3.781106 -11.375,-3.78125 -2.33182,1.01e-4 -5.10868,0.672353 -7.78125,1.8125 -4.56276,-2.020431 -9.03801,-2.656207 -13.15625,-2.65625 -5.16738,1.37e-4 -9.47931,1.144468 -13.625,2.625 a 18.184563,18.184563 0 0 0 -1.5,0.625 C 128.77327,56.780931 120.375,74.054535 120.375,90.40625 l 0,0.875 c 0,7.996241 1.43825,15.93507 4.25,23.40625 a 18.184563,18.184563 0 0 0 0.3125,0.75 c 5.9053,13.7952 21.66418,23.59375 36.5625,23.59375 3.28694,0 6.86284,-0.67525 10.375,-1.84375 2.54308,1.19149 5.40064,2.03125 8.125,2.03125 l 0.875,0 c 3.77999,0 9.14756,-1.68689 13.03125,-4.9375 3.53917,2.71273 8.44306,4.71875 12.5625,4.71875 3.42169,0 7.711,-1.30512 11.15625,-3.46875 4.97097,2.74009 10.4703,4.40625 16.34375,4.40625 l 0.875,0 c 7.69696,0 14.36206,-2.80015 20,-6.4375 a 18.184563,18.184563 0 0 0 1.34375,-0.9375 c 1.16281,-0.907 2.23613,-1.90465 3.3125,-2.90625 7.24285,5.79874 16.43763,9.375 25.375,9.375 5.85144,0 12.57688,-2.00365 18.28125,-5.59375 5.78139,3.9499 12.38924,6.5 19.59375,6.5 l 0.875,0 c 7.36818,0 13.76782,-2.59012 19.25,-6 3.69274,2.52728 7.97849,4.28125 11.59375,4.28125 a 18.184563,18.184563 0 0 0 2.75,-0.21875 l 0.96875,-0.15625 c 4.19786,0.40838 8.67739,0.74733 14.96875,1 a 18.184563,18.184563 0 0 0 0.71875,0.0312 l 0.21875,0 c 1.58428,0 3.19946,-0.0772 4.90625,-0.28125 0.13367,0.0463 0.30763,0.14421 0.4375,0.1875 a 18.184563,18.184563 0 0 0 5.5,0.9375 18.184563,18.184563 0 0 0 0.25,0 l 0.21875,0 0,-0.0312 c 5.27234,-0.0128 10.09837,-2.45689 12.71875,-4.71875 2.6999,-2.3305 3.9124,-4.39327 4.84375,-6.09375 1.70445,-3.11204 2.37737,-5.44927 3,-7.90625 0.20194,1.13357 0.26268,2.14657 0.6875,3.5 0.74745,2.38129 1.96571,5.42327 5.0625,8.59375 3.09679,3.17048 8.64584,5.76438 13.40625,5.9375 a 18.184563,18.184563 0 0 0 0.0625,0.0312 c 3.0605,0.0987 6.43921,-1.22196 9.5625,-3 3.26397,2.697 8.27909,4.78125 12.65625,4.78125 a 18.184563,18.184563 0 0 0 2.53125,-0.1875 c 2.75348,-0.3855 6.49361,-1.1428 10.65625,-4.5625 0.8727,-0.71694 1.65129,-1.6557 2.40625,-2.625 4.27538,3.35279 10.03835,5.59375 14.8125,5.59375 a 18.184563,18.184563 0 0 0 1.375,-0.0625 l 4.90625,-0.375 4.53125,0 c 4.21753,0 7.75876,-0.0475 12.5,-1.375 2.37062,-0.66375 5.26933,-1.58341 8.75,-4.53125 3.48067,-2.94784 7.06241,-9.32361 7.0625,-15.125 -1.3e-4,-4.40823 -1.98204,-9.85159 -5.03125,-13.3125 -1.79776,-2.04049 -3.64043,-3.34476 -5.4375,-4.34375 0.70062,-1.958222 1.21872,-3.975114 1.21875,-5.96875 -1.8e-4,-6.263605 -2.68992,-10.587041 -5,-13.34375 3.05838,-2.035859 5.53418,-4.556641 6.8125,-6.8125 a 18.184563,18.184563 0 0 0 2.375,-8.96875 l 0,-0.875 c -10e-5,-4.414083 -2.2886,-11.454603 -7.25,-15.53125 -4.60342,-3.782501 -9.23982,-4.535516 -12.5625,-4.625 L 491.25,43.75 472.65625,42.90625 a 18.184563,18.184563 0 0 0 -0.8125,-0.03125 c -2.95833,9.9e-5 -7.0668,0.160664 -12.125,3.5625 -1.32054,0.888118 -2.53696,2.070808 -3.625,3.4375 l -11.78125,0.28125 -0.40625,0 -0.9375,0 c -2.79173,4.1e-5 -5.76365,-0.164991 -8.9375,-0.53125 a 18.184563,18.184563 0 0 0 -5.65625,0.21875 c -2.4378,0.487655 -5.76236,1.419681 -9.375,4.40625 -3.46667,-1.436239 -7.07661,-2.499841 -10.75,-2.59375 a 18.184563,18.184563 0 0 0 -0.1875,0 18.184563,18.184563 0 0 0 -0.28125,0 l -0.21875,0 0,0.03125 c -9.3005,-0.09622 -19.33953,4.333655 -25.5,11.1875 -4.39386,4.888399 -7.22403,10.449 -9.28125,16.46875 -0.0348,-4.659651 -0.12968,-9.375648 -0.0312,-13.96875 a 18.184563,18.184563 0 0 0 -1.3125,-7.125 c -0.85952,-2.148704 -2.02798,-4.715489 -4.90625,-7.59375 -2.87827,-2.878261 -8.41201,-5.843351 -13.96875,-5.84375 a 18.184563,18.184563 0 0 0 -2.15625,0.125 c -2.2072,0.264948 -5.09253,0.837706 -8.28125,2.71875 -4.74942,-2.969111 -10.18584,-4.831275 -16.34375,-4.9375 a 18.184563,18.184563 0 0 0 -0.3125,0 l -0.4375,0 c -7.29976,1.42e-4 -13.24886,2.142046 -19.3125,5 a 18.184563,18.184563 0 0 0 -4.125,2.6875 c -0.56117,0.485012 -1.05744,1.023295 -1.59375,1.53125 -0.89088,-0.655686 -1.78145,-1.310837 -2.71875,-1.8125 -5.22107,-2.794419 -10.37139,-3.499951 -15.0625,-3.5 -5.16738,1.37e-4 -9.47931,1.144468 -13.625,2.625 a 18.184563,18.184563 0 0 0 -1.5,0.625 c -2.27747,1.052363 -4.34591,2.412105 -6.3125,3.90625 C 254.51149,47.386869 246.68096,42.885748 237,42.71875 a 18.184563,18.184563 0 0 0 -0.3125,0 l -0.4375,0 z m -0.8125,45.21875 c 0.15056,0.911606 0.40624,1.652889 0.40625,2.90625 -2e-5,2.381609 -0.40469,4.111335 -1.125,5.78125 0.0286,-0.612636 0,-0.51492 0,-1.59375 l 0,-1.75 c 0,-1.488609 0.21282,-3.276991 0.71875,-5.34375 z m 88.78125,0 c 0.15056,0.911606 0.40624,1.652889 0.40625,2.90625 -2e-5,2.381609 -0.40469,4.111335 -1.125,5.78125 0.0286,-0.612636 0,-0.51492 0,-1.59375 l 0,-1.75 c 0,-1.488609 0.21282,-3.276991 0.71875,-5.34375 z"
         id="path3010"
         style="font-size:90.37112427px;font-style:normal;font-variant:normal;font-weight:normal;font-stretch:normal;line-height:125%;letter-spacing:0px;word-spacing:0px;fill:#ffeeaa;fill-opacity:1;stroke:#ffcc00;stroke-width:2.25927806;font-family:Burst My Bubble;-inkscape-font-specification:Burst My Bubble"
         inkscape:original="M 236.25 60.90625 C 233.16112 60.90631 229.30606 61.9794 224.6875 64.15625 C 216.45054 71.275379 212.34375 81.199682 212.34375 93.9375 L 212.34375 94.8125 C 212.34375 98.430897 212.91704 102.17938 214.09375 106.0625 C 219.30067 116.50578 225.93771 121.75 233.96875 121.75 L 234.84375 121.75 C 237.962 121.75 241.35218 120.57216 245 118.21875 C 253.82526 111.33502 258.2187 102.34232 258.21875 91.28125 C 258.2187 86.868631 257.25585 82.188545 255.34375 77.1875 C 249.72493 66.4501 243.51237 61.02398 236.6875 60.90625 L 236.25 60.90625 z M 325.03125 60.90625 C 321.94237 60.90631 318.08731 61.9794 313.46875 64.15625 C 305.23179 71.275379 301.125 81.199682 301.125 93.9375 L 301.125 94.8125 C 301.125 98.430897 301.69829 102.17938 302.875 106.0625 C 308.08192 116.50578 314.71896 121.75 322.75 121.75 L 323.625 121.75 C 326.74325 121.75 330.13343 120.57216 333.78125 118.21875 C 342.60651 111.33502 346.99995 102.34232 347 91.28125 C 346.99995 86.868631 346.0371 82.188545 344.125 77.1875 C 338.50618 66.4501 332.29362 61.02398 325.46875 60.90625 L 325.03125 60.90625 z M 471.84375 61.0625 C 470.07869 61.062559 469.1875 61.667102 469.1875 62.84375 L 469.40625 64.375 L 468.96875 70.78125 L 468.96875 71.65625 L 469.40625 83.34375 C 471.17131 100.31777 472.0625 110.17042 472.0625 112.90625 C 472.53318 118.20144 474.45888 120.84375 477.8125 120.84375 L 483.53125 120.40625 L 488.625 120.40625 C 495.39104 120.40625 498.74997 119.47465 498.75 117.5625 C 498.74997 116.5623 498.10501 115.81444 496.78125 115.34375 C 494.81024 115.93211 492.38291 116.21875 489.5 116.21875 L 483.53125 116.21875 L 477.8125 116.65625 C 477.34181 116.65625 476.88059 116.29795 476.46875 115.5625 C 476.17456 109.41422 475.67293 103.09508 474.9375 96.59375 L 481.78125 96.15625 C 486.92932 96.156274 489.49998 95.408409 489.5 93.9375 C 489.49998 93.231503 489.11042 92.514888 488.375 91.75 L 474.71875 92.40625 C 474.07155 92.406278 473.53867 85.554258 473.15625 71.875 L 473.15625 70.125 C 473.15624 68.12465 473.29957 66.485597 473.59375 65.25 L 491.6875 66.15625 C 492.51117 66.156304 493.18737 65.695085 493.6875 64.8125 L 493.6875 63.9375 C 493.68747 62.613762 492.86795 61.937559 491.25 61.9375 L 471.84375 61.0625 z M 352.5625 63 C 351.09161 63.176563 350.375 63.781105 350.375 64.78125 C 350.02199 79.313627 350.4887 97.128126 351.8125 118.25 C 352.3126 119.42671 353.20379 120.03125 354.46875 120.03125 L 357.34375 119.59375 C 361.05037 120.03502 366.54998 120.39332 373.875 120.6875 L 374.09375 120.6875 C 378.41812 120.6875 380.84545 119.72465 381.375 117.8125 C 381.08079 116.34162 380.5075 115.59375 379.625 115.59375 C 377.77166 116.03502 376.1326 116.28125 374.75 116.28125 L 372.78125 116.28125 C 366.60352 116.28125 361.39055 115.96336 357.125 115.375 L 356.4375 115.59375 L 356 115.59375 C 354.6762 98.325592 354.20948 81.473942 354.5625 65 C 354.03298 63.676261 353.35677 63.000057 352.5625 63 z M 204.46875 64.78125 C 202.85075 64.869559 202.06247 65.514512 202.0625 66.75 C 202.79791 75.369426 203.15622 81.473582 203.15625 85.0625 L 203.15625 86.625 L 203.375 88.15625 C 202.5807 88.597547 200.82957 88.812532 198.09375 88.8125 L 189.25 88.8125 L 182.40625 89.25 C 181.96498 82.160377 181.74999 75.98456 181.75 70.71875 L 181.75 68.09375 C 181.66174 66.475831 181.01679 65.656305 179.78125 65.65625 C 178.51629 65.656305 177.76842 66.547493 177.5625 68.3125 L 177.5625 71.625 L 178.4375 102.9375 L 178.4375 117.0625 C 178.58459 119.71009 179.11747 121.03125 180 121.03125 L 180.875 121.03125 C 181.96345 121.03125 182.6084 120.3863 182.84375 119.0625 L 182.625 116.625 L 182.625 93.46875 C 184.06646 93.174601 186.20714 93.000027 189.03125 93 L 197.40625 93 L 203.375 92.5625 C 204.11041 105.41804 204.46872 114.02119 204.46875 118.375 C 204.7629 119.99297 205.4391 120.8125 206.46875 120.8125 C 207.58659 120.8125 208.30321 120.06463 208.65625 118.59375 C 207.77369 93.02981 207.12873 77.89254 206.6875 73.15625 C 206.68747 67.566943 205.9396 64.781306 204.46875 64.78125 z M 158.84375 64.8125 C 156.72566 64.812556 154.22667 65.345436 151.34375 66.375 C 142.81262 70.31702 138.5625 78.315624 138.5625 90.40625 L 138.5625 91.28125 C 138.5625 97.135392 139.59701 102.80958 141.65625 108.28125 C 145.2452 116.66529 151.85098 120.84375 161.5 120.84375 C 167.61885 120.84375 171.72564 118.73432 173.84375 114.46875 C 173.3142 113.14496 172.66924 112.46876 171.875 112.46875 L 170.78125 112.6875 C 168.78082 115.3351 165.82061 116.65625 161.9375 116.65625 C 158.34852 116.65625 155.41956 116.22628 153.125 115.34375 C 146.21183 111.7548 142.74999 103.72495 142.75 91.28125 L 142.75 90.1875 C 142.74999 85.333617 143.39495 81.370146 144.71875 78.28125 C 148.19003 72.103585 152.68638 69.000051 158.1875 69 L 160.84375 69 L 163.5 69.6875 C 165.08853 71.599698 166.09179 72.531298 166.5625 72.53125 C 168.03335 71.88411 168.78122 71.167494 168.78125 70.34375 L 168.78125 70.125 C 167.48684 66.594932 164.16832 64.812556 158.84375 64.8125 z M 282.21875 64.8125 C 280.10066 64.812556 277.60167 65.345436 274.71875 66.375 C 266.18762 70.31702 261.9375 78.315624 261.9375 90.40625 L 261.9375 91.28125 C 261.9375 97.135392 262.97201 102.80958 265.03125 108.28125 C 268.6202 116.66529 275.22598 120.84375 284.875 120.84375 C 290.99385 120.84375 295.10064 118.73432 297.21875 114.46875 C 296.6892 113.14496 296.04424 112.46876 295.25 112.46875 L 294.15625 112.6875 C 292.15582 115.3351 289.19561 116.65625 285.3125 116.65625 C 281.72352 116.65625 278.79456 116.22628 276.5 115.34375 C 269.58683 111.7548 266.12499 103.72495 266.125 91.28125 L 266.125 90.1875 C 266.12499 85.333617 266.76995 81.370146 268.09375 78.28125 C 271.56503 72.103585 276.06138 69.000051 281.5625 69 L 284.21875 69 L 286.875 69.6875 C 288.46353 71.599698 289.46679 72.531298 289.9375 72.53125 C 291.40835 71.88411 292.15622 71.167494 292.15625 70.34375 L 292.15625 70.125 C 290.86184 66.594932 287.54332 64.812556 282.21875 64.8125 z M 236.46875 65.09375 L 236.6875 65.09375 C 240.77653 65.211476 243.88006 66.745785 245.96875 69.6875 C 251.35214 75.541664 254.03121 82.577419 254.03125 90.84375 C 254.03121 95.933034 252.9967 100.64437 250.9375 104.96875 C 246.26005 113.49989 240.76044 117.78125 234.40625 117.78125 C 233.22952 117.78125 231.8367 117.53502 230.21875 117.09375 C 221.09926 113.24004 216.53124 105.88639 216.53125 95.03125 L 216.53125 93.28125 C 216.53124 87.280076 218.06739 80.817613 221.15625 73.875 C 224.89228 68.050351 229.99684 65.123223 236.46875 65.09375 z M 325.25 65.09375 L 325.46875 65.09375 C 329.55778 65.211476 332.66131 66.745785 334.75 69.6875 C 340.13339 75.541664 342.81246 82.577419 342.8125 90.84375 C 342.81246 95.933034 341.77795 100.64437 339.71875 104.96875 C 335.0413 113.49989 329.54169 117.78125 323.1875 117.78125 C 322.01077 117.78125 320.61795 117.53502 319 117.09375 C 309.88051 113.24004 305.31249 105.88639 305.3125 95.03125 L 305.3125 93.28125 C 305.31249 87.280076 306.84864 80.817613 309.9375 73.875 C 313.67353 68.050351 318.77809 65.123223 325.25 65.09375 z M 431.9375 67.6875 C 430.6137 67.952312 429.96875 68.525604 429.96875 69.4375 L 430.1875 70.5625 C 430.1875 71.886344 434.89884 72.531298 444.3125 72.53125 L 444.75 72.53125 C 445.19125 76.738023 445.40623 80.732744 445.40625 84.46875 L 445.1875 116.21875 C 445.18748 120.48431 445.93535 122.625 447.40625 122.625 C 448.87712 122.41907 449.59373 121.81453 449.59375 120.84375 L 449.375 114.25 L 449.8125 88.65625 L 448.9375 72.53125 L 463.28125 72.09375 C 465.19336 71.94671 466.15621 71.230095 466.15625 69.90625 C 466.15621 68.78843 465.40835 68.040565 463.9375 67.6875 L 463.9375 67.90625 L 444.3125 68.34375 L 442.96875 68.34375 C 439.43862 68.343802 435.76179 68.128818 431.9375 67.6875 z M 407.5625 69.84375 C 398.06057 69.579042 391.60178 76.754455 388.21875 91.375 C 385.95359 107.05464 384.30904 116.44056 383.25 119.5 C 383.22058 120.41195 383.8637 121.08998 385.1875 121.53125 L 385.40625 121.53125 C 387.64199 121.59008 389.53461 113.98837 391.09375 98.75 L 394.625 99.0625 C 403.39145 98.70951 412.71121 98.672763 422.625 98.9375 C 423.33098 105.11523 423.65071 110.04338 423.5625 113.75 C 423.41537 118.42741 424.16324 120.78491 425.78125 120.84375 C 426.69315 120.87317 427.37119 120.40645 427.8125 119.40625 C 427.69478 107.96278 427.19499 99.859435 426.3125 95.09375 C 423.16477 78.502218 416.98895 70.079142 407.78125 69.84375 L 407.5625 69.84375 z M 407.46875 73.8125 C 414.49955 73.989053 419.28621 80.807991 421.875 94.28125 L 421.21875 94.6875 C 413.18769 94.481602 403.97817 94.518349 393.59375 94.8125 C 392.5347 94.783108 391.96324 94.49463 391.875 93.90625 C 394.61083 80.285903 399.82014 73.577205 407.46875 73.8125 z "
         inkscape:radius="18.182745"
         sodipodi:type="inkscape:offset" />
      <text
         sodipodi:linespacing="125%"
         id="text2985"
         y="178.51469"
         x="84.070137"
         style="font-size:145.17849731px;font-style:normal;font-variant:normal;font-weight:normal;font-stretch:normal;line-height:125%;letter-spacing:0px;word-spacing:0px;fill:#28220b;fill-opacity:1;stroke:#28220b;stroke-width:3.62946224;font-family:Burst My Bubble;-inkscape-font-specification:Burst My Bubble"
         xml:space="preserve"><tspan
           style="fill:#28220b;stroke:#28220b;stroke-width:3.62946224"
           y="178.51469"
           x="84.070137"
           id="tspan2987"
           sodipodi:role="line">CHOCOLATE</tspan></text>
    </g>
    <g
       id="g3084"
       inkscape:export-filename="/home/syn/workspace/medea/resources/graphics/choco_s.png"
       inkscape:export-xdpi="150"
       inkscape:export-ydpi="150">
      <path
         transform="matrix(1.60647,0,0,1.60647,-135.67675,204.9258)"
         d="m 236.25,42.71875 c -7.29976,1.42e-4 -13.24886,2.142046 -19.3125,5 A 18.184563,18.184563 0 0 0 214,49.4375 c -2.85253,-1.627363 -6.20263,-2.843623 -9.53125,-2.84375 a 18.184563,18.184563 0 0 0 -1,0.03125 c -3.05375,0.166671 -7.56619,0.741659 -12.3125,4.625 -3.69336,-2.39846 -8.13769,-3.781106 -11.375,-3.78125 -2.33182,1.01e-4 -5.10868,0.672353 -7.78125,1.8125 -4.56276,-2.020431 -9.03801,-2.656207 -13.15625,-2.65625 -5.16738,1.37e-4 -9.47931,1.144468 -13.625,2.625 a 18.184563,18.184563 0 0 0 -1.5,0.625 C 128.77327,56.780931 120.375,74.054535 120.375,90.40625 l 0,0.875 c 0,7.996241 1.43825,15.93507 4.25,23.40625 a 18.184563,18.184563 0 0 0 0.3125,0.75 c 5.9053,13.7952 21.66418,23.59375 36.5625,23.59375 3.28694,0 6.86284,-0.67525 10.375,-1.84375 2.54308,1.19149 5.40064,2.03125 8.125,2.03125 l 0.875,0 c 3.77999,0 9.14756,-1.68689 13.03125,-4.9375 3.53917,2.71273 8.44306,4.71875 12.5625,4.71875 3.42169,0 7.711,-1.30512 11.15625,-3.46875 4.97097,2.74009 10.4703,4.40625 16.34375,4.40625 l 0.875,0 c 7.69696,0 14.36206,-2.80015 20,-6.4375 a 18.184563,18.184563 0 0 0 1.34375,-0.9375 c 1.16281,-0.907 2.23613,-1.90465 3.3125,-2.90625 7.24285,5.79874 16.43763,9.375 25.375,9.375 5.85144,0 12.57688,-2.00365 18.28125,-5.59375 5.78139,3.9499 12.38924,6.5 19.59375,6.5 l 0.875,0 c 7.36818,0 13.76782,-2.59012 19.25,-6 3.69274,2.52728 7.97849,4.28125 11.59375,4.28125 a 18.184563,18.184563 0 0 0 2.75,-0.21875 l 0.96875,-0.15625 c 4.19786,0.40838 8.67739,0.74733 14.96875,1 a 18.184563,18.184563 0 0 0 0.71875,0.0312 l 0.21875,0 c 1.58428,0 3.19946,-0.0772 4.90625,-0.28125 0.13367,0.0463 0.30763,0.14421 0.4375,0.1875 a 18.184563,18.184563 0 0 0 5.5,0.9375 18.184563,18.184563 0 0 0 0.25,0 l 0.21875,0 0,-0.0312 c 5.27234,-0.0128 10.09837,-2.45689 12.71875,-4.71875 2.6999,-2.3305 3.9124,-4.39327 4.84375,-6.09375 1.70445,-3.11204 2.37737,-5.44927 3,-7.90625 0.20194,1.13357 0.26268,2.14657 0.6875,3.5 0.74745,2.38129 1.96571,5.42327 5.0625,8.59375 3.09679,3.17048 8.64584,5.76438 13.40625,5.9375 a 18.184563,18.184563 0 0 0 0.0625,0.0312 c 3.0605,0.0987 6.43921,-1.22196 9.5625,-3 3.26397,2.697 8.27909,4.78125 12.65625,4.78125 a 18.184563,18.184563 0 0 0 2.53125,-0.1875 c 2.75348,-0.3855 6.49361,-1.1428 10.65625,-4.5625 0.8727,-0.71694 1.65129,-1.6557 2.40625,-2.625 4.27538,3.35279 10.03835,5.59375 14.8125,5.59375 a 18.184563,18.184563 0 0 0 1.375,-0.0625 l 4.90625,-0.375 4.53125,0 c 4.21753,0 7.75876,-0.0475 12.5,-1.375 2.37062,-0.66375 5.26933,-1.58341 8.75,-4.53125 3.48067,-2.94784 7.06241,-9.32361 7.0625,-15.125 -1.3e-4,-4.40823 -1.98204,-9.85159 -5.03125,-13.3125 -1.79776,-2.04049 -3.64043,-3.34476 -5.4375,-4.34375 0.70062,-1.958222 1.21872,-3.975114 1.21875,-5.96875 -1.8e-4,-6.263605 -2.68992,-10.587041 -5,-13.34375 3.05838,-2.035859 5.53418,-4.556641 6.8125,-6.8125 a 18.184563,18.184563 0 0 0 2.375,-8.96875 l 0,-0.875 c -10e-5,-4.414083 -2.2886,-11.454603 -7.25,-15.53125 -4.60342,-3.782501 -9.23982,-4.535516 -12.5625,-4.625 L 491.25,43.75 472.65625,42.90625 a 18.184563,18.184563 0 0 0 -0.8125,-0.03125 c -2.95833,9.9e-5 -7.0668,0.160664 -12.125,3.5625 -1.32054,0.888118 -2.53696,2.070808 -3.625,3.4375 l -11.78125,0.28125 -0.40625,0 -0.9375,0 c -2.79173,4.1e-5 -5.76365,-0.164991 -8.9375,-0.53125 a 18.184563,18.184563 0 0 0 -5.65625,0.21875 c -2.4378,0.487655 -5.76236,1.419681 -9.375,4.40625 -3.46667,-1.436239 -7.07661,-2.499841 -10.75,-2.59375 a 18.184563,18.184563 0 0 0 -0.1875,0 18.184563,18.184563 0 0 0 -0.28125,0 l -0.21875,0 0,0.03125 c -9.3005,-0.09622 -19.33953,4.333655 -25.5,11.1875 -4.39386,4.888399 -7.22403,10.449 -9.28125,16.46875 -0.0348,-4.659651 -0.12968,-9.375648 -0.0312,-13.96875 a 18.184563,18.184563 0 0 0 -1.3125,-7.125 c -0.85952,-2.148704 -2.02798,-4.715489 -4.90625,-7.59375 -2.87827,-2.878261 -8.41201,-5.843351 -13.96875,-5.84375 a 18.184563,18.184563 0 0 0 -2.15625,0.125 c -2.2072,0.264948 -5.09253,0.837706 -8.28125,2.71875 -4.74942,-2.969111 -10.18584,-4.831275 -16.34375,-4.9375 a 18.184563,18.184563 0 0 0 -0.3125,0 l -0.4375,0 c -7.29976,1.42e-4 -13.24886,2.142046 -19.3125,5 a 18.184563,18.184563 0 0 0 -4.125,2.6875 c -0.56117,0.485012 -1.05744,1.023295 -1.59375,1.53125 -0.89088,-0.655686 -1.78145,-1.310837 -2.71875,-1.8125 -5.22107,-2.794419 -10.37139,-3.499951 -15.0625,-3.5 -5.16738,1.37e-4 -9.47931,1.144468 -13.625,2.625 a 18.184563,18.184563 0 0 0 -1.5,0.625 c -2.27747,1.052363 -4.34591,2.412105 -6.3125,3.90625 C 254.51149,47.386869 246.68096,42.885748 237,42.71875 a 18.184563,18.184563 0 0 0 -0.3125,0 l -0.4375,0 z m -0.8125,45.21875 c 0.15056,0.911606 0.40624,1.652889 0.40625,2.90625 -2e-5,2.381609 -0.40469,4.111335 -1.125,5.78125 0.0286,-0.612636 0,-0.51492 0,-1.59375 l 0,-1.75 c 0,-1.488609 0.21282,-3.276991 0.71875,-5.34375 z m 88.78125,0 c 0.15056,0.911606 0.40624,1.652889 0.40625,2.90625 -2e-5,2.381609 -0.40469,4.111335 -1.125,5.78125 0.0286,-0.612636 0,-0.51492 0,-1.59375 l 0,-1.75 c 0,-1.488609 0.21282,-3.276991 0.71875,-5.34375 z"
         id="path3010-4"
         style="font-size:90.37112427000000991px;font-style:normal;font-variant:normal;font-weight:normal;font-stretch:normal;line-height:125%;letter-spacing:0px;word-spacing:0px;fill:#f6d5ff;fill-opacity:1;stroke:#440055;stroke-width:2.25927806000000020;font-family:Burst My Bubble;-inkscape-font-specification:Burst My Bubble"
         inkscape:original="M 236.25 60.90625 C 233.16112 60.90631 229.30606 61.9794 224.6875 64.15625 C 216.45054 71.275379 212.34375 81.199682 212.34375 93.9375 L 212.34375 94.8125 C 212.34375 98.430897 212.91704 102.17938 214.09375 106.0625 C 219.30067 116.50578 225.93771 121.75 233.96875 121.75 L 234.84375 121.75 C 237.962 121.75 241.35218 120.57216 245 118.21875 C 253.82526 111.33502 258.2187 102.34232 258.21875 91.28125 C 258.2187 86.868631 257.25585 82.188545 255.34375 77.1875 C 249.72493 66.4501 243.51237 61.02398 236.6875 60.90625 L 236.25 60.90625 z M 325.03125 60.90625 C 321.94237 60.90631 318.08731 61.9794 313.46875 64.15625 C 305.23179 71.275379 301.125 81.199682 301.125 93.9375 L 301.125 94.8125 C 301.125 98.430897 301.69829 102.17938 302.875 106.0625 C 308.08192 116.50578 314.71896 121.75 322.75 121.75 L 323.625 121.75 C 326.74325 121.75 330.13343 120.57216 333.78125 118.21875 C 342.60651 111.33502 346.99995 102.34232 347 91.28125 C 346.99995 86.868631 346.0371 82.188545 344.125 77.1875 C 338.50618 66.4501 332.29362 61.02398 325.46875 60.90625 L 325.03125 60.90625 z M 471.84375 61.0625 C 470.07869 61.062559 469.1875 61.667102 469.1875 62.84375 L 469.40625 64.375 L 468.96875 70.78125 L 468.96875 71.65625 L 469.40625 83.34375 C 471.17131 100.31777 472.0625 110.17042 472.0625 112.90625 C 472.53318 118.20144 474.45888 120.84375 477.8125 120.84375 L 483.53125 120.40625 L 488.625 120.40625 C 495.39104 120.40625 498.74997 119.47465 498.75 117.5625 C 498.74997 116.5623 498.10501 115.81444 496.78125 115.34375 C 494.81024 115.93211 492.38291 116.21875 489.5 116.21875 L 483.53125 116.21875 L 477.8125 116.65625 C 477.34181 116.65625 476.88059 116.29795 476.46875 115.5625 C 476.17456 109.41422 475.67293 103.09508 474.9375 96.59375 L 481.78125 96.15625 C 486.92932 96.156274 489.49998 95.408409 489.5 93.9375 C 489.49998 93.231503 489.11042 92.514888 488.375 91.75 L 474.71875 92.40625 C 474.07155 92.406278 473.53867 85.554258 473.15625 71.875 L 473.15625 70.125 C 473.15624 68.12465 473.29957 66.485597 473.59375 65.25 L 491.6875 66.15625 C 492.51117 66.156304 493.18737 65.695085 493.6875 64.8125 L 493.6875 63.9375 C 493.68747 62.613762 492.86795 61.937559 491.25 61.9375 L 471.84375 61.0625 z M 352.5625 63 C 351.09161 63.176563 350.375 63.781105 350.375 64.78125 C 350.02199 79.313627 350.4887 97.128126 351.8125 118.25 C 352.3126 119.42671 353.20379 120.03125 354.46875 120.03125 L 357.34375 119.59375 C 361.05037 120.03502 366.54998 120.39332 373.875 120.6875 L 374.09375 120.6875 C 378.41812 120.6875 380.84545 119.72465 381.375 117.8125 C 381.08079 116.34162 380.5075 115.59375 379.625 115.59375 C 377.77166 116.03502 376.1326 116.28125 374.75 116.28125 L 372.78125 116.28125 C 366.60352 116.28125 361.39055 115.96336 357.125 115.375 L 356.4375 115.59375 L 356 115.59375 C 354.6762 98.325592 354.20948 81.473942 354.5625 65 C 354.03298 63.676261 353.35677 63.000057 352.5625 63 z M 204.46875 64.78125 C 202.85075 64.869559 202.06247 65.514512 202.0625 66.75 C 202.79791 75.369426 203.15622 81.473582 203.15625 85.0625 L 203.15625 86.625 L 203.375 88.15625 C 202.5807 88.597547 200.82957 88.812532 198.09375 88.8125 L 189.25 88.8125 L 182.40625 89.25 C 181.96498 82.160377 181.74999 75.98456 181.75 70.71875 L 181.75 68.09375 C 181.66174 66.475831 181.01679 65.656305 179.78125 65.65625 C 178.51629 65.656305 177.76842 66.547493 177.5625 68.3125 L 177.5625 71.625 L 178.4375 102.9375 L 178.4375 117.0625 C 178.58459 119.71009 179.11747 121.03125 180 121.03125 L 180.875 121.03125 C 181.96345 121.03125 182.6084 120.3863 182.84375 119.0625 L 182.625 116.625 L 182.625 93.46875 C 184.06646 93.174601 186.20714 93.000027 189.03125 93 L 197.40625 93 L 203.375 92.5625 C 204.11041 105.41804 204.46872 114.02119 204.46875 118.375 C 204.7629 119.99297 205.4391 120.8125 206.46875 120.8125 C 207.58659 120.8125 208.30321 120.06463 208.65625 118.59375 C 207.77369 93.02981 207.12873 77.89254 206.6875 73.15625 C 206.68747 67.566943 205.9396 64.781306 204.46875 64.78125 z M 158.84375 64.8125 C 156.72566 64.812556 154.22667 65.345436 151.34375 66.375 C 142.81262 70.31702 138.5625 78.315624 138.5625 90.40625 L 138.5625 91.28125 C 138.5625 97.135392 139.59701 102.80958 141.65625 108.28125 C 145.2452 116.66529 151.85098 120.84375 161.5 120.84375 C 167.61885 120.84375 171.72564 118.73432 173.84375 114.46875 C 173.3142 113.14496 172.66924 112.46876 171.875 112.46875 L 170.78125 112.6875 C 168.78082 115.3351 165.82061 116.65625 161.9375 116.65625 C 158.34852 116.65625 155.41956 116.22628 153.125 115.34375 C 146.21183 111.7548 142.74999 103.72495 142.75 91.28125 L 142.75 90.1875 C 142.74999 85.333617 143.39495 81.370146 144.71875 78.28125 C 148.19003 72.103585 152.68638 69.000051 158.1875 69 L 160.84375 69 L 163.5 69.6875 C 165.08853 71.599698 166.09179 72.531298 166.5625 72.53125 C 168.03335 71.88411 168.78122 71.167494 168.78125 70.34375 L 168.78125 70.125 C 167.48684 66.594932 164.16832 64.812556 158.84375 64.8125 z M 282.21875 64.8125 C 280.10066 64.812556 277.60167 65.345436 274.71875 66.375 C 266.18762 70.31702 261.9375 78.315624 261.9375 90.40625 L 261.9375 91.28125 C 261.9375 97.135392 262.97201 102.80958 265.03125 108.28125 C 268.6202 116.66529 275.22598 120.84375 284.875 120.84375 C 290.99385 120.84375 295.10064 118.73432 297.21875 114.46875 C 296.6892 113.14496 296.04424 112.46876 295.25 112.46875 L 294.15625 112.6875 C 292.15582 115.3351 289.19561 116.65625 285.3125 116.65625 C 281.72352 116.65625 278.79456 116.22628 276.5 115.34375 C 269.58683 111.7548 266.12499 103.72495 266.125 91.28125 L 266.125 90.1875 C 266.12499 85.333617 266.76995 81.370146 268.09375 78.28125 C 271.56503 72.103585 276.06138 69.000051 281.5625 69 L 284.21875 69 L 286.875 69.6875 C 288.46353 71.599698 289.46679 72.531298 289.9375 72.53125 C 291.40835 71.88411 292.15622 71.167494 292.15625 70.34375 L 292.15625 70.125 C 290.86184 66.594932 287.54332 64.812556 282.21875 64.8125 z M 236.46875 65.09375 L 236.6875 65.09375 C 240.77653 65.211476 243.88006 66.745785 245.96875 69.6875 C 251.35214 75.541664 254.03121 82.577419 254.03125 90.84375 C 254.03121 95.933034 252.9967 100.64437 250.9375 104.96875 C 246.26005 113.49989 240.76044 117.78125 234.40625 117.78125 C 233.22952 117.78125 231.8367 117.53502 230.21875 117.09375 C 221.09926 113.24004 216.53124 105.88639 216.53125 95.03125 L 216.53125 93.28125 C 216.53124 87.280076 218.06739 80.817613 221.15625 73.875 C 224.89228 68.050351 229.99684 65.123223 236.46875 65.09375 z M 325.25 65.09375 L 325.46875 65.09375 C 329.55778 65.211476 332.66131 66.745785 334.75 69.6875 C 340.13339 75.541664 342.81246 82.577419 342.8125 90.84375 C 342.81246 95.933034 341.77795 100.64437 339.71875 104.96875 C 335.0413 113.49989 329.54169 117.78125 323.1875 117.78125 C 322.01077 117.78125 320.61795 117.53502 319 117.09375 C 309.88051 113.24004 305.31249 105.88639 305.3125 95.03125 L 305.3125 93.28125 C 305.31249 87.280076 306.84864 80.817613 309.9375 73.875 C 313.67353 68.050351 318.77809 65.123223 325.25 65.09375 z M 431.9375 67.6875 C 430.6137 67.952312 429.96875 68.525604 429.96875 69.4375 L 430.1875 70.5625 C 430.1875 71.886344 434.89884 72.531298 444.3125 72.53125 L 444.75 72.53125 C 445.19125 76.738023 445.40623 80.732744 445.40625 84.46875 L 445.1875 116.21875 C 445.18748 120.48431 445.93535 122.625 447.40625 122.625 C 448.87712 122.41907 449.59373 121.81453 449.59375 120.84375 L 449.375 114.25 L 449.8125 88.65625 L 448.9375 72.53125 L 463.28125 72.09375 C 465.19336 71.94671 466.15621 71.230095 466.15625 69.90625 C 466.15621 68.78843 465.40835 68.040565 463.9375 67.6875 L 463.9375 67.90625 L 444.3125 68.34375 L 442.96875 68.34375 C 439.43862 68.343802 435.76179 68.128818 431.9375 67.6875 z M 407.5625 69.84375 C 398.06057 69.579042 391.60178 76.754455 388.21875 91.375 C 385.95359 107.05464 384.30904 116.44056 383.25 119.5 C 383.22058 120.41195 383.8637 121.08998 385.1875 121.53125 L 385.40625 121.53125 C 387.64199 121.59008 389.53461 113.98837 391.09375 98.75 L 394.625 99.0625 C 403.39145 98.70951 412.71121 98.672763 422.625 98.9375 C 423.33098 105.11523 423.65071 110.04338 423.5625 113.75 C 423.41537 118.42741 424.16324 120.78491 425.78125 120.84375 C 426.69315 120.87317 427.37119 120.40645 427.8125 119.40625 C 427.69478 107.96278 427.19499 99.859435 426.3125 95.09375 C 423.16477 78.502218 416.98895 70.079142 407.78125 69.84375 L 407.5625 69.84375 z M 407.46875 73.8125 C 414.49955 73.989053 419.28621 80.807991 421.875 94.28125 L 421.21875 94.6875 C 413.18769 94.481602 403.97817 94.518349 393.59375 94.8125 C 392.5347 94.783108 391.96324 94.49463 391.875 93.90625 C 394.61083 80.285903 399.82014 73.577205 407.46875 73.8125 z "
         inkscape:radius="18.182745"
         sodipodi:type="inkscape:offset" />
      <text
         sodipodi:linespacing="125%"
         id="text2985-6"
         y="398.51468"
         x="84.070145"
         style="font-size:145.17849731000001157px;font-style:normal;font-variant:normal;font-weight:normal;font-stretch:normal;line-height:125%;letter-spacing:0px;word-spacing:0px;fill:#220b28;fill-opacity:1;stroke:#220b28;stroke-width:3.62946224000000006;font-family:Burst My Bubble;-inkscape-font-specification:Burst My Bubble"
         xml:space="preserve"><tspan
           style="fill:#220b28;stroke:#220b28;stroke-width:3.62946224000000006"
           y="398.51468"
           x="84.070145"
           id="tspan2987-8"
           sodipodi:role="line">CHOCOLATE</tspan></text>
    </g>
    <g
       id="g3089"
       inkscape:export-filename="/home/syn/workspace/medea/resources/graphics/choco_h.png"
       inkscape:export-xdpi="150"
       inkscape:export-ydpi="150">
      <path
         transform="matrix(1.60647,0,0,1.60647,-135.67675,424.9258)"
         d="m 236.25,42.71875 c -7.29976,1.42e-4 -13.24886,2.142046 -19.3125,5 A 18.184563,18.184563 0 0 0 214,49.4375 c -2.85253,-1.627363 -6.20263,-2.843623 -9.53125,-2.84375 a 18.184563,18.184563 0 0 0 -1,0.03125 c -3.05375,0.166671 -7.56619,0.741659 -12.3125,4.625 -3.69336,-2.39846 -8.13769,-3.781106 -11.375,-3.78125 -2.33182,1.01e-4 -5.10868,0.672353 -7.78125,1.8125 -4.56276,-2.020431 -9.03801,-2.656207 -13.15625,-2.65625 -5.16738,1.37e-4 -9.47931,1.144468 -13.625,2.625 a 18.184563,18.184563 0 0 0 -1.5,0.625 C 128.77327,56.780931 120.375,74.054535 120.375,90.40625 l 0,0.875 c 0,7.996241 1.43825,15.93507 4.25,23.40625 a 18.184563,18.184563 0 0 0 0.3125,0.75 c 5.9053,13.7952 21.66418,23.59375 36.5625,23.59375 3.28694,0 6.86284,-0.67525 10.375,-1.84375 2.54308,1.19149 5.40064,2.03125 8.125,2.03125 l 0.875,0 c 3.77999,0 9.14756,-1.68689 13.03125,-4.9375 3.53917,2.71273 8.44306,4.71875 12.5625,4.71875 3.42169,0 7.711,-1.30512 11.15625,-3.46875 4.97097,2.74009 10.4703,4.40625 16.34375,4.40625 l 0.875,0 c 7.69696,0 14.36206,-2.80015 20,-6.4375 a 18.184563,18.184563 0 0 0 1.34375,-0.9375 c 1.16281,-0.907 2.23613,-1.90465 3.3125,-2.90625 7.24285,5.79874 16.43763,9.375 25.375,9.375 5.85144,0 12.57688,-2.00365 18.28125,-5.59375 5.78139,3.9499 12.38924,6.5 19.59375,6.5 l 0.875,0 c 7.36818,0 13.76782,-2.59012 19.25,-6 3.69274,2.52728 7.97849,4.28125 11.59375,4.28125 a 18.184563,18.184563 0 0 0 2.75,-0.21875 l 0.96875,-0.15625 c 4.19786,0.40838 8.67739,0.74733 14.96875,1 a 18.184563,18.184563 0 0 0 0.71875,0.0312 l 0.21875,0 c 1.58428,0 3.19946,-0.0772 4.90625,-0.28125 0.13367,0.0463 0.30763,0.14421 0.4375,0.1875 a 18.184563,18.184563 0 0 0 5.5,0.9375 18.184563,18.184563 0 0 0 0.25,0 l 0.21875,0 0,-0.0312 c 5.27234,-0.0128 10.09837,-2.45689 12.71875,-4.71875 2.6999,-2.3305 3.9124,-4.39327 4.84375,-6.09375 1.70445,-3.11204 2.37737,-5.44927 3,-7.90625 0.20194,1.13357 0.26268,2.14657 0.6875,3.5 0.74745,2.38129 1.96571,5.42327 5.0625,8.59375 3.09679,3.17048 8.64584,5.76438 13.40625,5.9375 a 18.184563,18.184563 0 0 0 0.0625,0.0312 c 3.0605,0.0987 6.43921,-1.22196 9.5625,-3 3.26397,2.697 8.27909,4.78125 12.65625,4.78125 a 18.184563,18.184563 0 0 0 2.53125,-0.1875 c 2.75348,-0.3855 6.49361,-1.1428 10.65625,-4.5625 0.8727,-0.71694 1.65129,-1.6557 2.40625,-2.625 4.27538,3.35279 10.03835,5.59375 14.8125,5.59375 a 18.184563,18.184563 0 0 0 1.375,-0.0625 l 4.90625,-0.375 4.53125,0 c 4.21753,0 7.75876,-0.0475 12.5,-1.375 2.37062,-0.66375 5.26933,-1.58341 8.75,-4.53125 3.48067,-2.94784 7.06241,-9.32361 7.0625,-15.125 -1.3e-4,-4.40823 -1.98204,-9.85159 -5.03125,-13.3125 -1.79776,-2.04049 -3.64043,-3.34476 -5.4375,-4.34375 0.70062,-1.958222 1.21872,-3.975114 1.21875,-5.96875 -1.8e-4,-6.263605 -2.68992,-10.587041 -5,-13.34375 3.05838,-2.035859 5.53418,-4.556641 6.8125,-6.8125 a 18.184563,18.184563 0 0 0 2.375,-8.96875 l 0,-0.875 c -10e-5,-4.414083 -2.2886,-11.454603 -7.25,-15.53125 -4.60342,-3.782501 -9.23982,-4.535516 -12.5625,-4.625 L 491.25,43.75 472.65625,42.90625 a 18.184563,18.184563 0 0 0 -0.8125,-0.03125 c -2.95833,9.9e-5 -7.0668,0.160664 -12.125,3.5625 -1.32054,0.888118 -2.53696,2.070808 -3.625,3.4375 l -11.78125,0.28125 -0.40625,0 -0.9375,0 c -2.79173,4.1e-5 -5.76365,-0.164991 -8.9375,-0.53125 a 18.184563,18.184563 0 0 0 -5.65625,0.21875 c -2.4378,0.487655 -5.76236,1.419681 -9.375,4.40625 -3.46667,-1.436239 -7.07661,-2.499841 -10.75,-2.59375 a 18.184563,18.184563 0 0 0 -0.1875,0 18.184563,18.184563 0 0 0 -0.28125,0 l -0.21875,0 0,0.03125 c -9.3005,-0.09622 -19.33953,4.333655 -25.5,11.1875 -4.39386,4.888399 -7.22403,10.449 -9.28125,16.46875 -0.0348,-4.659651 -0.12968,-9.375648 -0.0312,-13.96875 a 18.184563,18.184563 0 0 0 -1.3125,-7.125 c -0.85952,-2.148704 -2.02798,-4.715489 -4.90625,-7.59375 -2.87827,-2.878261 -8.41201,-5.843351 -13.96875,-5.84375 a 18.184563,18.184563 0 0 0 -2.15625,0.125 c -2.2072,0.264948 -5.09253,0.837706 -8.28125,2.71875 -4.74942,-2.969111 -10.18584,-4.831275 -16.34375,-4.9375 a 18.184563,18.184563 0 0 0 -0.3125,0 l -0.4375,0 c -7.29976,1.42e-4 -13.24886,2.142046 -19.3125,5 a 18.184563,18.184563 0 0 0 -4.125,2.6875 c -0.56117,0.485012 -1.05744,1.023295 -1.59375,1.53125 -0.89088,-0.655686 -1.78145,-1.310837 -2.71875,-1.8125 -5.22107,-2.794419 -10.37139,-3.499951 -15.0625,-3.5 -5.16738,1.37e-4 -9.47931,1.144468 -13.625,2.625 a 18.184563,18.184563 0 0 0 -1.5,0.625 c -2.27747,1.052363 -4.34591,2.412105 -6.3125,3.90625 C 254.51149,47.386869 246.68096,42.885748 237,42.71875 a 18.184563,18.184563 0 0 0 -0.3125,0 l -0.4375,0 z m -0.8125,45.21875 c 0.15056,0.911606 0.40624,1.652889 0.40625,2.90625 -2e-5,2.381609 -0.40469,4.111335 -1.125,5.78125 0.0286,-0.612636 0,-0.51492 0,-1.59375 l 0,-1.75 c 0,-1.488609 0.21282,-3.276991 0.71875,-5.34375 z m 88.78125,0 c 0.15056,0.911606 0.40624,1.652889 0.40625,2.90625 -2e-5,2.381609 -0.40469,4.111335 -1.125,5.78125 0.0286,-0.612636 0,-0.51492 0,-1.59375 l 0,-1.75 c 0,-1.488609 0.21282,-3.276991 0.71875,-5.34375 z"
         id="path3010-4-0"
         style="font-size:90.37112427px;font-style:normal;font-variant:normal;font-weight:normal;font-stretch:normal;line-height:125%;letter-spacing:0px;word-spacing:0px;fill:#ffd5d5;fill-opacity:1;stroke:#aa0000;stroke-width:2.25927806;font-family:Burst My Bubble;-inkscape-font-specification:Burst My Bubble"
         inkscape:original="M 236.25 60.90625 C 233.16112 60.90631 229.30606 61.9794 224.6875 64.15625 C 216.45054 71.275379 212.34375 81.199682 212.34375 93.9375 L 212.34375 94.8125 C 212.34375 98.430897 212.91704 102.17938 214.09375 106.0625 C 219.30067 116.50578 225.93771 121.75 233.96875 121.75 L 234.84375 121.75 C 237.962 121.75 241.35218 120.57216 245 118.21875 C 253.82526 111.33502 258.2187 102.34232 258.21875 91.28125 C 258.2187 86.868631 257.25585 82.188545 255.34375 77.1875 C 249.72493 66.4501 243.51237 61.02398 236.6875 60.90625 L 236.25 60.90625 z M 325.03125 60.90625 C 321.94237 60.90631 318.08731 61.9794 313.46875 64.15625 C 305.23179 71.275379 301.125 81.199682 301.125 93.9375 L 301.125 94.8125 C 301.125 98.430897 301.69829 102.17938 302.875 106.0625 C 308.08192 116.50578 314.71896 121.75 322.75 121.75 L 323.625 121.75 C 326.74325 121.75 330.13343 120.57216 333.78125 118.21875 C 342.60651 111.33502 346.99995 102.34232 347 91.28125 C 346.99995 86.868631 346.0371 82.188545 344.125 77.1875 C 338.50618 66.4501 332.29362 61.02398 325.46875 60.90625 L 325.03125 60.90625 z M 471.84375 61.0625 C 470.07869 61.062559 469.1875 61.667102 469.1875 62.84375 L 469.40625 64.375 L 468.96875 70.78125 L 468.96875 71.65625 L 469.40625 83.34375 C 471.17131 100.31777 472.0625 110.17042 472.0625 112.90625 C 472.53318 118.20144 474.45888 120.84375 477.8125 120.84375 L 483.53125 120.40625 L 488.625 120.40625 C 495.39104 120.40625 498.74997 119.47465 498.75 117.5625 C 498.74997 116.5623 498.10501 115.81444 496.78125 115.34375 C 494.81024 115.93211 492.38291 116.21875 489.5 116.21875 L 483.53125 116.21875 L 477.8125 116.65625 C 477.34181 116.65625 476.88059 116.29795 476.46875 115.5625 C 476.17456 109.41422 475.67293 103.09508 474.9375 96.59375 L 481.78125 96.15625 C 486.92932 96.156274 489.49998 95.408409 489.5 93.9375 C 489.49998 93.231503 489.11042 92.514888 488.375 91.75 L 474.71875 92.40625 C 474.07155 92.406278 473.53867 85.554258 473.15625 71.875 L 473.15625 70.125 C 473.15624 68.12465 473.29957 66.485597 473.59375 65.25 L 491.6875 66.15625 C 492.51117 66.156304 493.18737 65.695085 493.6875 64.8125 L 493.6875 63.9375 C 493.68747 62.613762 492.86795 61.937559 491.25 61.9375 L 471.84375 61.0625 z M 352.5625 63 C 351.09161 63.176563 350.375 63.781105 350.375 64.78125 C 350.02199 79.313627 350.4887 97.128126 351.8125 118.25 C 352.3126 119.42671 353.20379 120.03125 354.46875 120.03125 L 357.34375 119.59375 C 361.05037 120.03502 366.54998 120.39332 373.875 120.6875 L 374.09375 120.6875 C 378.41812 120.6875 380.84545 119.72465 381.375 117.8125 C 381.08079 116.34162 380.5075 115.59375 379.625 115.59375 C 377.77166 116.03502 376.1326 116.28125 374.75 116.28125 L 372.78125 116.28125 C 366.60352 116.28125 361.39055 115.96336 357.125 115.375 L 356.4375 115.59375 L 356 115.59375 C 354.6762 98.325592 354.20948 81.473942 354.5625 65 C 354.03298 63.676261 353.35677 63.000057 352.5625 63 z M 204.46875 64.78125 C 202.85075 64.869559 202.06247 65.514512 202.0625 66.75 C 202.79791 75.369426 203.15622 81.473582 203.15625 85.0625 L 203.15625 86.625 L 203.375 88.15625 C 202.5807 88.597547 200.82957 88.812532 198.09375 88.8125 L 189.25 88.8125 L 182.40625 89.25 C 181.96498 82.160377 181.74999 75.98456 181.75 70.71875 L 181.75 68.09375 C 181.66174 66.475831 181.01679 65.656305 179.78125 65.65625 C 178.51629 65.656305 177.76842 66.547493 177.5625 68.3125 L 177.5625 71.625 L 178.4375 102.9375 L 178.4375 117.0625 C 178.58459 119.71009 179.11747 121.03125 180 121.03125 L 180.875 121.03125 C 181.96345 121.03125 182.6084 120.3863 182.84375 119.0625 L 182.625 116.625 L 182.625 93.46875 C 184.06646 93.174601 186.20714 93.000027 189.03125 93 L 197.40625 93 L 203.375 92.5625 C 204.11041 105.41804 204.46872 114.02119 204.46875 118.375 C 204.7629 119.99297 205.4391 120.8125 206.46875 120.8125 C 207.58659 120.8125 208.30321 120.06463 208.65625 118.59375 C 207.77369 93.02981 207.12873 77.89254 206.6875 73.15625 C 206.68747 67.566943 205.9396 64.781306 204.46875 64.78125 z M 158.84375 64.8125 C 156.72566 64.812556 154.22667 65.345436 151.34375 66.375 C 142.81262 70.31702 138.5625 78.315624 138.5625 90.40625 L 138.5625 91.28125 C 138.5625 97.135392 139.59701 102.80958 141.65625 108.28125 C 145.2452 116.66529 151.85098 120.84375 161.5 120.84375 C 167.61885 120.84375 171.72564 118.73432 173.84375 114.46875 C 173.3142 113.14496 172.66924 112.46876 171.875 112.46875 L 170.78125 112.6875 C 168.78082 115.3351 165.82061 116.65625 161.9375 116.65625 C 158.34852 116.65625 155.41956 116.22628 153.125 115.34375 C 146.21183 111.7548 142.74999 103.72495 142.75 91.28125 L 142.75 90.1875 C 142.74999 85.333617 143.39495 81.370146 144.71875 78.28125 C 148.19003 72.103585 152.68638 69.000051 158.1875 69 L 160.84375 69 L 163.5 69.6875 C 165.08853 71.599698 166.09179 72.531298 166.5625 72.53125 C 168.03335 71.88411 168.78122 71.167494 168.78125 70.34375 L 168.78125 70.125 C 167.48684 66.594932 164.16832 64.812556 158.84375 64.8125 z M 282.21875 64.8125 C 280.10066 64.812556 277.60167 65.345436 274.71875 66.375 C 266.18762 70.31702 261.9375 78.315624 261.9375 90.40625 L 261.9375 91.28125 C 261.9375 97.135392 262.97201 102.80958 265.03125 108.28125 C 268.6202 116.66529 275.22598 120.84375 284.875 120.84375 C 290.99385 120.84375 295.10064 118.73432 297.21875 114.46875 C 296.6892 113.14496 296.04424 112.46876 295.25 112.46875 L 294.15625 112.6875 C 292.15582 115.3351 289.19561 116.65625 285.3125 116.65625 C 281.72352 116.65625 278.79456 116.22628 276.5 115.34375 C 269.58683 111.7548 266.12499 103.72495 266.125 91.28125 L 266.125 90.1875 C 266.12499 85.333617 266.76995 81.370146 268.09375 78.28125 C 271.56503 72.103585 276.06138 69.000051 281.5625 69 L 284.21875 69 L 286.875 69.6875 C 288.46353 71.599698 289.46679 72.531298 289.9375 72.53125 C 291.40835 71.88411 292.15622 71.167494 292.15625 70.34375 L 292.15625 70.125 C 290.86184 66.594932 287.54332 64.812556 282.21875 64.8125 z M 236.46875 65.09375 L 236.6875 65.09375 C 240.77653 65.211476 243.88006 66.745785 245.96875 69.6875 C 251.35214 75.541664 254.03121 82.577419 254.03125 90.84375 C 254.03121 95.933034 252.9967 100.64437 250.9375 104.96875 C 246.26005 113.49989 240.76044 117.78125 234.40625 117.78125 C 233.22952 117.78125 231.8367 117.53502 230.21875 117.09375 C 221.09926 113.24004 216.53124 105.88639 216.53125 95.03125 L 216.53125 93.28125 C 216.53124 87.280076 218.06739 80.817613 221.15625 73.875 C 224.89228 68.050351 229.99684 65.123223 236.46875 65.09375 z M 325.25 65.09375 L 325.46875 65.09375 C 329.55778 65.211476 332.66131 66.745785 334.75 69.6875 C 340.13339 75.541664 342.81246 82.577419 342.8125 90.84375 C 342.81246 95.933034 341.77795 100.64437 339.71875 104.96875 C 335.0413 113.49989 329.54169 117.78125 323.1875 117.78125 C 322.01077 117.78125 320.61795 117.53502 319 117.09375 C 309.88051 113.24004 305.31249 105.88639 305.3125 95.03125 L 305.3125 93.28125 C 305.31249 87.280076 306.84864 80.817613 309.9375 73.875 C 313.67353 68.050351 318.77809 65.123223 325.25 65.09375 z M 431.9375 67.6875 C 430.6137 67.952312 429.96875 68.525604 429.96875 69.4375 L 430.1875 70.5625 C 430.1875 71.886344 434.89884 72.531298 444.3125 72.53125 L 444.75 72.53125 C 445.19125 76.738023 445.40623 80.732744 445.40625 84.46875 L 445.1875 116.21875 C 445.18748 120.48431 445.93535 122.625 447.40625 122.625 C 448.87712 122.41907 449.59373 121.81453 449.59375 120.84375 L 449.375 114.25 L 449.8125 88.65625 L 448.9375 72.53125 L 463.28125 72.09375 C 465.19336 71.94671 466.15621 71.230095 466.15625 69.90625 C 466.15621 68.78843 465.40835 68.040565 463.9375 67.6875 L 463.9375 67.90625 L 444.3125 68.34375 L 442.96875 68.34375 C 439.43862 68.343802 435.76179 68.128818 431.9375 67.6875 z M 407.5625 69.84375 C 398.06057 69.579042 391.60178 76.754455 388.21875 91.375 C 385.95359 107.05464 384.30904 116.44056 383.25 119.5 C 383.22058 120.41195 383.8637 121.08998 385.1875 121.53125 L 385.40625 121.53125 C 387.64199 121.59008 389.53461 113.98837 391.09375 98.75 L 394.625 99.0625 C 403.39145 98.70951 412.71121 98.672763 422.625 98.9375 C 423.33098 105.11523 423.65071 110.04338 423.5625 113.75 C 423.41537 118.42741 424.16324 120.78491 425.78125 120.84375 C 426.69315 120.87317 427.37119 120.40645 427.8125 119.40625 C 427.69478 107.96278 427.19499 99.859435 426.3125 95.09375 C 423.16477 78.502218 416.98895 70.079142 407.78125 69.84375 L 407.5625 69.84375 z M 407.46875 73.8125 C 414.49955 73.989053 419.28621 80.807991 421.875 94.28125 L 421.21875 94.6875 C 413.18769 94.481602 403.97817 94.518349 393.59375 94.8125 C 392.5347 94.783108 391.96324 94.49463 391.875 93.90625 C 394.61083 80.285903 399.82014 73.577205 407.46875 73.8125 z "
         inkscape:radius="18.182745"
         sodipodi:type="inkscape:offset" />
      <text
         sodipodi:linespacing="125%"
         id="text2985-6-7"
         y="618.51465"
         x="84.070152"
         style="font-size:145.17849731px;font-style:normal;font-variant:normal;font-weight:normal;font-stretch:normal;line-height:125%;letter-spacing:0px;word-spacing:0px;fill:#aa0000;fill-opacity:1;stroke:#aa0000;stroke-width:3.62946224;font-family:Burst My Bubble;-inkscape-font-specification:Burst My Bubble"
         xml:space="preserve"><tspan
           style="fill:#aa0000;stroke:#aa0000;stroke-width:3.62946224"
           y="618.51465"
           x="84.070152"
           id="tspan2987-8-4"
           sodipodi:role="line">CHOCOLATE</tspan></text>
    </g>
  </g>
</svg>
